AfacadFlux-Bold.ufo
<glyph name="dollar" format="2">
  <advance width="750"/>
  <unicode hex="0024"/>
  <outline>
    <contour>
      <point x="336" y="-120" type="line"/>
      <point x="444" y="-120" type="line"/>
      <point x="444" y="-14" type="line"/>
      <point x="585" y="12"/>
      <point x="670" y="121"/>
      <point x="670" y="256" type="curve" smooth="yes"/>
      <point x="670" y="415"/>
      <point x="552" y="484"/>
      <point x="481" y="519" type="curve" smooth="yes"/>
      <point x="374" y="572" type="line" smooth="yes"/>
      <point x="319" y="599"/>
      <point x="286" y="626"/>
      <point x="286" y="673" type="curve" smooth="yes"/>
      <point x="286" y="722"/>
      <point x="322" y="760"/>
      <point x="388" y="760" type="curve" smooth="yes"/>
      <point x="461" y="760"/>
      <point x="540" y="714"/>
      <point x="594" y="645" type="curve"/>
      <point x="640" y="840" type="line"/>
      <point x="596" y="873"/>
      <point x="528" y="907"/>
      <point x="444" y="917" type="curve"/>
      <point x="444" y="990" type="line"/>
      <point x="336" y="990" type="line"/>
      <point x="336" y="915" type="line"/>
      <point x="200" y="894"/>
      <point x="116" y="798"/>
      <point x="116" y="666" type="curve" smooth="yes"/>
      <point x="116" y="527"/>
      <point x="206" y="463"/>
      <point x="299" y="417" type="curve" smooth="yes"/>
      <point x="405" y="364" type="line" smooth="yes"/>
      <point x="439" y="347"/>
      <point x="500" y="314"/>
      <point x="500" y="245" type="curve" smooth="yes"/>
      <point x="500" y="187"/>
      <point x="455" y="142"/>
      <point x="382" y="142" type="curve" smooth="yes"/>
      <point x="293" y="142"/>
      <point x="199" y="202"/>
      <point x="152" y="284" type="curve"/>
      <point x="103" y="84" type="line"/>
      <point x="155" y="33"/>
      <point x="241" y="-9"/>
      <point x="336" y="-18" type="curve"/>
    </contour>
  </outline>
</glyph>
<glyph name="quotesingle" format="2">
  <advance width="300"/>
  <unicode hex="0027"/>
  <outline>
    <contour>
      <point x="96" y="540" type="line"/>
      <point x="204" y="540" type="line"/>
      <point x="246" y="900" type="line"/>
      <point x="54" y="900" type="line"/>
    </contour>
  </outline>
</glyph>
<glyph name="asterisk" format="2">
  <advance width="600"/>
  <unicode hex="002A"/>
  <outline>
    <contour>
      <point x="208" y="393" type="line"/>
      <point x="300" y="552" type="line"/>
      <point x="392" y="393" type="line"/>
      <point x="507" y="478" type="line"/>
      <point x="384" y="615" type="line"/>
      <point x="566" y="653" type="line"/>
      <point x="521" y="790" type="line"/>
      <point x="353" y="715" type="line"/>
      <point x="372" y="900" type="line"/>
      <point x="228" y="900" type="line"/>
      <point x="248" y="715" type="line"/>
      <point x="80" y="790" type="line"/>
      <point x="35" y="653" type="line"/>
      <point x="216" y="615" type="line"/>
      <point x="93" y="478" type="line"/>
    </contour>
  </outline>
</glyph>
<glyph name="plus" format="2">
  <advance width="750"/>
  <unicode hex="002B"/>
  <outline>
    <contour>
      <point x="303" y="125" type="line"/>
      <point x="447" y="125" type="line"/>
      <point x="447" y="381" type="line"/>
      <point x="700" y="381" type="line"/>
      <point x="700" y="519" type="line"/>
      <point x="447" y="519" type="line"/>
      <point x="447" y="775" type="line"/>
      <point x="303" y="775" type="line"/>
      <point x="303" y="519" type="line"/>
      <point x="50" y="519" type="line"/>
      <point x="50" y="381" type="line"/>
      <point x="303" y="381" type="line"/>
    </contour>
  </outline>
</glyph>
<glyph name="comma" format="2">
  <advance width="300"/>
  <unicode hex="002C"/>
  <outline>
    <contour>
      <point x="-13" y="-150" type="curve"/>
      <point x="162" y="-150" type="line"/>
      <point x="224" y="-57"/>
      <point x="254" y="54"/>
      <point x="254" y="180" type="curve"/>
      <point x="86" y="180" type="line"/>
      <point x="86" y="39"/>
      <point x="44" y="-68"/>
    </contour>
  </outline>
</glyph>
<glyph name="three" format="2">
  <advance width="750"/>
  <unicode hex="0033"/>
  <outline>
    <contour>
      <point x="320" y="-20" type="curve" smooth="yes"/>
      <point x="500" y="-20"/>
      <point x="654" y="117"/>
      <point x="654" y="296" type="curve" smooth="yes"/>
      <point x="654" y="430"/>
      <point x="568" y="539"/>
      <point x="453" y="581" type="curve"/>
      <point x="624" y="898" type="line"/>
      <point x="624" y="900" type="line"/>
      <point x="108" y="900" type="line"/>
      <point x="108" y="744" type="line"/>
      <point x="367" y="744" type="line"/>
      <point x="208" y="431" type="line"/>
      <point x="209" y="430" type="line"/>
      <point x="244" y="448"/>
      <point x="279" y="458"/>
      <point x="318" y="458" type="curve" smooth="yes"/>
      <point x="418" y="458"/>
      <point x="484" y="388"/>
      <point x="484" y="301" type="curve" smooth="yes"/>
      <point x="484" y="211"/>
      <point x="413" y="142"/>
      <point x="322" y="142" type="curve" smooth="yes"/>
      <point x="231" y="142"/>
      <point x="160" y="211"/>
      <point x="139" y="295" type="curve"/>
      <point x="48" y="116" type="line"/>
      <point x="106" y="35"/>
      <point x="206" y="-20"/>
    </contour>
  </outline>
</glyph>
<glyph name="six" format="2">
  <advance width="750"/>
  <unicode hex="0036"/>
  <outline>
    <contour>
      <point x="381" y="-20" type="curve" smooth="yes"/>
      <point x="564" y="-20"/>
      <point x="708" y="118"/>
      <point x="708" y="296" type="curve" smooth="yes"/>
      <point x="708" y="469"/>
      <point x="569" y="606"/>
      <point x="399" y="606" type="curve" smooth="yes"/>
      <point x="384" y="606"/>
      <point x="369" y="605"/>
      <point x="354" y="602" type="curve"/>
      <point x="516" y="900" type="line"/>
      <point x="332" y="900" type="line"/>
      <point x="96" y="452" type="line" smooth="yes"/>
      <point x="69" y="400"/>
      <point x="54" y="350"/>
      <point x="54" y="294" type="curve" smooth="yes"/>
      <point x="54" y="118"/>
      <point x="198" y="-20"/>
    </contour>
    <contour>
      <point x="381" y="142" type="curve" smooth="yes"/>
      <point x="293" y="142"/>
      <point x="224" y="213"/>
      <point x="224" y="299" type="curve" smooth="yes"/>
      <point x="224" y="385"/>
      <point x="293" y="456"/>
      <point x="381" y="456" type="curve" smooth="yes"/>
      <point x="470" y="456"/>
      <point x="538" y="385"/>
      <point x="538" y="299" type="curve" smooth="yes"/>
      <point x="538" y="213"/>
      <point x="469" y="142"/>
    </contour>
  </outline>
</glyph>
<glyph name="seven" format="2">
  <advance width="750"/>
  <unicode hex="0037"/>
  <outline>
    <contour>
      <point x="104" y="0" type="line"/>
      <point x="302" y="0" type="line"/>
      <point x="725" y="898" type="line"/>
      <point x="725" y="900" type="line"/>
      <point x="72" y="900" type="line"/>
      <point x="72" y="738" type="line"/>
      <point x="456" y="738" type="line"/>
    </contour>
  </outline>
</glyph>
<glyph name="eight" format="2">
  <advance width="750"/>
  <unicode hex="0038"/>
  <outline>
    <contour>
      <point x="375" y="-20" type="curve" smooth="yes"/>
      <point x="545" y="-20"/>
      <point x="697" y="122"/>
      <point x="697" y="294" type="curve" smooth="yes"/>
      <point x="697" y="400"/>
      <point x="644" y="491"/>
      <point x="565" y="547" type="curve"/>
      <point x="596" y="584"/>
      <point x="615" y="631"/>
      <point x="615" y="687" type="curve" smooth="yes"/>
      <point x="615" y="819"/>
      <point x="508" y="920"/>
      <point x="375" y="920" type="curve" smooth="yes"/>
      <point x="242" y="920"/>
      <point x="135" y="819"/>
      <point x="135" y="687" type="curve" smooth="yes"/>
      <point x="135" y="630"/>
      <point x="154" y="584"/>
      <point x="185" y="547" type="curve"/>
      <point x="106" y="491"/>
      <point x="53" y="400"/>
      <point x="53" y="294" type="curve" smooth="yes"/>
      <point x="53" y="117"/>
      <point x="200" y="-20"/>
    </contour>
    <contour>
      <point x="375" y="138" type="curve" smooth="yes"/>
      <point x="288" y="138"/>
      <point x="219" y="208"/>
      <point x="219" y="294" type="curve" smooth="yes"/>
      <point x="219" y="381"/>
      <point x="288" y="450"/>
      <point x="375" y="450" type="curve" smooth="yes"/>
      <point x="462" y="450"/>
      <point x="531" y="381"/>
      <point x="531" y="294" type="curve" smooth="yes"/>
      <point x="531" y="208"/>
      <point x="462" y="138"/>
    </contour>
    <contour>
      <point x="375" y="590" type="curve" smooth="yes"/>
      <point x="325" y="590"/>
      <point x="285" y="630"/>
      <point x="285" y="680" type="curve" smooth="yes"/>
      <point x="285" y="730"/>
      <point x="325" y="770"/>
      <point x="375" y="770" type="curve" smooth="yes"/>
      <point x="425" y="770"/>
      <point x="465" y="730"/>
      <point x="465" y="680" type="curve" smooth="yes"/>
      <point x="465" y="630"/>
      <point x="425" y="590"/>
    </contour>
  </outline>
</glyph>
<glyph name="nine" format="2">
  <advance width="750"/>
  <unicode hex="0039"/>
  <outline>
    <contour>
      <point x="228" y="0" type="line"/>
      <point x="408" y="0" type="line"/>
      <point x="649" y="459" type="line" smooth="yes"/>
      <point x="675" y="509"/>
      <point x="690" y="558"/>
      <point x="690" y="613" type="curve" smooth="yes"/>
      <point x="690" y="785"/>
      <point x="549" y="920"/>
      <point x="369" y="920" type="curve" smooth="yes"/>
      <point x="190" y="920"/>
      <point x="48" y="785"/>
      <point x="48" y="610" type="curve" smooth="yes"/>
      <point x="48" y="440"/>
      <point x="180" y="306"/>
      <point x="351" y="306" type="curve" smooth="yes"/>
      <point x="364" y="306"/>
      <point x="377" y="307"/>
      <point x="390" y="309" type="curve"/>
    </contour>
    <contour>
      <point x="369" y="456" type="curve" smooth="yes"/>
      <point x="284" y="456"/>
      <point x="218" y="524"/>
      <point x="218" y="607" type="curve" smooth="yes"/>
      <point x="218" y="690"/>
      <point x="285" y="758"/>
      <point x="369" y="758" type="curve" smooth="yes"/>
      <point x="453" y="758"/>
      <point x="520" y="690"/>
      <point x="520" y="607" type="curve" smooth="yes"/>
      <point x="520" y="524"/>
      <point x="453" y="456"/>
    </contour>
  </outline>
</glyph>
<glyph name="less" format="2">
  <advance width="750"/>
  <unicode hex="003C"/>
  <outline>
    <contour>
      <point x="678" y="127" type="line"/>
      <point x="678" y="284" type="line"/>
      <point x="438" y="399" type="line" smooth="yes"/>
      <point x="401" y="417"/>
      <point x="358" y="434"/>
      <point x="317" y="450" type="curve"/>
      <point x="358" y="467"/>
      <point x="401" y="484"/>
      <point x="438" y="502" type="curve" smooth="yes"/>
      <point x="678" y="618" type="line"/>
      <point x="678" y="773" type="line"/>
      <point x="24" y="451" type="line"/>
      <point x="24" y="449" type="line"/>
    </contour>
  </outline>
</glyph>
<glyph name="equal" format="2">
  <advance width="750"/>
  <unicode hex="003D"/>
  <outline>
    <contour>
      <point x="80" y="505" type="line"/>
      <point x="670" y="505" type="line"/>
      <point x="670" y="643" type="line"/>
      <point x="80" y="643" type="line"/>
    </contour>
    <contour>
      <point x="80" y="257" type="line"/>
      <point x="670" y="257" type="line"/>
      <point x="670" y="395" type="line"/>
      <point x="80" y="395" type="line"/>
    </contour>
  </outline>
</glyph>
<glyph name="greater" format="2">
  <advance width="750"/>
  <unicode hex="003E"/>
  <outline>
    <contour>
      <point x="72" y="127" type="line"/>
      <point x="726" y="449" type="line"/>
      <point x="726" y="451" type="line"/>
      <point x="72" y="773" type="line"/>
      <point x="72" y="616" type="line"/>
      <point x="312" y="501" type="line" smooth="yes"/>
      <point x="349" y="483"/>
      <point x="392" y="466"/>
      <point x="433" y="450" type="curve"/>
      <point x="392" y="433"/>
      <point x="349" y="416"/>
      <point x="312" y="398" type="curve" smooth="yes"/>
      <point x="72" y="282" type="line"/>
    </contour>
  </outline>
</glyph>
<glyph name="at" format="2">
  <advance width="1260"/>
  <unicode hex="0040"/>
  <outline>
    <contour>
      <point x="648" y="-192" type="curve" smooth="yes"/>
      <point x="776" y="-192"/>
      <point x="890" y="-154"/>
      <point x="984" y="-86" type="curve"/>
      <point x="951" y="40" type="line"/>
      <point x="867" y="-25"/>
      <point x="764" y="-60"/>
      <point x="653" y="-60" type="curve" smooth="yes"/>
      <point x="402" y="-60"/>
      <point x="214" y="123"/>
      <point x="214" y="358" type="curve" smooth="yes"/>
      <point x="214" y="592"/>
      <point x="400" y="780"/>
      <point x="660" y="780" type="curve" smooth="yes"/>
      <point x="904" y="780"/>
      <point x="1058" y="615"/>
      <point x="1058" y="389" type="curve" smooth="yes"/>
      <point x="1058" y="269"/>
      <point x="1015" y="191"/>
      <point x="956" y="191" type="curve" smooth="yes"/>
      <point x="925" y="191"/>
      <point x="900" y="212"/>
      <point x="900" y="267" type="curve" smooth="yes"/>
      <point x="900" y="630" type="line"/>
      <point x="763" y="630" type="line"/>
      <point x="763" y="592" type="line"/>
      <point x="718" y="625"/>
      <point x="662" y="644"/>
      <point x="601" y="644" type="curve" smooth="yes"/>
      <point x="449" y="644"/>
      <point x="327" y="516"/>
      <point x="327" y="360" type="curve" smooth="yes"/>
      <point x="327" y="204"/>
      <point x="449" y="76"/>
      <point x="601" y="76" type="curve" smooth="yes"/>
      <point x="677" y="76"/>
      <point x="744" y="106"/>
      <point x="793" y="155" type="curve"/>
      <point x="821" y="108"/>
      <point x="875" y="76"/>
      <point x="945" y="76" type="curve" smooth="yes"/>
      <point x="1081" y="76"/>
      <point x="1204" y="196"/>
      <point x="1204" y="405" type="curve" smooth="yes"/>
      <point x="1204" y="697"/>
      <point x="960" y="912"/>
      <point x="654" y="912" type="curve" smooth="yes"/>
      <point x="326" y="912"/>
      <point x="68" y="664"/>
      <point x="68" y="357" type="curve" smooth="yes"/>
      <point x="68" y="50"/>
      <point x="326" y="-192"/>
    </contour>
    <contour>
      <point x="627" y="214" type="curve" smooth="yes"/>
      <point x="548" y="214"/>
      <point x="485" y="279"/>
      <point x="485" y="360" type="curve" smooth="yes"/>
      <point x="485" y="441"/>
      <point x="548" y="506"/>
      <point x="627" y="506" type="curve" smooth="yes"/>
      <point x="706" y="506"/>
      <point x="769" y="441"/>
      <point x="769" y="360" type="curve" smooth="yes"/>
      <point x="769" y="279"/>
      <point x="706" y="214"/>
    </contour>
  </outline>
</glyph>
<glyph name="A" format="2">
  <advance width="820"/>
  <unicode hex="0041"/>
  <anchor x="410" y="0" name="bottom"/>
  <anchor x="718" y="0" name="ogonek"/>
  <anchor x="410" y="900" name="top"/>
  <anchor x="130" y="720" name="top-vertical"/>
  <outline>
    <contour>
      <point x="12" y="0" type="line"/>
      <point x="187" y="0" type="line"/>
      <point x="254" y="160" type="line"/>
      <point x="560" y="160" type="line"/>
      <point x="627" y="0" type="line"/>
      <point x="808" y="0" type="line"/>
      <point x="411" y="932" type="line"/>
      <point x="409" y="932" type="line"/>
    </contour>
    <contour>
      <point x="314" y="304" type="line"/>
      <point x="353" y="396" type="line" smooth="yes"/>
      <point x="374" y="445"/>
      <point x="391" y="488"/>
      <point x="406" y="548" type="curve"/>
      <point x="422" y="487"/>
      <point x="440" y="445"/>
      <point x="461" y="396" type="curve" smooth="yes"/>
      <point x="500" y="304" type="line"/>
    </contour>
  </outline>
</glyph>
<glyph name="B" format="2">
  <advance width="750"/>
  <unicode hex="0042"/>
  <outline>
    <contour>
      <point x="96" y="0" type="line"/>
      <point x="366" y="0" type="line" smooth="yes"/>
      <point x="586" y="0"/>
      <point x="702" y="155"/>
      <point x="702" y="309" type="curve" smooth="yes"/>
      <point x="702" y="414"/>
      <point x="647" y="504"/>
      <point x="564" y="556" type="curve"/>
      <point x="600" y="591"/>
      <point x="621" y="638"/>
      <point x="621" y="690" type="curve" smooth="yes"/>
      <point x="621" y="777"/>
      <point x="558" y="900"/>
      <point x="378" y="900" type="curve" smooth="yes"/>
      <point x="96" y="900" type="line"/>
    </contour>
    <contour>
      <point x="270" y="162" type="line"/>
      <point x="270" y="468" type="line"/>
      <point x="348" y="468" type="line" smooth="yes"/>
      <point x="470" y="468"/>
      <point x="514" y="383"/>
      <point x="514" y="315" type="curve" smooth="yes"/>
      <point x="514" y="245"/>
      <point x="467" y="162"/>
      <point x="348" y="162" type="curve" smooth="yes"/>
    </contour>
    <contour>
      <point x="270" y="594" type="line"/>
      <point x="270" y="768" type="line"/>
      <point x="352" y="768" type="line" smooth="yes"/>
      <point x="411" y="768"/>
      <point x="453" y="738"/>
      <point x="453" y="680" type="curve" smooth="yes"/>
      <point x="453" y="624"/>
      <point x="411" y="594"/>
      <point x="348" y="594" type="curve" smooth="yes"/>
    </contour>
  </outline>
</glyph>
<glyph name="C" format="2">
  <advance width="870"/>
  <unicode hex="0043"/>
  <anchor x="530" y="0" name="bottom"/>
  <anchor x="530" y="900" name="top"/>
  <outline>
    <contour>
      <point x="530" y="-18" type="curve" smooth="yes"/>
      <point x="649" y="-18"/>
      <point x="755" y="24"/>
      <point x="839" y="93" type="curve"/>
      <point x="788" y="303" type="line"/>
      <point x="739" y="220"/>
      <point x="648" y="156"/>
      <point x="536" y="156" type="curve" smooth="yes"/>
      <point x="373" y="156"/>
      <point x="248" y="287"/>
      <point x="248" y="450" type="curve" smooth="yes"/>
      <point x="248" y="613"/>
      <point x="373" y="744"/>
      <point x="536" y="744" type="curve" smooth="yes"/>
      <point x="649" y="744"/>
      <point x="738" y="680"/>
      <point x="788" y="597" type="curve"/>
      <point x="839" y="807" type="line"/>
      <point x="756" y="877"/>
      <point x="648" y="918"/>
      <point x="530" y="918" type="curve" smooth="yes"/>
      <point x="267" y="918"/>
      <point x="54" y="709"/>
      <point x="54" y="450" type="curve" smooth="yes"/>
      <point x="54" y="191"/>
      <point x="267" y="-18"/>
    </contour>
  </outline>
</glyph>
<glyph name="E" format="2">
  <advance width="630"/>
  <unicode hex="0045"/>
  <anchor x="348" y="0" name="bottom"/>
  <anchor x="502" y="0" name="ogonek"/>
  <anchor x="348" y="900" name="top"/>
  <anchor x="126" y="900" name="topleft"/>
  <outline>
    <contour>
      <point x="96" y="0" type="line"/>
      <point x="576" y="0" type="line"/>
      <point x="576" y="162" type="line"/>
      <point x="270" y="162" type="line"/>
      <point x="270" y="456" type="line"/>
      <point x="506" y="456" type="line"/>
      <point x="506" y="606" type="line"/>
      <point x="270" y="606" type="line"/>
      <point x="270" y="744" type="line"/>
      <point x="576" y="744" type="line"/>
      <point x="576" y="900" type="line"/>
      <point x="96" y="900" type="line"/>
    </contour>
  </outline>
</glyph>
<glyph name="F" format="2">
  <advance width="600"/>
  <unicode hex="0046"/>
  <outline>
    <contour>
      <point x="96" y="0" type="line"/>
      <point x="270" y="0" type="line"/>
      <point x="270" y="456" type="line"/>
      <point x="546" y="456" type="line"/>
      <point x="546" y="606" type="line"/>
      <point x="270" y="606" type="line"/>
      <point x="270" y="744" type="line"/>
      <point x="576" y="744" type="line"/>
      <point x="576" y="900" type="line"/>
      <point x="96" y="900" type="line"/>
    </contour>
  </outline>
</glyph>
<glyph name="H" format="2">
  <advance width="800"/>
  <unicode hex="0048"/>
  <anchor x="400" y="0" name="bottom"/>
  <anchor x="400" y="750" name="center"/>
  <anchor x="400" y="900" name="top"/>
  <anchor x="96" y="900" name="topleft"/>
  <outline>
    <contour>
      <point x="96" y="0" type="line"/>
      <point x="270" y="0" type="line"/>
      <point x="270" y="450" type="line"/>
      <point x="530" y="450" type="line"/>
      <point x="530" y="0" type="line"/>
      <point x="704" y="0" type="line"/>
      <point x="704" y="900" type="line"/>
      <point x="530" y="900" type="line"/>
      <point x="530" y="612" type="line"/>
      <point x="270" y="612" type="line"/>
      <point x="270" y="900" type="line"/>
      <point x="96" y="900" type="line"/>
    </contour>
  </outline>
</glyph>
<glyph name="K" format="2">
  <advance width="800"/>
  <unicode hex="004B"/>
  <anchor x="438" y="0" name="bottom"/>
  <anchor x="370" y="900" name="top"/>
  <outline>
    <contour>
      <point x="595" y="0" type="line"/>
      <point x="806" y="0" type="line"/>
      <point x="472" y="558" type="line"/>
      <point x="722" y="900" type="line"/>
      <point x="516" y="900" type="line"/>
      <point x="267" y="555" type="line"/>
    </contour>
    <contour>
      <point x="96" y="0" type="line"/>
      <point x="276" y="0" type="line"/>
      <point x="276" y="900" type="line"/>
      <point x="96" y="900" type="line"/>
    </contour>
  </outline>
</glyph>
<glyph name="L" format="2">
  <advance width="600"/>
  <unicode hex="004C"/>
  <anchor x="339" y="0" name="bottom"/>
  <anchor x="183" y="450" name="center"/>
  <anchor x="420" y="480" name="periodcentered"/>
  <anchor x="183" y="900" name="top"/>
  <anchor x="282" y="900" name="topright"/>
  <outline>
    <contour>
      <point x="96" y="0" type="line"/>
      <point x="552" y="0" type="line"/>
      <point x="552" y="162" type="line"/>
      <point x="282" y="162" type="line"/>
      <point x="282" y="900" type="line"/>
      <point x="96" y="900" type="line"/>
    </contour>
  </outline>
</glyph>
<glyph name="Q" format="2">
  <advance width="1060"/>
  <unicode hex="0051"/>
  <outline>
    <contour>
      <point x="821" y="-30" type="line"/>
      <point x="1023" y="-30" type="line"/>
      <point x="884" y="137" type="line"/>
      <point x="960" y="220"/>
      <point x="1006" y="330"/>
      <point x="1006" y="450" type="curve" smooth="yes"/>
      <point x="1006" y="709"/>
      <point x="793" y="918"/>
      <point x="530" y="918" type="curve" smooth="yes"/>
      <point x="267" y="918"/>
      <point x="54" y="709"/>
      <point x="54" y="450" type="curve" smooth="yes"/>
      <point x="54" y="191"/>
      <point x="267" y="-18"/>
      <point x="530" y="-18" type="curve" smooth="yes"/>
      <point x="614" y="-18"/>
      <point x="693" y="3"/>
      <point x="762" y="41" type="curve"/>
    </contour>
    <contour>
      <point x="530" y="156" type="curve" smooth="yes"/>
      <point x="368" y="156"/>
      <point x="242" y="287"/>
      <point x="242" y="450" type="curve" smooth="yes"/>
      <point x="242" y="613"/>
      <point x="368" y="744"/>
      <point x="530" y="744" type="curve" smooth="yes"/>
      <point x="692" y="744"/>
      <point x="818" y="613"/>
      <point x="818" y="450" type="curve" smooth="yes"/>
      <point x="818" y="386"/>
      <point x="799" y="328"/>
      <point x="766" y="280" type="curve"/>
      <point x="624" y="450" type="line"/>
      <point x="424" y="450" type="line"/>
      <point x="648" y="181" type="line"/>
      <point x="612" y="165"/>
      <point x="572" y="156"/>
    </contour>
  </outline>
</glyph>
<glyph name="R" format="2">
  <advance width="800"/>
  <unicode hex="0052"/>
  <anchor x="439" y="0" name="bottom"/>
  <anchor x="325" y="900" name="top"/>
  <outline>
    <contour>
      <point x="99" y="0" type="line"/>
      <point x="273" y="0" type="line"/>
      <point x="273" y="342" type="line"/>
      <point x="409" y="342" type="line"/>
      <point x="609" y="0" type="line"/>
      <point x="806" y="0" type="line"/>
      <point x="568" y="395" type="line"/>
      <point x="642" y="444"/>
      <point x="685" y="523"/>
      <point x="685" y="616" type="curve" smooth="yes"/>
      <point x="685" y="769"/>
      <point x="570" y="900"/>
      <point x="374" y="900" type="curve" smooth="yes"/>
      <point x="99" y="900" type="line"/>
    </contour>
    <contour>
      <point x="273" y="492" type="line"/>
      <point x="273" y="744" type="line"/>
      <point x="366" y="744" type="line" smooth="yes"/>
      <point x="452" y="744"/>
      <point x="511" y="692"/>
      <point x="511" y="619" type="curve" smooth="yes"/>
      <point x="511" y="558"/>
      <point x="467" y="492"/>
      <point x="366" y="492" type="curve" smooth="yes"/>
    </contour>
  </outline>
</glyph>
<glyph name="T" format="2">
  <advance width="710"/>
  <unicode hex="0054"/>
  <anchor x="355" y="0" name="bottom"/>
  <anchor x="355" y="450" name="center"/>
  <anchor x="355" y="900" name="top"/>
  <outline>
    <contour>
      <point x="262" y="0" type="line"/>
      <point x="448" y="0" type="line"/>
      <point x="448" y="738" type="line"/>
      <point x="668" y="738" type="line"/>
      <point x="668" y="900" type="line"/>
      <point x="42" y="900" type="line"/>
      <point x="42" y="738" type="line"/>
      <point x="262" y="738" type="line"/>
    </contour>
  </outline>
</glyph>
<glyph name="U" format="2">
  <advance width="800"/>
  <unicode hex="0055"/>
  <anchor x="400" y="0" name="bottom"/>
  <anchor x="430" y="0" name="ogonek"/>
  <anchor x="400" y="900" name="top"/>
  <anchor x="400" y="720" name="top-vertical"/>
  <anchor x="635" y="900" name="topright"/>
  <outline>
    <contour>
      <point x="400" y="-21" type="curve" smooth="yes"/>
      <point x="593" y="-21"/>
      <point x="728" y="101"/>
      <point x="728" y="306" type="curve" smooth="yes"/>
      <point x="728" y="900" type="line"/>
      <point x="548" y="900" type="line"/>
      <point x="548" y="306" type="line" smooth="yes"/>
      <point x="548" y="213"/>
      <point x="487" y="153"/>
      <point x="403" y="153" type="curve" smooth="yes"/>
      <point x="318" y="153"/>
      <point x="258" y="215"/>
      <point x="258" y="312" type="curve" smooth="yes"/>
      <point x="258" y="900" type="line"/>
      <point x="72" y="900" type="line"/>
      <point x="72" y="303" type="line" smooth="yes"/>
      <point x="72" y="101"/>
      <point x="210" y="-21"/>
    </contour>
  </outline>
</glyph>
<glyph name="V" format="2">
  <advance width="770"/>
  <unicode hex="0056"/>
  <outline>
    <contour>
      <point x="384" y="-30" type="line"/>
      <point x="386" y="-30" type="line"/>
      <point x="764" y="900" type="line"/>
      <point x="583" y="900" type="line"/>
      <point x="436" y="530" type="line" smooth="yes"/>
      <point x="418" y="485"/>
      <point x="403" y="450"/>
      <point x="390" y="404" type="curve"/>
      <point x="375" y="452"/>
      <point x="359" y="488"/>
      <point x="343" y="530" type="curve" smooth="yes"/>
      <point x="196" y="900" type="line"/>
      <point x="6" y="900" type="line"/>
    </contour>
  </outline>
</glyph>
<glyph name="W" format="2">
  <advance width="1220"/>
  <unicode hex="0057"/>
  <anchor x="611" y="0" name="bottom"/>
  <anchor x="614" y="900" name="top"/>
  <outline>
    <contour>
      <point x="375" y="-32" type="line"/>
      <point x="377" y="-32" type="line"/>
      <point x="562" y="413" type="line" smooth="yes"/>
      <point x="577" y="449"/>
      <point x="593" y="485"/>
      <point x="610" y="541" type="curve"/>
      <point x="627" y="485"/>
      <point x="643" y="448"/>
      <point x="658" y="412" type="curve" smooth="yes"/>
      <point x="843" y="-32" type="line"/>
      <point x="845" y="-32" type="line"/>
      <point x="1214" y="900" type="line"/>
      <point x="1033" y="900" type="line"/>
      <point x="883" y="516" type="line" smooth="yes"/>
      <point x="869" y="480"/>
      <point x="855" y="444"/>
      <point x="838" y="388" type="curve"/>
      <point x="821" y="444"/>
      <point x="803" y="480"/>
      <point x="788" y="516" type="curve" smooth="yes"/>
      <point x="615" y="930" type="line"/>
      <point x="613" y="930" type="line"/>
      <point x="442" y="516" type="line" smooth="yes"/>
      <point x="427" y="480"/>
      <point x="410" y="444"/>
      <point x="393" y="388" type="curve"/>
      <point x="376" y="444"/>
      <point x="362" y="480"/>
      <point x="348" y="516" type="curve" smooth="yes"/>
      <point x="196" y="900" type="line"/>
      <point x="6" y="900" type="line"/>
    </contour>
  </outline>
</glyph>
<glyph name="X" format="2">
  <advance width="870"/>
  <unicode hex="0058"/>
  <outline>
    <contour>
      <point x="6" y="0" type="line"/>
      <point x="208" y="0" type="line"/>
      <point x="365" y="270" type="line" smooth="yes"/>
      <point x="387" y="307"/>
      <point x="407" y="346"/>
      <point x="432" y="393" type="curve"/>
      <point x="457" y="346"/>
      <point x="477" y="307"/>
      <point x="499" y="270" type="curve" smooth="yes"/>
      <point x="656" y="0" type="line"/>
      <point x="864" y="0" type="line"/>
      <point x="558" y="522" type="line"/>
      <point x="787" y="900" type="line"/>
      <point x="591" y="900" type="line"/>
      <point x="512" y="774" type="line" smooth="yes"/>
      <point x="488" y="735"/>
      <point x="465" y="694"/>
      <point x="437" y="633" type="curve"/>
      <point x="408" y="693"/>
      <point x="385" y="735"/>
      <point x="361" y="773" type="curve" smooth="yes"/>
      <point x="282" y="900" type="line"/>
      <point x="78" y="900" type="line"/>
      <point x="309" y="517" type="line"/>
    </contour>
  </outline>
</glyph>
<glyph name="Y" format="2">
  <advance width="710"/>
  <unicode hex="0059"/>
  <anchor x="356" y="0" name="bottom"/>
  <anchor x="356" y="900" name="top"/>
  <anchor x="33" y="900" name="topleft"/>
  <outline>
    <contour>
      <point x="265" y="0" type="line"/>
      <point x="445" y="0" type="line"/>
      <point x="445" y="426" type="line"/>
      <point x="704" y="900" type="line"/>
      <point x="514" y="900" type="line"/>
      <point x="407" y="698" type="line" smooth="yes"/>
      <point x="391" y="668"/>
      <point x="376" y="641"/>
      <point x="360" y="600" type="curve"/>
      <point x="345" y="641"/>
      <point x="329" y="669"/>
      <point x="314" y="698" type="curve" smooth="yes"/>
      <point x="208" y="900" type="line"/>
      <point x="6" y="900" type="line"/>
      <point x="265" y="426" type="line"/>
    </contour>
  </outline>
</glyph>
<glyph name="Z" format="2">
  <advance width="680"/>
  <unicode hex="005A"/>
  <anchor x="324" y="0" name="bottom"/>
  <anchor x="333" y="450" name="center"/>
  <anchor x="354" y="900" name="top"/>
  <outline>
    <contour>
      <point x="18" y="0" type="line"/>
      <point x="629" y="0" type="line"/>
      <point x="629" y="162" type="line"/>
      <point x="283" y="162" type="line"/>
      <point x="650" y="898" type="line"/>
      <point x="650" y="900" type="line"/>
      <point x="63" y="900" type="line"/>
      <point x="63" y="738" type="line"/>
      <point x="385" y="738" type="line"/>
      <point x="18" y="2" type="line"/>
    </contour>
  </outline>
</glyph>
<glyph name="backslash" format="2">
  <advance width="520"/>
  <unicode hex="005C"/>
  <outline>
    <contour>
      <point x="447" y="-180" type="line"/>
      <point x="600" y="-180" type="line"/>
      <point x="74" y="960" type="line"/>
      <point x="-80" y="960" type="line"/>
    </contour>
  </outline>
</glyph>
<glyph name="bracketright" format="2">
  <advance width="480"/>
  <unicode hex="005D"/>
  <outline>
    <contour>
      <point x="60" y="-180" type="line"/>
      <point x="390" y="-180" type="line"/>
      <point x="390" y="960" type="line"/>
      <point x="60" y="960" type="line"/>
      <point x="60" y="828" type="line"/>
      <point x="240" y="828" type="line"/>
      <point x="240" y="-48" type="line"/>
      <point x="60" y="-48" type="line"/>
    </contour>
  </outline>
</glyph>
<glyph name="asciicircum" format="2">
  <advance width="750"/>
  <unicode hex="005E"/>
  <outline>
    <contour>
      <point x="52" y="162" type="line"/>
      <point x="209" y="162" type="line"/>
      <point x="324" y="402" type="line" smooth="yes"/>
      <point x="342" y="439"/>
      <point x="359" y="482"/>
      <point x="375" y="523" type="curve"/>
      <point x="392" y="482"/>
      <point x="409" y="439"/>
      <point x="427" y="402" type="curve" smooth="yes"/>
      <point x="543" y="162" type="line"/>
      <point x="698" y="162" type="line"/>
      <point x="377" y="816" type="line"/>
      <point x="375" y="816" type="line"/>
    </contour>
  </outline>
</glyph>
<glyph name="a" format="2">
  <advance width="740"/>
  <unicode hex="0061"/>
  <anchor x="350" y="0" name="bottom"/>
  <anchor x="599" y="0" name="ogonek"/>
  <anchor x="360" y="600" name="top"/>
  <outline>
    <contour>
      <point x="336" y="-16" type="curve" smooth="yes"/>
      <point x="413" y="-16"/>
      <point x="478" y="13"/>
      <point x="524" y="61" type="curve"/>
      <point x="524" y="0" type="line"/>
      <point x="674" y="0" type="line"/>
      <point x="674" y="600" type="line"/>
      <point x="524" y="600" type="line"/>
      <point x="524" y="539" type="line"/>
      <point x="478" y="587"/>
      <point x="413" y="616"/>
      <point x="336" y="616" type="curve" smooth="yes"/>
      <point x="170" y="616"/>
      <point x="36" y="474"/>
      <point x="36" y="300" type="curve" smooth="yes"/>
      <point x="36" y="126"/>
      <point x="170" y="-16"/>
    </contour>
    <contour>
      <point x="357" y="137" type="curve" smooth="yes"/>
      <point x="269" y="137"/>
      <point x="198" y="210"/>
      <point x="198" y="300" type="curve" smooth="yes"/>
      <point x="198" y="390"/>
      <point x="269" y="463"/>
      <point x="357" y="463" type="curve" smooth="yes"/>
      <point x="445" y="463"/>
      <point x="516" y="390"/>
      <point x="516" y="300" type="curve" smooth="yes"/>
      <point x="516" y="210"/>
      <point x="445" y="137"/>
    </contour>
  </outline>
</glyph>
<glyph name="b" format="2">
  <advance width="740"/>
  <unicode hex="0062"/>
  <anchor x="378" y="0" name="bottom"/>
  <anchor x="378" y="914" name="top"/>
  <outline>
    <contour>
      <point x="403" y="-16" type="curve" smooth="yes"/>
      <point x="570" y="-16"/>
      <point x="704" y="126"/>
      <point x="704" y="300" type="curve" smooth="yes"/>
      <point x="704" y="474"/>
      <point x="570" y="616"/>
      <point x="403" y="616" type="curve" smooth="yes"/>
      <point x="339" y="616"/>
      <point x="284" y="596"/>
      <point x="240" y="562" type="curve"/>
      <point x="240" y="960" type="line"/>
      <point x="66" y="960" type="line"/>
      <point x="66" y="0" type="line"/>
      <point x="216" y="0" type="line"/>
      <point x="216" y="59" type="line"/>
      <point x="262" y="12"/>
      <point x="327" y="-16"/>
    </contour>
    <contour>
      <point x="383" y="137" type="curve" smooth="yes"/>
      <point x="295" y="137"/>
      <point x="224" y="210"/>
      <point x="224" y="300" type="curve" smooth="yes"/>
      <point x="224" y="390"/>
      <point x="295" y="463"/>
      <point x="383" y="463" type="curve" smooth="yes"/>
      <point x="471" y="463"/>
      <point x="542" y="390"/>
      <point x="542" y="300" type="curve" smooth="yes"/>
      <point x="542" y="210"/>
      <point x="471" y="137"/>
    </contour>
  </outline>
</glyph>
<glyph name="d" format="2">
  <advance width="740"/>
  <unicode hex="0064"/>
  <anchor x="371" y="0" name="bottom"/>
  <anchor x="592" y="780" name="center"/>
  <anchor x="371" y="600" name="top"/>
  <anchor x="674" y="960" name="topright"/>
  <outline>
    <contour>
      <point x="337" y="-16" type="curve" smooth="yes"/>
      <point x="413" y="-16"/>
      <point x="478" y="12"/>
      <point x="524" y="59" type="curve"/>
      <point x="524" y="0" type="line"/>
      <point x="674" y="0" type="line"/>
      <point x="674" y="960" type="line"/>
      <point x="500" y="960" type="line"/>
      <point x="500" y="562" type="line"/>
      <point x="456" y="596"/>
      <point x="401" y="616"/>
      <point x="337" y="616" type="curve" smooth="yes"/>
      <point x="170" y="616"/>
      <point x="36" y="474"/>
      <point x="36" y="300" type="curve" smooth="yes"/>
      <point x="36" y="126"/>
      <point x="170" y="-16"/>
    </contour>
    <contour>
      <point x="357" y="137" type="curve" smooth="yes"/>
      <point x="269" y="137"/>
      <point x="198" y="210"/>
      <point x="198" y="300" type="curve" smooth="yes"/>
      <point x="198" y="390"/>
      <point x="269" y="463"/>
      <point x="357" y="463" type="curve" smooth="yes"/>
      <point x="445" y="463"/>
      <point x="516" y="390"/>
      <point x="516" y="300" type="curve" smooth="yes"/>
      <point x="516" y="210"/>
      <point x="445" y="137"/>
    </contour>
  </outline>
</glyph>
<glyph name="e" format="2">
  <advance width="690"/>
  <unicode hex="0065"/>
  <anchor x="352" y="0" name="bottom"/>
  <anchor x="492" y="0" name="ogonek"/>
  <anchor x="352" y="600" name="top"/>
  <outline>
    <contour>
      <point x="377" y="-20" type="curve" smooth="yes"/>
      <point x="458" y="-20"/>
      <point x="536" y="3"/>
      <point x="596" y="48" type="curve"/>
      <point x="558" y="204" type="line"/>
      <point x="519" y="159"/>
      <point x="457" y="124"/>
      <point x="381" y="124" type="curve" smooth="yes"/>
      <point x="282" y="124"/>
      <point x="216" y="179"/>
      <point x="200" y="259" type="curve"/>
      <point x="231" y="253"/>
      <point x="261" y="249"/>
      <point x="294" y="249" type="curve" smooth="yes"/>
      <point x="660" y="249" type="line"/>
      <point x="660" y="310" type="line" smooth="yes"/>
      <point x="660" y="487"/>
      <point x="527" y="620"/>
      <point x="350" y="620" type="curve" smooth="yes"/>
      <point x="175" y="620"/>
      <point x="36" y="487"/>
      <point x="36" y="306" type="curve" smooth="yes"/>
      <point x="36" y="116"/>
      <point x="174" y="-20"/>
    </contour>
    <contour>
      <point x="196" y="364" type="curve"/>
      <point x="217" y="437"/>
      <point x="274" y="482"/>
      <point x="348" y="482" type="curve" smooth="yes"/>
      <point x="425" y="482"/>
      <point x="480" y="438"/>
      <point x="500" y="366" type="curve"/>
      <point x="470" y="372"/>
      <point x="437" y="375"/>
      <point x="400" y="375" type="curve" smooth="yes"/>
      <point x="294" y="375" type="line" smooth="yes"/>
      <point x="260" y="375"/>
      <point x="228" y="371"/>
    </contour>
  </outline>
</glyph>
<glyph name="f" format="2">
  <advance width="450"/>
  <unicode hex="0066"/>
  <anchor x="220" y="0" name="bottom"/>
  <anchor x="364" y="960" name="top"/>
  <outline>
    <contour>
      <point x="136" y="0" type="line"/>
      <point x="310" y="0" type="line"/>
      <point x="310" y="462" type="line"/>
      <point x="426" y="462" type="line"/>
      <point x="426" y="600" type="line"/>
      <point x="307" y="600" type="line"/>
      <point x="307" y="757" type="line" smooth="yes"/>
      <point x="307" y="818"/>
      <point x="341" y="837"/>
      <point x="373" y="837" type="curve" smooth="yes"/>
      <point x="400" y="837"/>
      <point x="423" y="825"/>
      <point x="443" y="800" type="curve"/>
      <point x="477" y="941" type="line"/>
      <point x="445" y="962"/>
      <point x="401" y="972"/>
      <point x="356" y="972" type="curve" smooth="yes"/>
      <point x="233" y="972"/>
      <point x="139" y="896"/>
      <point x="139" y="753" type="curve" smooth="yes"/>
      <point x="139" y="600" type="line"/>
      <point x="24" y="600" type="line"/>
      <point x="24" y="462" type="line"/>
      <point x="136" y="462" type="line"/>
    </contour>
  </outline>
</glyph>
<glyph name="g" format="2">
  <advance width="740"/>
  <unicode hex="0067"/>
  <anchor x="381" y="-360" name="bottom"/>
  <anchor x="599" y="300" name="center"/>
  <anchor x="381" y="600" name="top"/>
  <outline>
    <contour>
      <point x="328" y="-320" type="curve" smooth="yes"/>
      <point x="512" y="-320"/>
      <point x="674" y="-205"/>
      <point x="674" y="-8" type="curve" smooth="yes"/>
      <point x="674" y="600" type="line"/>
      <point x="524" y="600" type="line"/>
      <point x="524" y="539" type="line"/>
      <point x="478" y="587"/>
      <point x="413" y="616"/>
      <point x="336" y="616" type="curve" smooth="yes"/>
      <point x="170" y="616"/>
      <point x="36" y="474"/>
      <point x="36" y="300" type="curve" smooth="yes"/>
      <point x="36" y="126"/>
      <point x="170" y="-16"/>
      <point x="336" y="-16" type="curve" smooth="yes"/>
      <point x="412" y="-16"/>
      <point x="476" y="12"/>
      <point x="522" y="59" type="curve"/>
      <point x="522" y="17" type="line" smooth="yes"/>
      <point x="522" y="-93"/>
      <point x="451" y="-170"/>
      <point x="328" y="-170" type="curve" smooth="yes"/>
      <point x="241" y="-170"/>
      <point x="170" y="-129"/>
      <point x="127" y="-72" type="curve"/>
      <point x="85" y="-244" type="line"/>
      <point x="146" y="-291"/>
      <point x="234" y="-320"/>
    </contour>
    <contour>
      <point x="357" y="137" type="curve" smooth="yes"/>
      <point x="269" y="137"/>
      <point x="198" y="210"/>
      <point x="198" y="300" type="curve" smooth="yes"/>
      <point x="198" y="390"/>
      <point x="269" y="463"/>
      <point x="357" y="463" type="curve" smooth="yes"/>
      <point x="445" y="463"/>
      <point x="516" y="390"/>
      <point x="516" y="300" type="curve" smooth="yes"/>
      <point x="516" y="210"/>
      <point x="445" y="137"/>
    </contour>
  </outline>
</glyph>
<glyph name="k" format="2">
  <advance width="670"/>
  <unicode hex="006B"/>
  <anchor x="330" y="0" name="bottom"/>
  <anchor x="150" y="960" name="top"/>
  <outline>
    <contour>
      <point x="465" y="0" type="line"/>
      <point x="670" y="0" type="line"/>
      <point x="418" y="345" type="line"/>
      <point x="610" y="600" type="line"/>
      <point x="423" y="600" type="line"/>
      <point x="228" y="330" type="line"/>
    </contour>
    <contour>
      <point x="66" y="0" type="line"/>
      <point x="240" y="0" type="line"/>
      <point x="240" y="960" type="line"/>
      <point x="66" y="960" type="line"/>
    </contour>
  </outline>
</glyph>
<glyph name="m" format="2">
  <advance width="1080"/>
  <unicode hex="006D"/>
  <anchor x="566" y="0" name="bottom"/>
  <anchor x="566" y="600" name="top"/>
  <outline>
    <contour>
      <point x="66" y="0" type="line"/>
      <point x="240" y="0" type="line"/>
      <point x="240" y="344" type="line" smooth="yes"/>
      <point x="240" y="423"/>
      <point x="293" y="464"/>
      <point x="350" y="464" type="curve" smooth="yes"/>
      <point x="420" y="464"/>
      <point x="459" y="406"/>
      <point x="459" y="342" type="curve" smooth="yes"/>
      <point x="459" y="0" type="line"/>
      <point x="633" y="0" type="line"/>
      <point x="633" y="344" type="line" smooth="yes"/>
      <point x="633" y="423"/>
      <point x="686" y="464"/>
      <point x="743" y="464" type="curve" smooth="yes"/>
      <point x="813" y="464"/>
      <point x="852" y="406"/>
      <point x="852" y="342" type="curve" smooth="yes"/>
      <point x="852" y="0" type="line"/>
      <point x="1026" y="0" type="line"/>
      <point x="1026" y="367" type="line" smooth="yes"/>
      <point x="1026" y="528"/>
      <point x="908" y="620"/>
      <point x="780" y="620" type="curve" smooth="yes"/>
      <point x="699" y="620"/>
      <point x="627" y="590"/>
      <point x="580" y="534" type="curve"/>
      <point x="537" y="590"/>
      <point x="471" y="620"/>
      <point x="401" y="620" type="curve" smooth="yes"/>
      <point x="331" y="620"/>
      <point x="265" y="590"/>
      <point x="222" y="534" type="curve"/>
      <point x="222" y="600" type="line"/>
      <point x="66" y="600" type="line"/>
    </contour>
  </outline>
</glyph>
<glyph name="q" format="2">
  <advance width="740"/>
  <unicode hex="0071"/>
  <outline>
    <contour>
      <point x="500" y="-300" type="line"/>
      <point x="674" y="-300" type="line"/>
      <point x="674" y="600" type="line"/>
      <point x="524" y="600" type="line"/>
      <point x="524" y="541" type="line"/>
      <point x="478" y="588"/>
      <point x="413" y="616"/>
      <point x="337" y="616" type="curve" smooth="yes"/>
      <point x="170" y="616"/>
      <point x="36" y="474"/>
      <point x="36" y="300" type="curve" smooth="yes"/>
      <point x="36" y="126"/>
      <point x="170" y="-16"/>
      <point x="337" y="-16" type="curve" smooth="yes"/>
      <point x="401" y="-16"/>
      <point x="456" y="4"/>
      <point x="500" y="38" type="curve"/>
    </contour>
    <contour>
      <point x="357" y="137" type="curve" smooth="yes"/>
      <point x="269" y="137"/>
      <point x="198" y="210"/>
      <point x="198" y="300" type="curve" smooth="yes"/>
      <point x="198" y="390"/>
      <point x="269" y="463"/>
      <point x="357" y="463" type="curve" smooth="yes"/>
      <point x="445" y="463"/>
      <point x="516" y="390"/>
      <point x="516" y="300" type="curve" smooth="yes"/>
      <point x="516" y="210"/>
      <point x="445" y="137"/>
    </contour>
  </outline>
</glyph>
<glyph name="r" format="2">
  <advance width="460"/>
  <unicode hex="0072"/>
  <anchor x="150" y="0" name="bottom"/>
  <anchor x="252" y="600" name="top"/>
  <outline>
    <contour>
      <point x="66" y="0" type="line"/>
      <point x="240" y="0" type="line"/>
      <point x="240" y="271" type="line" smooth="yes"/>
      <point x="240" y="391"/>
      <point x="307" y="458"/>
      <point x="407" y="458" type="curve" smooth="yes"/>
      <point x="422" y="458"/>
      <point x="437" y="456"/>
      <point x="450" y="452" type="curve"/>
      <point x="412" y="606" type="line"/>
      <point x="327" y="606"/>
      <point x="263" y="566"/>
      <point x="222" y="497" type="curve"/>
      <point x="222" y="600" type="line"/>
      <point x="66" y="600" type="line"/>
    </contour>
  </outline>
</glyph>
<glyph name="t" format="2">
  <advance width="450"/>
  <unicode hex="0074"/>
  <anchor x="223" y="0" name="bottom"/>
  <anchor x="223" y="300" name="center"/>
  <anchor x="223" y="800" name="top"/>
  <anchor x="307" y="960" name="topright"/>
  <outline>
    <contour>
      <point x="136" y="0" type="line"/>
      <point x="310" y="0" type="line"/>
      <point x="310" y="462" type="line"/>
      <point x="426" y="462" type="line"/>
      <point x="426" y="600" type="line"/>
      <point x="307" y="600" type="line"/>
      <point x="307" y="800" type="line"/>
      <point x="139" y="800" type="line"/>
      <point x="139" y="600" type="line"/>
      <point x="24" y="600" type="line"/>
      <point x="24" y="462" type="line"/>
      <point x="136" y="462" type="line"/>
    </contour>
  </outline>
</glyph>
<glyph name="v" format="2">
  <advance width="670"/>
  <unicode hex="0076"/>
  <outline>
    <contour>
      <point x="334" y="-30" type="line"/>
      <point x="336" y="-30" type="line"/>
      <point x="664" y="600" type="line"/>
      <point x="479" y="600" type="line"/>
      <point x="385" y="407" type="line" smooth="yes"/>
      <point x="368" y="373"/>
      <point x="354" y="343"/>
      <point x="339" y="302" type="curve"/>
      <point x="324" y="343"/>
      <point x="310" y="373"/>
      <point x="293" y="407" type="curve" smooth="yes"/>
      <point x="199" y="600" type="line"/>
      <point x="6" y="600" type="line"/>
    </contour>
  </outline>
</glyph>
<glyph name="x" format="2">
  <advance width="640"/>
  <unicode hex="0078"/>
  <outline>
    <contour>
      <point x="12" y="0" type="line"/>
      <point x="202" y="0" type="line"/>
      <point x="283" y="131" type="line" smooth="yes"/>
      <point x="295" y="150"/>
      <point x="307" y="171"/>
      <point x="318" y="191" type="curve"/>
      <point x="329" y="171"/>
      <point x="341" y="150"/>
      <point x="353" y="131" type="curve" smooth="yes"/>
      <point x="434" y="0" type="line"/>
      <point x="628" y="0" type="line"/>
      <point x="420" y="313" type="line"/>
      <point x="611" y="600" type="line"/>
      <point x="421" y="600" type="line"/>
      <point x="364" y="508" type="line" smooth="yes"/>
      <point x="349" y="484"/>
      <point x="335" y="459"/>
      <point x="321" y="433" type="curve"/>
      <point x="308" y="459"/>
      <point x="294" y="485"/>
      <point x="279" y="508" type="curve" smooth="yes"/>
      <point x="221" y="600" type="line"/>
      <point x="29" y="600" type="line"/>
      <point x="219" y="313" type="line"/>
    </contour>
  </outline>
</glyph>
<glyph name="z" format="2">
  <advance width="550"/>
  <unicode hex="007A"/>
  <anchor x="267" y="0" name="bottom"/>
  <anchor x="275" y="300" name="center"/>
  <anchor x="284" y="600" name="top"/>
  <outline>
    <contour>
      <point x="24" y="0" type="line"/>
      <point x="510" y="0" type="line"/>
      <point x="510" y="144" type="line"/>
      <point x="267" y="144" type="line"/>
      <point x="526" y="598" type="line"/>
      <point x="526" y="600" type="line"/>
      <point x="42" y="600" type="line"/>
      <point x="42" y="456" type="line"/>
      <point x="283" y="456" type="line"/>
      <point x="24" y="2" type="line"/>
    </contour>
  </outline>
</glyph>
<glyph name="braceleft" format="2">
  <advance width="480"/>
  <unicode hex="007B"/>
  <outline>
    <contour>
      <point x="420" y="-186" type="curve"/>
      <point x="420" y="-54" type="line"/>
      <point x="348" y="-54"/>
      <point x="273" y="-36"/>
      <point x="273" y="72" type="curve" smooth="yes"/>
      <point x="273" y="125"/>
      <point x="291" y="190"/>
      <point x="291" y="247" type="curve" smooth="yes"/>
      <point x="291" y="324"/>
      <point x="258" y="367"/>
      <point x="212" y="390" type="curve"/>
      <point x="258" y="413"/>
      <point x="291" y="456"/>
      <point x="291" y="533" type="curve" smooth="yes"/>
      <point x="291" y="590"/>
      <point x="273" y="655"/>
      <point x="273" y="708" type="curve" smooth="yes"/>
      <point x="273" y="816"/>
      <point x="348" y="834"/>
      <point x="420" y="834" type="curve"/>
      <point x="420" y="966" type="line"/>
      <point x="255" y="966"/>
      <point x="123" y="891"/>
      <point x="123" y="725" type="curve" smooth="yes"/>
      <point x="123" y="664"/>
      <point x="141" y="603"/>
      <point x="141" y="548" type="curve" smooth="yes"/>
      <point x="141" y="461"/>
      <point x="96" y="426"/>
      <point x="24" y="390" type="curve"/>
      <point x="96" y="354"/>
      <point x="141" y="319"/>
      <point x="141" y="232" type="curve" smooth="yes"/>
      <point x="141" y="177"/>
      <point x="123" y="116"/>
      <point x="123" y="55" type="curve" smooth="yes"/>
      <point x="123" y="-111"/>
      <point x="255" y="-186"/>
    </contour>
  </outline>
</glyph>
<glyph name="braceright" format="2">
  <advance width="480"/>
  <unicode hex="007D"/>
  <outline>
    <contour>
      <point x="60" y="-186" type="line"/>
      <point x="225" y="-186"/>
      <point x="357" y="-111"/>
      <point x="357" y="55" type="curve" smooth="yes"/>
      <point x="357" y="116"/>
      <point x="339" y="177"/>
      <point x="339" y="232" type="curve" smooth="yes"/>
      <point x="339" y="319"/>
      <point x="384" y="354"/>
      <point x="456" y="390" type="curve"/>
      <point x="384" y="426"/>
      <point x="339" y="461"/>
      <point x="339" y="548" type="curve" smooth="yes"/>
      <point x="339" y="603"/>
      <point x="357" y="664"/>
      <point x="357" y="725" type="curve" smooth="yes"/>
      <point x="357" y="891"/>
      <point x="225" y="966"/>
      <point x="60" y="966" type="curve"/>
      <point x="60" y="834" type="line"/>
      <point x="132" y="834"/>
      <point x="207" y="816"/>
      <point x="207" y="708" type="curve" smooth="yes"/>
      <point x="207" y="655"/>
      <point x="189" y="590"/>
      <point x="189" y="533" type="curve" smooth="yes"/>
      <point x="189" y="456"/>
      <point x="222" y="413"/>
      <point x="268" y="390" type="curve"/>
      <point x="222" y="367"/>
      <point x="189" y="324"/>
      <point x="189" y="247" type="curve" smooth="yes"/>
      <point x="189" y="190"/>
      <point x="207" y="125"/>
      <point x="207" y="72" type="curve" smooth="yes"/>
      <point x="207" y="-36"/>
      <point x="132" y="-54"/>
      <point x="60" y="-54" type="curve"/>
    </contour>
  </outline>
</glyph>
<glyph name="asciitilde" format="2">
  <advance width="750"/>
  <unicode hex="007E"/>
  <outline>
    <contour>
      <point x="101" y="319" type="line"/>
      <point x="129" y="382"/>
      <point x="171" y="420"/>
      <point x="228" y="420" type="curve" smooth="yes"/>
      <point x="312" y="420"/>
      <point x="400" y="336"/>
      <point x="516" y="336" type="curve" smooth="yes"/>
      <point x="601" y="336"/>
      <point x="677" y="382"/>
      <point x="720" y="460" type="curve"/>
      <point x="649" y="581" type="line"/>
      <point x="621" y="518"/>
      <point x="579" y="480"/>
      <point x="522" y="480" type="curve" smooth="yes"/>
      <point x="438" y="480"/>
      <point x="350" y="564"/>
      <point x="234" y="564" type="curve" smooth="yes"/>
      <point x="149" y="564"/>
      <point x="73" y="518"/>
      <point x="30" y="440" type="curve"/>
    </contour>
  </outline>
</glyph>
<glyph name="cent" format="2">
  <advance width="750"/>
  <unicode hex="00A2"/>
  <outline>
    <contour>
      <point x="366" y="0" type="line"/>
      <point x="474" y="0" type="line"/>
      <point x="474" y="134" type="line"/>
      <point x="535" y="144"/>
      <point x="591" y="170"/>
      <point x="636" y="211" type="curve"/>
      <point x="591" y="388" type="line"/>
      <point x="558" y="333"/>
      <point x="501" y="286"/>
      <point x="427" y="286" type="curve" smooth="yes"/>
      <point x="333" y="286"/>
      <point x="264" y="359"/>
      <point x="264" y="450" type="curve" smooth="yes"/>
      <point x="264" y="541"/>
      <point x="333" y="614"/>
      <point x="427" y="614" type="curve" smooth="yes"/>
      <point x="501" y="614"/>
      <point x="558" y="566"/>
      <point x="591" y="512" type="curve"/>
      <point x="636" y="689" type="line"/>
      <point x="591" y="730"/>
      <point x="535" y="756"/>
      <point x="474" y="766" type="curve"/>
      <point x="474" y="870" type="line"/>
      <point x="366" y="870" type="line"/>
      <point x="366" y="766" type="line"/>
      <point x="213" y="740"/>
      <point x="96" y="609"/>
      <point x="96" y="450" type="curve" smooth="yes"/>
      <point x="96" y="291"/>
      <point x="213" y="160"/>
      <point x="366" y="134" type="curve"/>
    </contour>
  </outline>
</glyph>
<glyph name="sterling" format="2">
  <advance width="750"/>
  <unicode hex="00A3"/>
  <outline>
    <contour>
      <point x="127" y="0" type="line"/>
      <point x="678" y="0" type="line"/>
      <point x="678" y="156" type="line"/>
      <point x="384" y="156" type="line"/>
      <point x="392" y="176"/>
      <point x="396" y="200"/>
      <point x="396" y="228" type="curve" smooth="yes"/>
      <point x="396" y="275"/>
      <point x="384" y="335"/>
      <point x="371" y="396" type="curve"/>
      <point x="600" y="396" type="line"/>
      <point x="600" y="504" type="line"/>
      <point x="350" y="504" type="line"/>
      <point x="346" y="532"/>
      <point x="343" y="558"/>
      <point x="343" y="582" type="curve" smooth="yes"/>
      <point x="343" y="691"/>
      <point x="396" y="764"/>
      <point x="481" y="764" type="curve" smooth="yes"/>
      <point x="550" y="764"/>
      <point x="606" y="716"/>
      <point x="639" y="662" type="curve"/>
      <point x="684" y="839" type="line"/>
      <point x="624" y="893"/>
      <point x="554" y="920"/>
      <point x="472" y="920" type="curve" smooth="yes"/>
      <point x="287" y="920"/>
      <point x="175" y="786"/>
      <point x="175" y="597" type="curve" smooth="yes"/>
      <point x="175" y="567"/>
      <point x="178" y="536"/>
      <point x="183" y="504" type="curve"/>
      <point x="90" y="504" type="line"/>
      <point x="90" y="396" type="line"/>
      <point x="204" y="396" type="line"/>
      <point x="219" y="328"/>
      <point x="234" y="262"/>
      <point x="234" y="208" type="curve" smooth="yes"/>
      <point x="234" y="118"/>
      <point x="191" y="67"/>
      <point x="127" y="2" type="curve"/>
    </contour>
  </outline>
</glyph>
<glyph name="yen" format="2">
  <advance width="750"/>
  <unicode hex="00A5"/>
  <outline>
    <contour>
      <point x="285" y="0" type="line"/>
      <point x="465" y="0" type="line"/>
      <point x="465" y="294" type="line"/>
      <point x="678" y="294" type="line"/>
      <point x="678" y="402" type="line"/>
      <point x="465" y="402" type="line"/>
      <point x="465" y="426" type="line"/>
      <point x="504" y="498" type="line"/>
      <point x="678" y="498" type="line"/>
      <point x="678" y="606" type="line"/>
      <point x="563" y="606" type="line"/>
      <point x="724" y="900" type="line"/>
      <point x="534" y="901" type="line"/>
      <point x="427" y="698" type="line" smooth="yes"/>
      <point x="411" y="668"/>
      <point x="396" y="641"/>
      <point x="380" y="600" type="curve"/>
      <point x="365" y="641"/>
      <point x="349" y="669"/>
      <point x="334" y="698" type="curve" smooth="yes"/>
      <point x="228" y="900" type="line"/>
      <point x="26" y="900" type="line"/>
      <point x="187" y="606" type="line"/>
      <point x="72" y="606" type="line"/>
      <point x="72" y="498" type="line"/>
      <point x="246" y="498" type="line"/>
      <point x="285" y="426" type="line"/>
      <point x="285" y="402" type="line"/>
      <point x="72" y="402" type="line"/>
      <point x="72" y="294" type="line"/>
      <point x="285" y="294" type="line"/>
    </contour>
  </outline>
</glyph>
<glyph name="section" format="2">
  <advance width="750"/>
  <unicode hex="00A7"/>
  <outline>
    <contour>
      <point x="366" y="-192" type="curve" smooth="yes"/>
      <point x="512" y="-192"/>
      <point x="621" y="-94"/>
      <point x="621" y="45" type="curve" smooth="yes"/>
      <point x="621" y="121"/>
      <point x="588" y="172"/>
      <point x="550" y="207" type="curve"/>
      <point x="634" y="241"/>
      <point x="693" y="311"/>
      <point x="693" y="409" type="curve" smooth="yes"/>
      <point x="693" y="541"/>
      <point x="585" y="598"/>
      <point x="522" y="627" type="curve" smooth="yes"/>
      <point x="356" y="705" type="line" smooth="yes"/>
      <point x="330" y="717"/>
      <point x="306" y="737"/>
      <point x="306" y="771" type="curve" smooth="yes"/>
      <point x="306" y="805"/>
      <point x="331" y="834"/>
      <point x="382" y="834" type="curve" smooth="yes"/>
      <point x="436" y="834"/>
      <point x="504" y="801"/>
      <point x="550" y="743" type="curve"/>
      <point x="590" y="901" type="line"/>
      <point x="555" y="937"/>
      <point x="473" y="972"/>
      <point x="386" y="972" type="curve" smooth="yes"/>
      <point x="247" y="972"/>
      <point x="153" y="879"/>
      <point x="153" y="755" type="curve" smooth="yes"/>
      <point x="153" y="693"/>
      <point x="176" y="649"/>
      <point x="206" y="618" type="curve"/>
      <point x="118" y="584"/>
      <point x="57" y="510"/>
      <point x="57" y="409" type="curve" smooth="yes"/>
      <point x="57" y="274"/>
      <point x="168" y="223"/>
      <point x="228" y="195" type="curve" smooth="yes"/>
      <point x="399" y="116" type="line" smooth="yes"/>
      <point x="419" y="107"/>
      <point x="468" y="83"/>
      <point x="468" y="30" type="curve" smooth="yes"/>
      <point x="468" y="-16"/>
      <point x="432" y="-54"/>
      <point x="371" y="-54" type="curve" smooth="yes"/>
      <point x="301" y="-54"/>
      <point x="222" y="-3"/>
      <point x="188" y="46" type="curve"/>
      <point x="145" y="-118" type="line"/>
      <point x="192" y="-163"/>
      <point x="284" y="-192"/>
    </contour>
    <contour>
      <point x="424" y="287" type="curve" smooth="yes"/>
      <point x="413" y="287"/>
      <point x="400" y="288"/>
      <point x="388" y="292" type="curve" smooth="yes"/>
      <point x="341" y="309"/>
      <point x="325" y="318"/>
      <point x="308" y="327" type="curve" smooth="yes"/>
      <point x="268" y="348"/>
      <point x="210" y="373"/>
      <point x="210" y="435" type="curve" smooth="yes"/>
      <point x="210" y="490"/>
      <point x="255" y="535"/>
      <point x="327" y="535" type="curve" smooth="yes"/>
      <point x="338" y="535"/>
      <point x="353" y="534"/>
      <point x="365" y="530" type="curve" smooth="yes"/>
      <point x="369" y="528"/>
      <point x="370" y="530"/>
      <point x="442" y="495" type="curve" smooth="yes"/>
      <point x="485" y="474"/>
      <point x="540" y="449"/>
      <point x="540" y="388" type="curve" smooth="yes"/>
      <point x="540" y="333"/>
      <point x="495" y="287"/>
    </contour>
  </outline>
</glyph>
<glyph name="copyright" format="2">
  <advance width="1260"/>
  <unicode hex="00A9"/>
  <outline>
    <contour>
      <point x="630" y="-102" type="curve" smooth="yes"/>
      <point x="938" y="-102"/>
      <point x="1188" y="145"/>
      <point x="1188" y="450" type="curve" smooth="yes"/>
      <point x="1188" y="755"/>
      <point x="938" y="1002"/>
      <point x="630" y="1002" type="curve" smooth="yes"/>
      <point x="322" y="1002"/>
      <point x="72" y="755"/>
      <point x="72" y="450" type="curve" smooth="yes"/>
      <point x="72" y="145"/>
      <point x="322" y="-102"/>
    </contour>
    <contour>
      <point x="630" y="30" type="curve" smooth="yes"/>
      <point x="398" y="30"/>
      <point x="210" y="218"/>
      <point x="210" y="450" type="curve" smooth="yes"/>
      <point x="210" y="682"/>
      <point x="398" y="870"/>
      <point x="630" y="870" type="curve" smooth="yes"/>
      <point x="862" y="870"/>
      <point x="1050" y="682"/>
      <point x="1050" y="450" type="curve" smooth="yes"/>
      <point x="1050" y="218"/>
      <point x="862" y="30"/>
    </contour>
    <contour>
      <point x="657" y="168" type="curve" smooth="yes"/>
      <point x="732" y="168"/>
      <point x="800" y="192"/>
      <point x="853" y="239" type="curve"/>
      <point x="811" y="398" type="line"/>
      <point x="781" y="351"/>
      <point x="729" y="310"/>
      <point x="663" y="310" type="curve" smooth="yes"/>
      <point x="577" y="310"/>
      <point x="517" y="373"/>
      <point x="517" y="450" type="curve" smooth="yes"/>
      <point x="517" y="527"/>
      <point x="578" y="590"/>
      <point x="663" y="590" type="curve" smooth="yes"/>
      <point x="729" y="590"/>
      <point x="781" y="548"/>
      <point x="811" y="501" type="curve"/>
      <point x="853" y="662" type="line"/>
      <point x="800" y="709"/>
      <point x="731" y="732"/>
      <point x="659" y="732" type="curve" smooth="yes"/>
      <point x="492" y="732"/>
      <point x="361" y="606"/>
      <point x="361" y="450" type="curve" smooth="yes"/>
      <point x="361" y="293"/>
      <point x="494" y="168"/>
    </contour>
  </outline>
</glyph>
<glyph name="ordfeminine" format="2">
  <advance width="480"/>
  <unicode hex="00AA"/>
  <outline>
    <contour>
      <point x="214" y="412" type="curve" smooth="yes"/>
      <point x="250" y="412"/>
      <point x="283" y="423"/>
      <point x="309" y="444" type="curve"/>
      <point x="309" y="420" type="line"/>
      <point x="435" y="420" type="line"/>
      <point x="435" y="780" type="line"/>
      <point x="309" y="780" type="line"/>
      <point x="309" y="756" type="line"/>
      <point x="283" y="777"/>
      <point x="250" y="788"/>
      <point x="214" y="788" type="curve" smooth="yes"/>
      <point x="115" y="788"/>
      <point x="34" y="704"/>
      <point x="34" y="600" type="curve" smooth="yes"/>
      <point x="34" y="496"/>
      <point x="114" y="412"/>
    </contour>
    <contour>
      <point x="234" y="520" type="curve" smooth="yes"/>
      <point x="190" y="520"/>
      <point x="155" y="556"/>
      <point x="155" y="600" type="curve" smooth="yes"/>
      <point x="155" y="644"/>
      <point x="190" y="680"/>
      <point x="234" y="680" type="curve" smooth="yes"/>
      <point x="278" y="680"/>
      <point x="313" y="644"/>
      <point x="313" y="600" type="curve" smooth="yes"/>
      <point x="313" y="556"/>
      <point x="278" y="520"/>
    </contour>
  </outline>
</glyph>
<glyph name="logicalnot" format="2">
  <advance width="750"/>
  <unicode hex="00AC"/>
  <outline>
    <contour>
      <point x="532" y="195" type="line"/>
      <point x="670" y="195" type="line"/>
      <point x="670" y="522" type="line"/>
      <point x="50" y="522" type="line"/>
      <point x="50" y="378" type="line"/>
      <point x="532" y="378" type="line"/>
    </contour>
  </outline>
</glyph>
<glyph name="degree" format="2">
  <advance width="480"/>
  <unicode hex="00B0"/>
  <outline>
    <contour>
      <point x="240" y="528" type="curve" smooth="yes"/>
      <point x="350" y="528"/>
      <point x="438" y="614"/>
      <point x="438" y="720" type="curve" smooth="yes"/>
      <point x="438" y="826"/>
      <point x="350" y="912"/>
      <point x="240" y="912" type="curve" smooth="yes"/>
      <point x="130" y="912"/>
      <point x="42" y="826"/>
      <point x="42" y="720" type="curve" smooth="yes"/>
      <point x="42" y="614"/>
      <point x="130" y="528"/>
    </contour>
    <contour>
      <point x="240" y="639" type="curve" smooth="yes"/>
      <point x="193" y="639"/>
      <point x="157" y="675"/>
      <point x="157" y="720" type="curve" smooth="yes"/>
      <point x="157" y="765"/>
      <point x="193" y="801"/>
      <point x="240" y="801" type="curve" smooth="yes"/>
      <point x="286" y="801"/>
      <point x="323" y="765"/>
      <point x="323" y="720" type="curve" smooth="yes"/>
      <point x="323" y="675"/>
      <point x="286" y="639"/>
    </contour>
  </outline>
</glyph>
<glyph name="questiondown" format="2">
  <advance width="480"/>
  <unicode hex="00BF"/>
  <outline>
    <contour>
      <point x="250" y="-320" type="curve" smooth="yes"/>
      <point x="315" y="-320"/>
      <point x="368" y="-300"/>
      <point x="414" y="-266" type="curve"/>
      <point x="414" y="-92" type="line"/>
      <point x="385" y="-126"/>
      <point x="339" y="-164"/>
      <point x="276" y="-164" type="curve" smooth="yes"/>
      <point x="219" y="-164"/>
      <point x="180" y="-137"/>
      <point x="180" y="-83" type="curve" smooth="yes"/>
      <point x="180" y="17"/>
      <point x="306" y="74"/>
      <point x="306" y="268" type="curve"/>
      <point x="174" y="268" type="line"/>
      <point x="155" y="128"/>
      <point x="18" y="59"/>
      <point x="18" y="-102" type="curve" smooth="yes"/>
      <point x="18" y="-230"/>
      <point x="109" y="-320"/>
    </contour>
    <contour>
      <point x="240" y="408" type="curve" smooth="yes"/>
      <point x="299" y="408"/>
      <point x="345" y="454"/>
      <point x="345" y="513" type="curve" smooth="yes"/>
      <point x="345" y="572"/>
      <point x="299" y="618"/>
      <point x="240" y="618" type="curve" smooth="yes"/>
      <point x="181" y="618"/>
      <point x="135" y="572"/>
      <point x="135" y="513" type="curve" smooth="yes"/>
      <point x="135" y="454"/>
      <point x="181" y="408"/>
    </contour>
  </outline>
</glyph>
<glyph name="AE" format="2">
  <advance width="1040"/>
  <unicode hex="00C6"/>
  <anchor x="407" y="0" name="bottom"/>
  <anchor x="604" y="900" name="top"/>
  <outline>
    <contour>
      <point x="12" y="0" type="line"/>
      <point x="187" y="0" type="line"/>
      <point x="254" y="160" type="line"/>
      <point x="572" y="160" type="line"/>
      <point x="627" y="0" type="line"/>
      <point x="1016" y="0" type="line"/>
      <point x="972" y="162" type="line"/>
      <point x="745" y="162" type="line"/>
      <point x="644" y="456" type="line"/>
      <point x="831" y="456" type="line"/>
      <point x="790" y="606" type="line"/>
      <point x="592" y="606" type="line"/>
      <point x="545" y="744" type="line"/>
      <point x="788" y="744" type="line"/>
      <point x="745" y="900" type="line"/>
      <point x="396" y="900" type="line"/>
    </contour>
    <contour>
      <point x="314" y="304" type="line"/>
      <point x="353" y="396" type="line" smooth="yes"/>
      <point x="378" y="456"/>
      <point x="405" y="517"/>
      <point x="428" y="597" type="curve"/>
      <point x="447" y="517"/>
      <point x="469" y="456"/>
      <point x="490" y="396" type="curve" smooth="yes"/>
      <point x="522" y="304" type="line"/>
    </contour>
  </outline>
</glyph>
<glyph name="Ccedilla" format="2">
  <advance width="870"/>
  <unicode hex="00C7"/>
  <outline>
    <contour>
      <point x="256" y="-192" type="line"/>
      <point x="471" y="-192" type="line"/>
      <point x="595" y="-14" type="line"/>
      <point x="688" y="-1"/>
      <point x="771" y="37"/>
      <point x="839" y="93" type="curve"/>
      <point x="788" y="303" type="line"/>
      <point x="739" y="220"/>
      <point x="648" y="156"/>
      <point x="536" y="156" type="curve" smooth="yes"/>
      <point x="373" y="156"/>
      <point x="248" y="287"/>
      <point x="248" y="450" type="curve" smooth="yes"/>
      <point x="248" y="613"/>
      <point x="373" y="744"/>
      <point x="536" y="744" type="curve" smooth="yes"/>
      <point x="649" y="744"/>
      <point x="738" y="680"/>
      <point x="788" y="597" type="curve"/>
      <point x="839" y="807" type="line"/>
      <point x="756" y="877"/>
      <point x="648" y="918"/>
      <point x="530" y="918" type="curve" smooth="yes"/>
      <point x="267" y="918"/>
      <point x="54" y="709"/>
      <point x="54" y="450" type="curve" smooth="yes"/>
      <point x="54" y="220"/>
      <point x="222" y="29"/>
      <point x="444" y="-10" type="curve"/>
    </contour>
  </outline>
</glyph>
<glyph name="Eth" format="2">
  <advance width="970"/>
  <unicode hex="00D0"/>
  <outline>
    <contour>
      <point x="126" y="0" type="line"/>
      <point x="432" y="0" type="line" smooth="yes"/>
      <point x="719" y="0"/>
      <point x="916" y="201"/>
      <point x="916" y="450" type="curve" smooth="yes"/>
      <point x="916" y="699"/>
      <point x="719" y="900"/>
      <point x="432" y="900" type="curve" smooth="yes"/>
      <point x="126" y="900" type="line"/>
      <point x="126" y="543" type="line"/>
      <point x="40" y="543" type="line"/>
      <point x="40" y="417" type="line"/>
      <point x="126" y="417" type="line"/>
    </contour>
    <contour>
      <point x="300" y="162" type="line"/>
      <point x="300" y="417" type="line"/>
      <point x="520" y="417" type="line"/>
      <point x="520" y="543" type="line"/>
      <point x="300" y="543" type="line"/>
      <point x="300" y="738" type="line"/>
      <point x="416" y="738" type="line" smooth="yes"/>
      <point x="618" y="738"/>
      <point x="728" y="610"/>
      <point x="728" y="450" type="curve" smooth="yes"/>
      <point x="728" y="290"/>
      <point x="618" y="162"/>
      <point x="416" y="162" type="curve" smooth="yes"/>
    </contour>
  </outline>
</glyph>
<glyph name="multiply" format="2">
  <advance width="750"/>
  <unicode hex="00D7"/>
  <outline>
    <contour>
      <point x="192" y="169" type="line"/>
      <point x="373" y="350" type="line"/>
      <point x="554" y="169" type="line"/>
      <point x="656" y="271" type="line"/>
      <point x="475" y="452" type="line"/>
      <point x="656" y="633" type="line"/>
      <point x="558" y="731" type="line"/>
      <point x="377" y="550" type="line"/>
      <point x="196" y="731" type="line"/>
      <point x="94" y="629" type="line"/>
      <point x="275" y="448" type="line"/>
      <point x="94" y="267" type="line"/>
    </contour>
  </outline>
</glyph>
<glyph name="Oslash" format="2">
  <advance width="1060"/>
  <unicode hex="00D8"/>
  <anchor x="530" y="0" name="bottom"/>
  <anchor x="530" y="900" name="top"/>
  <outline>
    <contour>
      <point x="530" y="-18" type="curve" smooth="yes"/>
      <point x="793" y="-18"/>
      <point x="1006" y="191"/>
      <point x="1006" y="450" type="curve" smooth="yes"/>
      <point x="1006" y="574"/>
      <point x="957" y="687"/>
      <point x="877" y="771" type="curve"/>
      <point x="939" y="845" type="line"/>
      <point x="850" y="918" type="line"/>
      <point x="788" y="843" type="line"/>
      <point x="714" y="891"/>
      <point x="625" y="918"/>
      <point x="530" y="918" type="curve" smooth="yes"/>
      <point x="267" y="918"/>
      <point x="54" y="709"/>
      <point x="54" y="450" type="curve" smooth="yes"/>
      <point x="54" y="323"/>
      <point x="106" y="207"/>
      <point x="189" y="123" type="curve"/>
      <point x="121" y="41" type="line"/>
      <point x="210" y="-32" type="line"/>
      <point x="280" y="52" type="line"/>
      <point x="352" y="8"/>
      <point x="438" y="-18"/>
    </contour>
    <contour>
      <point x="306" y="264" type="line"/>
      <point x="266" y="314"/>
      <point x="242" y="379"/>
      <point x="242" y="450" type="curve" smooth="yes"/>
      <point x="242" y="613"/>
      <point x="368" y="744"/>
      <point x="530" y="744" type="curve" smooth="yes"/>
      <point x="583" y="744"/>
      <point x="632" y="730"/>
      <point x="674" y="706" type="curve"/>
    </contour>
    <contour>
      <point x="530" y="156" type="curve" smooth="yes"/>
      <point x="481" y="156"/>
      <point x="435" y="168"/>
      <point x="394" y="190" type="curve"/>
      <point x="760" y="629" type="line"/>
      <point x="796" y="580"/>
      <point x="818" y="518"/>
      <point x="818" y="450" type="curve" smooth="yes"/>
      <point x="818" y="287"/>
      <point x="692" y="156"/>
    </contour>
  </outline>
</glyph>
<glyph name="germandbls" format="2">
  <advance width="750"/>
  <unicode hex="00DF"/>
  <outline>
    <contour>
      <point x="364" y="-17" type="line"/>
      <point x="528" y="-17"/>
      <point x="684" y="128"/>
      <point x="684" y="321" type="curve" smooth="yes"/>
      <point x="684" y="438"/>
      <point x="627" y="536"/>
      <point x="538" y="594" type="curve"/>
      <point x="574" y="633"/>
      <point x="595" y="682"/>
      <point x="595" y="740" type="curve" smooth="yes"/>
      <point x="595" y="878"/>
      <point x="482" y="980"/>
      <point x="335" y="980" type="curve" smooth="yes"/>
      <point x="189" y="980"/>
      <point x="66" y="876"/>
      <point x="66" y="719" type="curve" smooth="yes"/>
      <point x="66" y="0" type="line"/>
      <point x="240" y="0" type="line"/>
      <point x="240" y="718" type="line" smooth="yes"/>
      <point x="240" y="780"/>
      <point x="281" y="824"/>
      <point x="337" y="824" type="curve" smooth="yes"/>
      <point x="392" y="824"/>
      <point x="433" y="781"/>
      <point x="433" y="721" type="curve" smooth="yes"/>
      <point x="433" y="661"/>
      <point x="390" y="601"/>
      <point x="305" y="553" type="curve"/>
      <point x="305" y="551" type="line"/>
      <point x="425" y="507"/>
      <point x="504" y="428"/>
      <point x="504" y="319" type="curve" smooth="yes"/>
      <point x="504" y="210"/>
      <point x="425" y="145"/>
      <point x="327" y="139" type="curve"/>
    </contour>
  </outline>
</glyph>
<glyph name="ccedilla" format="2">
  <advance width="600"/>
  <unicode hex="00E7"/>
  <outline>
    <contour>
      <point x="97" y="-192" type="line"/>
      <point x="312" y="-192" type="line"/>
      <point x="438" y="-11" type="line"/>
      <point x="490" y="1"/>
      <point x="537" y="25"/>
      <point x="576" y="61" type="curve"/>
      <point x="531" y="238" type="line"/>
      <point x="498" y="183"/>
      <point x="441" y="136"/>
      <point x="367" y="136" type="curve" smooth="yes"/>
      <point x="273" y="136"/>
      <point x="204" y="209"/>
      <point x="204" y="300" type="curve" smooth="yes"/>
      <point x="204" y="391"/>
      <point x="273" y="464"/>
      <point x="367" y="464" type="curve" smooth="yes"/>
      <point x="441" y="464"/>
      <point x="498" y="416"/>
      <point x="531" y="362" type="curve"/>
      <point x="576" y="539" type="line"/>
      <point x="518" y="592"/>
      <point x="443" y="620"/>
      <point x="360" y="620" type="curve" smooth="yes"/>
      <point x="181" y="620"/>
      <point x="36" y="477"/>
      <point x="36" y="300" type="curve" smooth="yes"/>
      <point x="36" y="149"/>
      <point x="142" y="22"/>
      <point x="284" y="-11" type="curve"/>
    </contour>
  </outline>
</glyph>
<glyph name="eth" format="2">
  <advance width="720"/>
  <unicode hex="00F0"/>
  <outline>
    <contour>
      <point x="361" y="-20" type="curve" smooth="yes"/>
      <point x="541" y="-20"/>
      <point x="684" y="120"/>
      <point x="684" y="310" type="curve" smooth="yes"/>
      <point x="684" y="402"/>
      <point x="651" y="497"/>
      <point x="585" y="598" type="curve" smooth="yes"/>
      <point x="552" y="648"/>
      <point x="494" y="726"/>
      <point x="425" y="812" type="curve"/>
      <point x="543" y="889" type="line"/>
      <point x="497" y="960" type="line"/>
      <point x="372" y="879" type="line"/>
      <point x="349" y="906"/>
      <point x="326" y="933"/>
      <point x="303" y="960" type="curve"/>
      <point x="118" y="960" type="line"/>
      <point x="164" y="907"/>
      <point x="209" y="855"/>
      <point x="253" y="802" type="curve"/>
      <point x="122" y="717" type="line"/>
      <point x="168" y="645" type="line"/>
      <point x="307" y="735" type="line"/>
      <point x="342" y="692"/>
      <point x="375" y="649"/>
      <point x="406" y="606" type="curve"/>
      <point x="385" y="612"/>
      <point x="362" y="614"/>
      <point x="339" y="614" type="curve" smooth="yes"/>
      <point x="172" y="614"/>
      <point x="36" y="474"/>
      <point x="36" y="301" type="curve" smooth="yes"/>
      <point x="36" y="123"/>
      <point x="180" y="-20"/>
    </contour>
    <contour>
      <point x="360" y="136" type="curve" smooth="yes"/>
      <point x="270" y="136"/>
      <point x="199" y="209"/>
      <point x="199" y="300" type="curve" smooth="yes"/>
      <point x="199" y="391"/>
      <point x="270" y="464"/>
      <point x="360" y="464" type="curve" smooth="yes"/>
      <point x="449" y="464"/>
      <point x="521" y="391"/>
      <point x="521" y="300" type="curve" smooth="yes"/>
      <point x="521" y="209"/>
      <point x="449" y="136"/>
    </contour>
  </outline>
</glyph>
<glyph name="oslash" format="2">
  <advance width="720"/>
  <unicode hex="00F8"/>
  <anchor x="360" y="599" name="top"/>
  <outline>
    <contour>
      <point x="360" y="-20" type="curve" smooth="yes"/>
      <point x="539" y="-20"/>
      <point x="684" y="123"/>
      <point x="684" y="300" type="curve" smooth="yes"/>
      <point x="684" y="382"/>
      <point x="653" y="456"/>
      <point x="602" y="512" type="curve"/>
      <point x="640" y="557" type="line"/>
      <point x="563" y="624" type="line"/>
      <point x="523" y="577" type="line"/>
      <point x="475" y="604"/>
      <point x="420" y="620"/>
      <point x="360" y="620" type="curve" smooth="yes"/>
      <point x="181" y="620"/>
      <point x="36" y="477"/>
      <point x="36" y="300" type="curve" smooth="yes"/>
      <point x="36" y="220"/>
      <point x="66" y="147"/>
      <point x="115" y="91" type="curve"/>
      <point x="74" y="42" type="line"/>
      <point x="151" y="-25" type="line"/>
      <point x="193" y="25" type="line"/>
      <point x="242" y="-3"/>
      <point x="299" y="-20"/>
    </contour>
    <contour>
      <point x="217" y="212" type="line"/>
      <point x="202" y="238"/>
      <point x="193" y="268"/>
      <point x="193" y="300" type="curve" smooth="yes"/>
      <point x="193" y="394"/>
      <point x="267" y="470"/>
      <point x="360" y="470" type="curve" smooth="yes"/>
      <point x="382" y="470"/>
      <point x="404" y="466"/>
      <point x="423" y="457" type="curve"/>
    </contour>
    <contour>
      <point x="360" y="130" type="curve" smooth="yes"/>
      <point x="336" y="130"/>
      <point x="313" y="135"/>
      <point x="293" y="144" type="curve"/>
      <point x="501" y="391" type="line"/>
      <point x="517" y="365"/>
      <point x="527" y="334"/>
      <point x="527" y="300" type="curve" smooth="yes"/>
      <point x="527" y="206"/>
      <point x="452" y="130"/>
    </contour>
  </outline>
</glyph>
<glyph name="thorn" format="2">
  <advance width="740"/>
  <unicode hex="00FE"/>
  <outline>
    <contour>
      <point x="66" y="-300" type="line"/>
      <point x="240" y="-300" type="line"/>
      <point x="240" y="38" type="line"/>
      <point x="284" y="4"/>
      <point x="339" y="-16"/>
      <point x="403" y="-16" type="curve" smooth="yes"/>
      <point x="570" y="-16"/>
      <point x="704" y="126"/>
      <point x="704" y="300" type="curve" smooth="yes"/>
      <point x="704" y="474"/>
      <point x="570" y="616"/>
      <point x="403" y="616" type="curve" smooth="yes"/>
      <point x="339" y="616"/>
      <point x="284" y="596"/>
      <point x="240" y="562" type="curve"/>
      <point x="240" y="960" type="line"/>
      <point x="66" y="960" type="line"/>
    </contour>
    <contour>
      <point x="383" y="137" type="curve" smooth="yes"/>
      <point x="295" y="137"/>
      <point x="224" y="210"/>
      <point x="224" y="300" type="curve" smooth="yes"/>
      <point x="224" y="390"/>
      <point x="295" y="463"/>
      <point x="383" y="463" type="curve" smooth="yes"/>
      <point x="471" y="463"/>
      <point x="542" y="390"/>
      <point x="542" y="300" type="curve" smooth="yes"/>
      <point x="542" y="210"/>
      <point x="471" y="137"/>
    </contour>
  </outline>
</glyph>
<glyph name="Aogonek" format="2">
  <advance width="820"/>
  <unicode hex="0104"/>
  <outline>
    <contour>
      <point x="736" y="-318" type="curve"/>
      <point x="766" y="-190" type="line"/>
      <point x="717" y="-189"/>
      <point x="685" y="-164"/>
      <point x="685" y="-128" type="curve" smooth="yes"/>
      <point x="685" y="-80"/>
      <point x="717" y="-36"/>
      <point x="808" y="0" type="curve"/>
      <point x="411" y="932" type="line"/>
      <point x="409" y="932" type="line"/>
      <point x="12" y="0" type="line"/>
      <point x="187" y="0" type="line"/>
      <point x="254" y="160" type="line"/>
      <point x="560" y="160" type="line"/>
      <point x="627" y="0" type="line"/>
      <point x="559" y="-57"/>
      <point x="535" y="-110"/>
      <point x="535" y="-165" type="curve" smooth="yes"/>
      <point x="535" y="-260"/>
      <point x="612" y="-318"/>
    </contour>
    <contour>
      <point x="314" y="304" type="line"/>
      <point x="353" y="396" type="line" smooth="yes"/>
      <point x="374" y="445"/>
      <point x="391" y="488"/>
      <point x="406" y="548" type="curve"/>
      <point x="422" y="487"/>
      <point x="440" y="445"/>
      <point x="461" y="396" type="curve" smooth="yes"/>
      <point x="500" y="304" type="line"/>
    </contour>
  </outline>
</glyph>
<glyph name="aogonek" format="2">
  <advance width="740"/>
  <unicode hex="0105"/>
  <outline>
    <contour>
      <point x="665" y="-318" type="curve"/>
      <point x="695" y="-190" type="line"/>
      <point x="649" y="-189"/>
      <point x="614" y="-166"/>
      <point x="614" y="-116" type="curve" smooth="yes"/>
      <point x="614" y="-74"/>
      <point x="639" y="-39"/>
      <point x="674" y="0" type="curve"/>
      <point x="674" y="600" type="line"/>
      <point x="524" y="600" type="line"/>
      <point x="524" y="539" type="line"/>
      <point x="478" y="587"/>
      <point x="413" y="616"/>
      <point x="336" y="616" type="curve" smooth="yes"/>
      <point x="170" y="616"/>
      <point x="36" y="474"/>
      <point x="36" y="300" type="curve" smooth="yes"/>
      <point x="36" y="126"/>
      <point x="170" y="-16"/>
      <point x="336" y="-16" type="curve" smooth="yes"/>
      <point x="413" y="-16"/>
      <point x="478" y="13"/>
      <point x="524" y="61" type="curve"/>
      <point x="524" y="0" type="line"/>
      <point x="486" y="-50"/>
      <point x="464" y="-100"/>
      <point x="464" y="-153" type="curve" smooth="yes"/>
      <point x="464" y="-266"/>
      <point x="549" y="-318"/>
    </contour>
    <contour>
      <point x="357" y="137" type="curve" smooth="yes"/>
      <point x="269" y="137"/>
      <point x="198" y="210"/>
      <point x="198" y="300" type="curve" smooth="yes"/>
      <point x="198" y="390"/>
      <point x="269" y="463"/>
      <point x="357" y="463" type="curve" smooth="yes"/>
      <point x="445" y="463"/>
      <point x="516" y="390"/>
      <point x="516" y="300" type="curve" smooth="yes"/>
      <point x="516" y="210"/>
      <point x="445" y="137"/>
    </contour>
  </outline>
</glyph>
<glyph name="dcroat" format="2">
  <advance width="740"/>
  <unicode hex="0111"/>
  <outline>
    <contour>
      <point x="337" y="-16" type="curve" smooth="yes"/>
      <point x="413" y="-16"/>
      <point x="478" y="12"/>
      <point x="524" y="59" type="curve"/>
      <point x="524" y="0" type="line"/>
      <point x="674" y="0" type="line"/>
      <point x="674" y="726" type="line"/>
      <point x="731" y="726" type="line"/>
      <point x="731" y="834" type="line"/>
      <point x="674" y="834" type="line"/>
      <point x="674" y="960" type="line"/>
      <point x="512" y="960" type="line"/>
      <point x="512" y="834" type="line"/>
      <point x="315" y="834" type="line"/>
      <point x="315" y="726" type="line"/>
      <point x="512" y="726" type="line"/>
      <point x="512" y="552" type="line"/>
      <point x="467" y="592"/>
      <point x="407" y="616"/>
      <point x="337" y="616" type="curve" smooth="yes"/>
      <point x="170" y="616"/>
      <point x="36" y="474"/>
      <point x="36" y="300" type="curve" smooth="yes"/>
      <point x="36" y="126"/>
      <point x="170" y="-16"/>
    </contour>
    <contour>
      <point x="357" y="137" type="curve" smooth="yes"/>
      <point x="269" y="137"/>
      <point x="198" y="210"/>
      <point x="198" y="300" type="curve" smooth="yes"/>
      <point x="198" y="390"/>
      <point x="269" y="463"/>
      <point x="357" y="463" type="curve" smooth="yes"/>
      <point x="445" y="463"/>
      <point x="516" y="390"/>
      <point x="516" y="300" type="curve" smooth="yes"/>
      <point x="516" y="210"/>
      <point x="445" y="137"/>
    </contour>
  </outline>
</glyph>
<glyph name="Eogonek" format="2">
  <advance width="630"/>
  <unicode hex="0118"/>
  <anchor x="336" y="900" name="top"/>
  <outline>
    <contour>
      <point x="568" y="-318" type="curve"/>
      <point x="598" y="-190" type="line"/>
      <point x="552" y="-189"/>
      <point x="517" y="-166"/>
      <point x="517" y="-116" type="curve" smooth="yes"/>
      <point x="517" y="-74"/>
      <point x="542" y="-39"/>
      <point x="576" y="0" type="curve"/>
      <point x="576" y="162" type="line"/>
      <point x="270" y="162" type="line"/>
      <point x="270" y="456" type="line"/>
      <point x="506" y="456" type="line"/>
      <point x="506" y="606" type="line"/>
      <point x="270" y="606" type="line"/>
      <point x="270" y="744" type="line"/>
      <point x="576" y="744" type="line"/>
      <point x="576" y="900" type="line"/>
      <point x="96" y="900" type="line"/>
      <point x="96" y="0" type="line"/>
      <point x="427" y="0" type="line"/>
      <point x="389" y="-50"/>
      <point x="367" y="-100"/>
      <point x="367" y="-153" type="curve" smooth="yes"/>
      <point x="367" y="-266"/>
      <point x="452" y="-318"/>
    </contour>
  </outline>
</glyph>
<glyph name="eogonek" format="2">
  <advance width="690"/>
  <unicode hex="0119"/>
  <anchor x="355" y="600" name="top"/>
  <outline>
    <contour>
      <point x="548" y="-318" type="curve"/>
      <point x="578" y="-190" type="line"/>
      <point x="532" y="-189"/>
      <point x="497" y="-166"/>
      <point x="497" y="-116" type="curve" smooth="yes"/>
      <point x="497" y="-74"/>
      <point x="522" y="-36"/>
      <point x="596" y="48" type="curve"/>
      <point x="559" y="200" type="line"/>
      <point x="519" y="157"/>
      <point x="457" y="124"/>
      <point x="381" y="124" type="curve" smooth="yes"/>
      <point x="282" y="124"/>
      <point x="216" y="179"/>
      <point x="200" y="259" type="curve"/>
      <point x="231" y="253"/>
      <point x="261" y="249"/>
      <point x="294" y="249" type="curve" smooth="yes"/>
      <point x="660" y="249" type="line"/>
      <point x="660" y="310" type="line" smooth="yes"/>
      <point x="660" y="487"/>
      <point x="527" y="620"/>
      <point x="350" y="620" type="curve" smooth="yes"/>
      <point x="175" y="620"/>
      <point x="36" y="487"/>
      <point x="36" y="306" type="curve" smooth="yes"/>
      <point x="36" y="116"/>
      <point x="174" y="-20"/>
      <point x="377" y="-20" type="curve" smooth="yes"/>
      <point x="385" y="-20"/>
      <point x="394" y="-20"/>
      <point x="402" y="-19" type="curve"/>
      <point x="360" y="-68"/>
      <point x="347" y="-115"/>
      <point x="347" y="-153" type="curve" smooth="yes"/>
      <point x="347" y="-266"/>
      <point x="432" y="-318"/>
    </contour>
    <contour>
      <point x="196" y="364" type="curve"/>
      <point x="217" y="437"/>
      <point x="274" y="482"/>
      <point x="348" y="482" type="curve" smooth="yes"/>
      <point x="425" y="482"/>
      <point x="480" y="438"/>
      <point x="500" y="366" type="curve"/>
      <point x="470" y="372"/>
      <point x="437" y="375"/>
      <point x="400" y="375" type="curve" smooth="yes"/>
      <point x="294" y="375" type="line" smooth="yes"/>
      <point x="260" y="375"/>
      <point x="228" y="371"/>
    </contour>
  </outline>
</glyph>
<glyph name="Hbar" format="2">
  <advance width="800"/>
  <unicode hex="0126"/>
  <outline>
    <contour>
      <point x="96" y="0" type="line"/>
      <point x="270" y="0" type="line"/>
      <point x="270" y="414" type="line"/>
      <point x="530" y="414" type="line"/>
      <point x="530" y="0" type="line"/>
      <point x="704" y="0" type="line"/>
      <point x="704" y="666" type="line"/>
      <point x="770" y="666" type="line"/>
      <point x="770" y="774" type="line"/>
      <point x="704" y="774" type="line"/>
      <point x="704" y="900" type="line"/>
      <point x="530" y="900" type="line"/>
      <point x="530" y="774" type="line"/>
      <point x="270" y="774" type="line"/>
      <point x="270" y="900" type="line"/>
      <point x="96" y="900" type="line"/>
      <point x="96" y="774" type="line"/>
      <point x="30" y="774" type="line"/>
      <point x="30" y="666" type="line"/>
      <point x="96" y="666" type="line"/>
    </contour>
    <contour>
      <point x="270" y="576" type="line"/>
      <point x="270" y="666" type="line"/>
      <point x="530" y="666" type="line"/>
      <point x="530" y="576" type="line"/>
    </contour>
  </outline>
</glyph>
<glyph name="hbar" format="2">
  <advance width="700"/>
  <unicode hex="0127"/>
  <outline>
    <contour>
      <point x="66" y="0" type="line"/>
      <point x="234" y="0" type="line"/>
      <point x="234" y="331" type="line" smooth="yes"/>
      <point x="234" y="418"/>
      <point x="293" y="464"/>
      <point x="356" y="464" type="curve" smooth="yes"/>
      <point x="434" y="464"/>
      <point x="478" y="400"/>
      <point x="478" y="329" type="curve" smooth="yes"/>
      <point x="478" y="0" type="line"/>
      <point x="646" y="0" type="line"/>
      <point x="646" y="359" type="line" smooth="yes"/>
      <point x="646" y="525"/>
      <point x="529" y="620"/>
      <point x="402" y="620" type="curve" smooth="yes"/>
      <point x="333" y="620"/>
      <point x="271" y="593"/>
      <point x="228" y="542" type="curve"/>
      <point x="228" y="726" type="line"/>
      <point x="425" y="726" type="line"/>
      <point x="425" y="834" type="line"/>
      <point x="228" y="834" type="line"/>
      <point x="228" y="960" type="line"/>
      <point x="66" y="960" type="line"/>
      <point x="66" y="834" type="line"/>
      <point x="9" y="834" type="line"/>
      <point x="9" y="726" type="line"/>
      <point x="66" y="726" type="line"/>
    </contour>
  </outline>
</glyph>
<glyph name="Iogonek" format="2">
  <advance width="390"/>
  <unicode hex="012E"/>
  <outline>
    <contour>
      <point x="255" y="-318" type="curve"/>
      <point x="285" y="-190" type="line"/>
      <point x="239" y="-189"/>
      <point x="204" y="-166"/>
      <point x="204" y="-116" type="curve" smooth="yes"/>
      <point x="204" y="-74"/>
      <point x="239" y="-29"/>
      <point x="288" y="0" type="curve"/>
      <point x="288" y="900" type="line"/>
      <point x="102" y="900" type="line"/>
      <point x="102" y="0" type="line"/>
      <point x="70" y="-50"/>
      <point x="54" y="-100"/>
      <point x="54" y="-153" type="curve" smooth="yes"/>
      <point x="54" y="-266"/>
      <point x="139" y="-318"/>
    </contour>
  </outline>
</glyph>
<glyph name="kgreenlandic" format="2">
  <advance width="670"/>
  <unicode hex="0138"/>
  <anchor x="346" y="0" name="bottom"/>
  <anchor x="300" y="600" name="top"/>
  <outline>
    <contour>
      <point x="463" y="0" type="line"/>
      <point x="668" y="0" type="line"/>
      <point x="415" y="342" type="line"/>
      <point x="605" y="600" type="line"/>
      <point x="418" y="600" type="line"/>
      <point x="222" y="330" type="line"/>
    </contour>
    <contour>
      <point x="66" y="0" type="line"/>
      <point x="234" y="0" type="line"/>
      <point x="234" y="600" type="line"/>
      <point x="66" y="600" type="line"/>
    </contour>
  </outline>
</glyph>
<glyph name="Lslash" format="2">
  <advance width="630"/>
  <unicode hex="0141"/>
  <outline>
    <contour>
      <point x="126" y="0" type="line"/>
      <point x="582" y="0" type="line"/>
      <point x="582" y="162" type="line"/>
      <point x="312" y="162" type="line"/>
      <point x="312" y="447" type="line"/>
      <point x="534" y="570" type="line"/>
      <point x="478" y="670" type="line"/>
      <point x="312" y="578" type="line"/>
      <point x="312" y="900" type="line"/>
      <point x="126" y="900" type="line"/>
      <point x="126" y="475" type="line"/>
      <point x="6" y="408" type="line"/>
      <point x="62" y="308" type="line"/>
      <point x="126" y="344" type="line"/>
    </contour>
  </outline>
</glyph>
<glyph name="lslash" format="2">
  <advance width="370"/>
  <unicode hex="0142"/>
  <outline>
    <contour>
      <point x="98" y="0" type="line"/>
      <point x="272" y="0" type="line"/>
      <point x="272" y="483" type="line"/>
      <point x="385" y="557" type="line"/>
      <point x="334" y="637" type="line"/>
      <point x="272" y="596" type="line"/>
      <point x="272" y="960" type="line"/>
      <point x="98" y="960" type="line"/>
      <point x="98" y="481" type="line"/>
      <point x="-21" y="403" type="line"/>
      <point x="30" y="323" type="line"/>
      <point x="98" y="368" type="line"/>
    </contour>
  </outline>
</glyph>
<glyph name="Eng" format="2">
  <advance width="990"/>
  <unicode hex="014A"/>
  <anchor x="495" y="0" name="bottom"/>
  <anchor x="495" y="900" name="top"/>
  <outline>
    <contour>
      <point x="545" y="-200" type="curve" smooth="yes"/>
      <point x="680" y="-200"/>
      <point x="804" y="-117"/>
      <point x="804" y="71" type="curve" smooth="yes"/>
      <point x="804" y="900" type="line"/>
      <point x="636" y="900" type="line"/>
      <point x="636" y="372" type="line"/>
      <point x="98" y="930" type="line"/>
      <point x="96" y="930" type="line"/>
      <point x="96" y="0" type="line"/>
      <point x="264" y="0" type="line"/>
      <point x="264" y="503" type="line"/>
      <point x="636" y="118" type="line"/>
      <point x="636" y="103" type="line" smooth="yes"/>
      <point x="636" y="6"/>
      <point x="588" y="-32"/>
      <point x="526" y="-32" type="curve" smooth="yes"/>
      <point x="474" y="-32"/>
      <point x="431" y="-6"/>
      <point x="405" y="34" type="curve"/>
      <point x="358" y="-134" type="line"/>
      <point x="403" y="-179"/>
      <point x="475" y="-200"/>
    </contour>
  </outline>
</glyph>
<glyph name="OE" format="2">
  <advance width="1320"/>
  <unicode hex="0152"/>
  <anchor x="660" y="0" name="bottom"/>
  <anchor x="660" y="900" name="top"/>
  <outline>
    <contour>
      <point x="512" y="-18" type="curve" smooth="yes"/>
      <point x="626" y="-18"/>
      <point x="723" y="16"/>
      <point x="786" y="77" type="curve"/>
      <point x="786" y="0" type="line"/>
      <point x="1266" y="0" type="line"/>
      <point x="1266" y="162" type="line"/>
      <point x="960" y="162" type="line"/>
      <point x="960" y="456" type="line"/>
      <point x="1196" y="456" type="line"/>
      <point x="1196" y="606" type="line"/>
      <point x="960" y="606" type="line"/>
      <point x="960" y="744" type="line"/>
      <point x="1266" y="744" type="line"/>
      <point x="1266" y="900" type="line"/>
      <point x="786" y="900" type="line"/>
      <point x="786" y="823" type="line"/>
      <point x="726" y="881"/>
      <point x="632" y="918"/>
      <point x="512" y="918" type="curve" smooth="yes"/>
      <point x="259" y="918"/>
      <point x="54" y="709"/>
      <point x="54" y="450" type="curve" smooth="yes"/>
      <point x="54" y="191"/>
      <point x="259" y="-18"/>
    </contour>
    <contour>
      <point x="530" y="156" type="curve" smooth="yes"/>
      <point x="368" y="156"/>
      <point x="242" y="287"/>
      <point x="242" y="450" type="curve" smooth="yes"/>
      <point x="242" y="613"/>
      <point x="368" y="744"/>
      <point x="530" y="744" type="curve" smooth="yes"/>
      <point x="692" y="744"/>
      <point x="818" y="613"/>
      <point x="818" y="450" type="curve" smooth="yes"/>
      <point x="818" y="287"/>
      <point x="692" y="156"/>
    </contour>
  </outline>
</glyph>
<glyph name="oe" format="2">
  <advance width="1140"/>
  <unicode hex="0153"/>
  <anchor x="570" y="0" name="bottom"/>
  <anchor x="570" y="600" name="top"/>
  <outline>
    <contour>
      <point x="360" y="-20" type="curve" smooth="yes"/>
      <point x="447" y="-20"/>
      <point x="526" y="14"/>
      <point x="584" y="68" type="curve"/>
      <point x="644" y="13"/>
      <point x="727" y="-20"/>
      <point x="827" y="-20" type="curve" smooth="yes"/>
      <point x="908" y="-20"/>
      <point x="986" y="3"/>
      <point x="1046" y="48" type="curve"/>
      <point x="1008" y="204" type="line"/>
      <point x="969" y="159"/>
      <point x="907" y="124"/>
      <point x="831" y="124" type="curve" smooth="yes"/>
      <point x="734" y="124"/>
      <point x="669" y="176"/>
      <point x="651" y="254" type="curve"/>
      <point x="672" y="251"/>
      <point x="692" y="249"/>
      <point x="714" y="249" type="curve" smooth="yes"/>
      <point x="1110" y="249" type="line"/>
      <point x="1110" y="310" type="line" smooth="yes"/>
      <point x="1110" y="487"/>
      <point x="977" y="620"/>
      <point x="800" y="620" type="curve" smooth="yes"/>
      <point x="715" y="620"/>
      <point x="638" y="588"/>
      <point x="581" y="534" type="curve"/>
      <point x="523" y="587"/>
      <point x="446" y="620"/>
      <point x="360" y="620" type="curve" smooth="yes"/>
      <point x="181" y="620"/>
      <point x="36" y="477"/>
      <point x="36" y="300" type="curve" smooth="yes"/>
      <point x="36" y="123"/>
      <point x="181" y="-20"/>
    </contour>
    <contour>
      <point x="360" y="136" type="curve" smooth="yes"/>
      <point x="270" y="136"/>
      <point x="199" y="209"/>
      <point x="199" y="300" type="curve" smooth="yes"/>
      <point x="199" y="391"/>
      <point x="270" y="464"/>
      <point x="360" y="464" type="curve" smooth="yes"/>
      <point x="449" y="464"/>
      <point x="521" y="391"/>
      <point x="521" y="300" type="curve" smooth="yes"/>
      <point x="521" y="209"/>
      <point x="449" y="136"/>
    </contour>
    <contour>
      <point x="647" y="370" type="curve"/>
      <point x="670" y="439"/>
      <point x="726" y="482"/>
      <point x="798" y="482" type="curve" smooth="yes"/>
      <point x="875" y="482"/>
      <point x="930" y="438"/>
      <point x="950" y="366" type="curve"/>
      <point x="920" y="372"/>
      <point x="887" y="375"/>
      <point x="850" y="375" type="curve" smooth="yes"/>
      <point x="714" y="375" type="line" smooth="yes"/>
      <point x="691" y="375"/>
      <point x="669" y="373"/>
    </contour>
  </outline>
</glyph>
<glyph name="Scedilla" format="2">
  <advance width="660"/>
  <unicode hex="015E"/>
  <outline>
    <contour>
      <point x="43" y="-192" type="line"/>
      <point x="258" y="-192" type="line"/>
      <point x="381" y="-16" type="line"/>
      <point x="530" y="5"/>
      <point x="621" y="116"/>
      <point x="621" y="256" type="curve" smooth="yes"/>
      <point x="621" y="415"/>
      <point x="503" y="484"/>
      <point x="432" y="519" type="curve" smooth="yes"/>
      <point x="325" y="572" type="line" smooth="yes"/>
      <point x="270" y="599"/>
      <point x="237" y="626"/>
      <point x="237" y="673" type="curve" smooth="yes"/>
      <point x="237" y="722"/>
      <point x="273" y="760"/>
      <point x="339" y="760" type="curve" smooth="yes"/>
      <point x="412" y="760"/>
      <point x="491" y="714"/>
      <point x="545" y="645" type="curve"/>
      <point x="591" y="840" type="line"/>
      <point x="539" y="879"/>
      <point x="453" y="920"/>
      <point x="347" y="920" type="curve" smooth="yes"/>
      <point x="176" y="920"/>
      <point x="67" y="817"/>
      <point x="67" y="666" type="curve" smooth="yes"/>
      <point x="67" y="527"/>
      <point x="157" y="463"/>
      <point x="250" y="417" type="curve" smooth="yes"/>
      <point x="356" y="364" type="line" smooth="yes"/>
      <point x="390" y="347"/>
      <point x="451" y="314"/>
      <point x="451" y="245" type="curve" smooth="yes"/>
      <point x="451" y="187"/>
      <point x="406" y="142"/>
      <point x="333" y="142" type="curve" smooth="yes"/>
      <point x="244" y="142"/>
      <point x="150" y="202"/>
      <point x="103" y="284" type="curve"/>
      <point x="54" y="84" type="line"/>
      <point x="96" y="43"/>
      <point x="160" y="8"/>
      <point x="233" y="-9" type="curve"/>
    </contour>
  </outline>
</glyph>
<glyph name="scedilla" format="2">
  <advance width="530"/>
  <unicode hex="015F"/>
  <outline>
    <contour>
      <point x="-9" y="-192" type="line"/>
      <point x="206" y="-192" type="line"/>
      <point x="331" y="-13" type="line"/>
      <point x="431" y="9"/>
      <point x="496" y="81"/>
      <point x="496" y="177" type="curve" smooth="yes"/>
      <point x="496" y="300"/>
      <point x="399" y="337"/>
      <point x="331" y="362" type="curve" smooth="yes"/>
      <point x="253" y="391" type="line" smooth="yes"/>
      <point x="219" y="404"/>
      <point x="207" y="421"/>
      <point x="207" y="439" type="curve" smooth="yes"/>
      <point x="207" y="462"/>
      <point x="226" y="482"/>
      <point x="269" y="482" type="curve" smooth="yes"/>
      <point x="325" y="482"/>
      <point x="392" y="449"/>
      <point x="438" y="391" type="curve"/>
      <point x="478" y="549" type="line"/>
      <point x="443" y="585"/>
      <point x="361" y="620"/>
      <point x="274" y="620" type="curve" smooth="yes"/>
      <point x="133" y="620"/>
      <point x="53" y="528"/>
      <point x="53" y="425" type="curve" smooth="yes"/>
      <point x="53" y="310"/>
      <point x="149" y="271"/>
      <point x="206" y="249" type="curve" smooth="yes"/>
      <point x="290" y="217" type="line" smooth="yes"/>
      <point x="314" y="208"/>
      <point x="342" y="197"/>
      <point x="342" y="166" type="curve" smooth="yes"/>
      <point x="342" y="139"/>
      <point x="321" y="118"/>
      <point x="272" y="118" type="curve" smooth="yes"/>
      <point x="199" y="118"/>
      <point x="123" y="165"/>
      <point x="85" y="218" type="curve"/>
      <point x="42" y="54" type="line"/>
      <point x="73" y="24"/>
      <point x="124" y="1"/>
      <point x="179" y="-11" type="curve"/>
    </contour>
  </outline>
</glyph>
<glyph name="Tcedilla" format="2">
  <advance width="710"/>
  <unicode hex="0162"/>
  <outline>
    <contour>
      <point x="81" y="-192" type="line"/>
      <point x="296" y="-192" type="line"/>
      <point x="448" y="0" type="line"/>
      <point x="448" y="738" type="line"/>
      <point x="668" y="738" type="line"/>
      <point x="668" y="900" type="line"/>
      <point x="42" y="900" type="line"/>
      <point x="42" y="738" type="line"/>
      <point x="262" y="738" type="line"/>
      <point x="262" y="0" type="line"/>
    </contour>
  </outline>
</glyph>
<glyph name="tcedilla" format="2">
  <advance width="450"/>
  <unicode hex="0163"/>
  <outline>
    <contour>
      <point x="-51" y="-192" type="line"/>
      <point x="164" y="-192" type="line"/>
      <point x="310" y="0" type="line"/>
      <point x="310" y="462" type="line"/>
      <point x="426" y="462" type="line"/>
      <point x="426" y="600" type="line"/>
      <point x="307" y="600" type="line"/>
      <point x="307" y="800" type="line"/>
      <point x="139" y="800" type="line"/>
      <point x="139" y="600" type="line"/>
      <point x="24" y="600" type="line"/>
      <point x="24" y="462" type="line"/>
      <point x="136" y="462" type="line"/>
      <point x="136" y="0" type="line"/>
    </contour>
  </outline>
</glyph>
<glyph name="Tbar" format="2">
  <advance width="710"/>
  <unicode hex="0166"/>
  <outline>
    <contour>
      <point x="262" y="0" type="line"/>
      <point x="448" y="0" type="line"/>
      <point x="448" y="387" type="line"/>
      <point x="595" y="387" type="line"/>
      <point x="595" y="513" type="line"/>
      <point x="448" y="513" type="line"/>
      <point x="448" y="738" type="line"/>
      <point x="668" y="738" type="line"/>
      <point x="668" y="900" type="line"/>
      <point x="42" y="900" type="line"/>
      <point x="42" y="738" type="line"/>
      <point x="262" y="738" type="line"/>
      <point x="262" y="513" type="line"/>
      <point x="115" y="513" type="line"/>
      <point x="115" y="387" type="line"/>
      <point x="262" y="387" type="line"/>
    </contour>
  </outline>
</glyph>
<glyph name="tbar" format="2">
  <advance width="450"/>
  <unicode hex="0167"/>
  <outline>
    <contour>
      <point x="136" y="0" type="line"/>
      <point x="310" y="0" type="line"/>
      <point x="310" y="246" type="line"/>
      <point x="416" y="246" type="line"/>
      <point x="416" y="354" type="line"/>
      <point x="310" y="354" type="line"/>
      <point x="310" y="462" type="line"/>
      <point x="426" y="462" type="line"/>
      <point x="426" y="600" type="line"/>
      <point x="307" y="600" type="line"/>
      <point x="307" y="800" type="line"/>
      <point x="139" y="800" type="line"/>
      <point x="139" y="600" type="line"/>
      <point x="24" y="600" type="line"/>
      <point x="24" y="462" type="line"/>
      <point x="136" y="462" type="line"/>
      <point x="136" y="354" type="line"/>
      <point x="34" y="354" type="line"/>
      <point x="34" y="246" type="line"/>
      <point x="136" y="246" type="line"/>
    </contour>
  </outline>
</glyph>
<glyph name="Uogonek" format="2">
  <advance width="800"/>
  <unicode hex="0172"/>
  <outline>
    <contour>
      <point x="496" y="-318" type="curve"/>
      <point x="526" y="-190" type="line"/>
      <point x="480" y="-189"/>
      <point x="445" y="-166"/>
      <point x="445" y="-116" type="curve" smooth="yes"/>
      <point x="445" y="-78"/>
      <point x="466" y="-45"/>
      <point x="496" y="-10" type="curve"/>
      <point x="636" y="25"/>
      <point x="728" y="137"/>
      <point x="728" y="306" type="curve" smooth="yes"/>
      <point x="728" y="900" type="line"/>
      <point x="548" y="900" type="line"/>
      <point x="548" y="306" type="line" smooth="yes"/>
      <point x="548" y="213"/>
      <point x="487" y="153"/>
      <point x="403" y="153" type="curve" smooth="yes"/>
      <point x="318" y="153"/>
      <point x="258" y="215"/>
      <point x="258" y="312" type="curve" smooth="yes"/>
      <point x="258" y="900" type="line"/>
      <point x="72" y="900" type="line"/>
      <point x="72" y="303" type="line" smooth="yes"/>
      <point x="72" y="123"/>
      <point x="182" y="6"/>
      <point x="340" y="-17" type="curve"/>
      <point x="302" y="-77"/>
      <point x="295" y="-118"/>
      <point x="295" y="-153" type="curve" smooth="yes"/>
      <point x="295" y="-266"/>
      <point x="380" y="-318"/>
    </contour>
  </outline>
</glyph>
<glyph name="uogonek" format="2">
  <advance width="700"/>
  <unicode hex="0173"/>
  <outline>
    <contour>
      <point x="621" y="-318" type="curve"/>
      <point x="651" y="-190" type="line"/>
      <point x="605" y="-189"/>
      <point x="570" y="-166"/>
      <point x="570" y="-116" type="curve" smooth="yes"/>
      <point x="570" y="-74"/>
      <point x="595" y="-39"/>
      <point x="634" y="0" type="curve"/>
      <point x="634" y="600" type="line"/>
      <point x="460" y="600" type="line"/>
      <point x="460" y="262" type="line" smooth="yes"/>
      <point x="460" y="180"/>
      <point x="404" y="136"/>
      <point x="344" y="136" type="curve" smooth="yes"/>
      <point x="270" y="136"/>
      <point x="228" y="197"/>
      <point x="228" y="264" type="curve" smooth="yes"/>
      <point x="228" y="600" type="line"/>
      <point x="54" y="600" type="line"/>
      <point x="54" y="241" type="line" smooth="yes"/>
      <point x="54" y="75"/>
      <point x="171" y="-20"/>
      <point x="298" y="-20" type="curve" smooth="yes"/>
      <point x="369" y="-20"/>
      <point x="433" y="9"/>
      <point x="476" y="63" type="curve"/>
      <point x="476" y="0" type="line"/>
      <point x="442" y="-50"/>
      <point x="420" y="-100"/>
      <point x="420" y="-153" type="curve" smooth="yes"/>
      <point x="420" y="-266"/>
      <point x="505" y="-318"/>
    </contour>
  </outline>
</glyph>
<glyph name="Schwa" format="2">
  <advance width="1050"/>
  <unicode hex="018F"/>
  <outline>
    <contour>
      <point x="520" y="-18" type="curve" smooth="yes"/>
      <point x="783" y="-18"/>
      <point x="996" y="191"/>
      <point x="996" y="450" type="curve" smooth="yes"/>
      <point x="996" y="709"/>
      <point x="783" y="918"/>
      <point x="520" y="918" type="curve" smooth="yes"/>
      <point x="397" y="918"/>
      <point x="289" y="877"/>
      <point x="206" y="807" type="curve"/>
      <point x="257" y="601" type="line"/>
      <point x="308" y="684"/>
      <point x="398" y="748"/>
      <point x="520" y="748" type="curve" smooth="yes"/>
      <point x="659" y="748"/>
      <point x="773" y="654"/>
      <point x="805" y="525" type="curve"/>
      <point x="768" y="531"/>
      <point x="731" y="534"/>
      <point x="694" y="534" type="curve" smooth="yes"/>
      <point x="44" y="534" type="line"/>
      <point x="44" y="506"/>
      <point x="44" y="478"/>
      <point x="44" y="450" type="curve" smooth="yes"/>
      <point x="44" y="191"/>
      <point x="257" y="-18"/>
    </contour>
    <contour>
      <point x="520" y="150" type="curve" smooth="yes"/>
      <point x="378" y="150"/>
      <point x="262" y="250"/>
      <point x="233" y="384" type="curve"/>
      <point x="694" y="384" type="line" smooth="yes"/>
      <point x="732" y="384"/>
      <point x="771" y="388"/>
      <point x="809" y="394" type="curve"/>
      <point x="783" y="255"/>
      <point x="666" y="150"/>
    </contour>
  </outline>
</glyph>
<glyph name="florin" format="2">
  <advance width="750"/>
  <unicode hex="0192"/>
  <outline>
    <contour>
      <point x="242" y="-192" type="curve" smooth="yes"/>
      <point x="365" y="-192"/>
      <point x="460" y="-116"/>
      <point x="460" y="27" type="curve" smooth="yes"/>
      <point x="460" y="381" type="line"/>
      <point x="660" y="381" type="line"/>
      <point x="660" y="519" type="line"/>
      <point x="460" y="519" type="line"/>
      <point x="460" y="697" type="line" smooth="yes"/>
      <point x="460" y="758"/>
      <point x="493" y="777"/>
      <point x="525" y="777" type="curve" smooth="yes"/>
      <point x="552" y="777"/>
      <point x="575" y="765"/>
      <point x="595" y="740" type="curve"/>
      <point x="629" y="881" type="line"/>
      <point x="597" y="902"/>
      <point x="553" y="912"/>
      <point x="508" y="912" type="curve" smooth="yes"/>
      <point x="385" y="912"/>
      <point x="290" y="836"/>
      <point x="290" y="693" type="curve" smooth="yes"/>
      <point x="290" y="519" type="line"/>
      <point x="90" y="519" type="line"/>
      <point x="90" y="381" type="line"/>
      <point x="290" y="381" type="line"/>
      <point x="290" y="23" type="line" smooth="yes"/>
      <point x="290" y="-38"/>
      <point x="257" y="-57"/>
      <point x="225" y="-57" type="curve" smooth="yes"/>
      <point x="198" y="-57"/>
      <point x="175" y="-45"/>
      <point x="155" y="-20" type="curve"/>
      <point x="121" y="-161" type="line"/>
      <point x="153" y="-182"/>
      <point x="197" y="-192"/>
    </contour>
  </outline>
</glyph>
<glyph name="Ohorn" format="2">
  <advance width="1060"/>
  <unicode hex="01A0"/>
  <anchor x="530" y="0" name="bottom"/>
  <anchor x="530" y="900" name="top"/>
  <outline>
    <contour>
      <point x="530" y="-18" type="curve" smooth="yes"/>
      <point x="793" y="-18"/>
      <point x="1006" y="191"/>
      <point x="1006" y="450" type="curve" smooth="yes"/>
      <point x="1006" y="541"/>
      <point x="980" y="625"/>
      <point x="935" y="697" type="curve"/>
      <point x="994" y="724"/>
      <point x="1030" y="782"/>
      <point x="1030" y="868" type="curve" smooth="yes"/>
      <point x="1030" y="897"/>
      <point x="1025" y="928"/>
      <point x="1006" y="960" type="curve"/>
      <point x="850" y="960" type="line"/>
      <point x="869" y="927"/>
      <point x="874" y="892"/>
      <point x="874" y="868" type="curve" smooth="yes"/>
      <point x="874" y="835"/>
      <point x="865" y="812"/>
      <point x="849" y="797" type="curve"/>
      <point x="765" y="872"/>
      <point x="653" y="918"/>
      <point x="530" y="918" type="curve" smooth="yes"/>
      <point x="267" y="918"/>
      <point x="54" y="709"/>
      <point x="54" y="450" type="curve" smooth="yes"/>
      <point x="54" y="191"/>
      <point x="267" y="-18"/>
    </contour>
    <contour>
      <point x="530" y="156" type="curve" smooth="yes"/>
      <point x="368" y="156"/>
      <point x="242" y="287"/>
      <point x="242" y="450" type="curve" smooth="yes"/>
      <point x="242" y="613"/>
      <point x="368" y="744"/>
      <point x="530" y="744" type="curve" smooth="yes"/>
      <point x="692" y="744"/>
      <point x="818" y="613"/>
      <point x="818" y="450" type="curve" smooth="yes"/>
      <point x="818" y="287"/>
      <point x="692" y="156"/>
    </contour>
  </outline>
</glyph>
<glyph name="ohorn" format="2">
  <advance width="770"/>
  <unicode hex="01A1"/>
  <anchor x="360" y="0" name="bottom"/>
  <anchor x="360" y="600" name="top"/>
  <outline>
    <contour>
      <point x="360" y="-20" type="curve" smooth="yes"/>
      <point x="539" y="-20"/>
      <point x="684" y="123"/>
      <point x="684" y="300" type="curve" smooth="yes"/>
      <point x="684" y="337"/>
      <point x="678" y="373"/>
      <point x="666" y="406" type="curve"/>
      <point x="722" y="426"/>
      <point x="766" y="482"/>
      <point x="766" y="568" type="curve" smooth="yes"/>
      <point x="766" y="597"/>
      <point x="761" y="628"/>
      <point x="742" y="660" type="curve"/>
      <point x="598" y="660" type="line"/>
      <point x="617" y="627"/>
      <point x="622" y="592"/>
      <point x="622" y="568" type="curve" smooth="yes"/>
      <point x="622" y="542"/>
      <point x="616" y="523"/>
      <point x="606" y="508" type="curve"/>
      <point x="547" y="577"/>
      <point x="459" y="620"/>
      <point x="360" y="620" type="curve" smooth="yes"/>
      <point x="181" y="620"/>
      <point x="36" y="477"/>
      <point x="36" y="300" type="curve" smooth="yes"/>
      <point x="36" y="123"/>
      <point x="181" y="-20"/>
    </contour>
    <contour>
      <point x="360" y="136" type="curve" smooth="yes"/>
      <point x="270" y="136"/>
      <point x="199" y="209"/>
      <point x="199" y="300" type="curve" smooth="yes"/>
      <point x="199" y="391"/>
      <point x="270" y="464"/>
      <point x="360" y="464" type="curve" smooth="yes"/>
      <point x="449" y="464"/>
      <point x="521" y="391"/>
      <point x="521" y="300" type="curve" smooth="yes"/>
      <point x="521" y="209"/>
      <point x="449" y="136"/>
    </contour>
  </outline>
</glyph>
<glyph name="Uhorn" format="2">
  <advance width="940"/>
  <unicode hex="01AF"/>
  <anchor x="400" y="0" name="bottom"/>
  <anchor x="400" y="900" name="top"/>
  <outline>
    <contour>
      <point x="400" y="-21" type="curve" smooth="yes"/>
      <point x="593" y="-21"/>
      <point x="728" y="101"/>
      <point x="728" y="306" type="curve" smooth="yes"/>
      <point x="728" y="685" type="line"/>
      <point x="741" y="682"/>
      <point x="755" y="680"/>
      <point x="769" y="680" type="curve" smooth="yes"/>
      <point x="854" y="680"/>
      <point x="936" y="745"/>
      <point x="936" y="866" type="curve" smooth="yes"/>
      <point x="936" y="896"/>
      <point x="931" y="927"/>
      <point x="912" y="960" type="curve"/>
      <point x="762" y="960" type="line"/>
      <point x="781" y="927"/>
      <point x="786" y="892"/>
      <point x="786" y="868" type="curve" smooth="yes"/>
      <point x="786" y="816"/>
      <point x="756" y="794"/>
      <point x="725" y="794" type="curve" smooth="yes"/>
      <point x="722" y="794"/>
      <point x="719" y="794"/>
      <point x="716" y="794" type="curve"/>
      <point x="716" y="900" type="line"/>
      <point x="548" y="900" type="line"/>
      <point x="548" y="306" type="line" smooth="yes"/>
      <point x="548" y="213"/>
      <point x="487" y="153"/>
      <point x="403" y="153" type="curve" smooth="yes"/>
      <point x="318" y="153"/>
      <point x="258" y="215"/>
      <point x="258" y="312" type="curve" smooth="yes"/>
      <point x="258" y="900" type="line"/>
      <point x="72" y="900" type="line"/>
      <point x="72" y="303" type="line" smooth="yes"/>
      <point x="72" y="101"/>
      <point x="210" y="-21"/>
    </contour>
  </outline>
</glyph>
<glyph name="Gstroke" format="2">
  <advance width="920"/>
  <unicode hex="01E4"/>
  <outline>
    <contour>
      <point x="540" y="-18" type="curve" smooth="yes"/>
      <point x="653" y="-18"/>
      <point x="757" y="14"/>
      <point x="840" y="67" type="curve"/>
      <point x="840" y="309" type="line"/>
      <point x="910" y="309" type="line"/>
      <point x="910" y="435" type="line"/>
      <point x="840" y="435" type="line"/>
      <point x="840" y="540" type="line"/>
      <point x="676" y="540" type="line"/>
      <point x="676" y="435" type="line"/>
      <point x="490" y="435" type="line"/>
      <point x="490" y="309" type="line"/>
      <point x="676" y="309" type="line"/>
      <point x="676" y="180" type="line"/>
      <point x="638" y="159"/>
      <point x="592" y="148"/>
      <point x="537" y="148" type="curve" smooth="yes"/>
      <point x="368" y="148"/>
      <point x="242" y="272"/>
      <point x="242" y="448" type="curve" smooth="yes"/>
      <point x="242" y="620"/>
      <point x="368" y="748"/>
      <point x="538" y="748" type="curve" smooth="yes"/>
      <point x="660" y="748"/>
      <point x="750" y="684"/>
      <point x="801" y="601" type="curve"/>
      <point x="852" y="807" type="line"/>
      <point x="769" y="877"/>
      <point x="661" y="918"/>
      <point x="538" y="918" type="curve" smooth="yes"/>
      <point x="267" y="918"/>
      <point x="54" y="716"/>
      <point x="54" y="448" type="curve" smooth="yes"/>
      <point x="54" y="179"/>
      <point x="267" y="-18"/>
    </contour>
  </outline>
</glyph>
<glyph name="Oogonek" format="2">
  <advance width="1060"/>
  <unicode hex="01EA"/>
  <anchor x="530" y="900" name="top"/>
  <outline>
    <contour>
      <point x="626" y="-318" type="curve"/>
      <point x="656" y="-190" type="line"/>
      <point x="610" y="-189"/>
      <point x="575" y="-166"/>
      <point x="575" y="-116" type="curve" smooth="yes"/>
      <point x="575" y="-77"/>
      <point x="597" y="-44"/>
      <point x="628" y="-8" type="curve"/>
      <point x="844" y="36"/>
      <point x="1006" y="224"/>
      <point x="1006" y="450" type="curve" smooth="yes"/>
      <point x="1006" y="709"/>
      <point x="793" y="918"/>
      <point x="530" y="918" type="curve" smooth="yes"/>
      <point x="267" y="918"/>
      <point x="54" y="709"/>
      <point x="54" y="450" type="curve" smooth="yes"/>
      <point x="54" y="210"/>
      <point x="238" y="12"/>
      <point x="474" y="-15" type="curve"/>
      <point x="443" y="-60"/>
      <point x="425" y="-105"/>
      <point x="425" y="-153" type="curve" smooth="yes"/>
      <point x="425" y="-266"/>
      <point x="510" y="-318"/>
    </contour>
    <contour>
      <point x="530" y="156" type="curve" smooth="yes"/>
      <point x="368" y="156"/>
      <point x="242" y="287"/>
      <point x="242" y="450" type="curve" smooth="yes"/>
      <point x="242" y="613"/>
      <point x="368" y="744"/>
      <point x="530" y="744" type="curve" smooth="yes"/>
      <point x="692" y="744"/>
      <point x="818" y="613"/>
      <point x="818" y="450" type="curve" smooth="yes"/>
      <point x="818" y="287"/>
      <point x="692" y="156"/>
    </contour>
  </outline>
</glyph>
<glyph name="oogonek" format="2">
  <advance width="720"/>
  <unicode hex="01EB"/>
  <anchor x="360" y="600" name="top"/>
  <outline>
    <contour>
      <point x="456" y="-318" type="curve"/>
      <point x="486" y="-190" type="line"/>
      <point x="440" y="-189"/>
      <point x="405" y="-166"/>
      <point x="405" y="-116" type="curve" smooth="yes"/>
      <point x="405" y="-75"/>
      <point x="428" y="-41"/>
      <point x="461" y="-4" type="curve"/>
      <point x="591" y="38"/>
      <point x="684" y="158"/>
      <point x="684" y="300" type="curve" smooth="yes"/>
      <point x="684" y="477"/>
      <point x="539" y="620"/>
      <point x="360" y="620" type="curve" smooth="yes"/>
      <point x="181" y="620"/>
      <point x="36" y="477"/>
      <point x="36" y="300" type="curve" smooth="yes"/>
      <point x="36" y="142"/>
      <point x="152" y="11"/>
      <point x="304" y="-15" type="curve"/>
      <point x="273" y="-60"/>
      <point x="255" y="-105"/>
      <point x="255" y="-153" type="curve" smooth="yes"/>
      <point x="255" y="-266"/>
      <point x="340" y="-318"/>
    </contour>
    <contour>
      <point x="360" y="136" type="curve" smooth="yes"/>
      <point x="270" y="136"/>
      <point x="199" y="209"/>
      <point x="199" y="300" type="curve" smooth="yes"/>
      <point x="199" y="391"/>
      <point x="270" y="464"/>
      <point x="360" y="464" type="curve" smooth="yes"/>
      <point x="449" y="464"/>
      <point x="521" y="391"/>
      <point x="521" y="300" type="curve" smooth="yes"/>
      <point x="521" y="209"/>
      <point x="449" y="136"/>
    </contour>
  </outline>
</glyph>
<glyph name="Aringacute" format="2">
  <advance width="820"/>
  <unicode hex="01FA"/>
  <outline>
    <contour>
      <point x="12" y="0" type="line"/>
      <point x="187" y="0" type="line"/>
      <point x="254" y="160" type="line"/>
      <point x="560" y="160" type="line"/>
      <point x="627" y="0" type="line"/>
      <point x="808" y="0" type="line"/>
      <point x="460" y="817" type="line"/>
      <point x="530" y="837"/>
      <point x="581" y="900"/>
      <point x="581" y="978" type="curve" smooth="yes"/>
      <point x="581" y="1073"/>
      <point x="504" y="1146"/>
      <point x="410" y="1146" type="curve" smooth="yes"/>
      <point x="315" y="1146"/>
      <point x="239" y="1073"/>
      <point x="239" y="978" type="curve" smooth="yes"/>
      <point x="239" y="900"/>
      <point x="290" y="837"/>
      <point x="360" y="817" type="curve"/>
    </contour>
    <contour>
      <point x="314" y="304" type="line"/>
      <point x="353" y="396" type="line" smooth="yes"/>
      <point x="374" y="445"/>
      <point x="391" y="488"/>
      <point x="406" y="548" type="curve"/>
      <point x="422" y="487"/>
      <point x="440" y="445"/>
      <point x="461" y="396" type="curve" smooth="yes"/>
      <point x="500" y="304" type="line"/>
    </contour>
    <contour>
      <point x="410" y="909" type="curve" smooth="yes"/>
      <point x="372" y="909"/>
      <point x="341" y="940"/>
      <point x="341" y="978" type="curve" smooth="yes"/>
      <point x="341" y="1015"/>
      <point x="372" y="1047"/>
      <point x="410" y="1047" type="curve" smooth="yes"/>
      <point x="447" y="1047"/>
      <point x="479" y="1015"/>
      <point x="479" y="978" type="curve" smooth="yes"/>
      <point x="479" y="940"/>
      <point x="447" y="909"/>
    </contour>
    <contour>
      <point x="350" y="1194" type="line"/>
      <point x="476" y="1194" type="line"/>
      <point x="587" y="1344" type="line"/>
      <point x="419" y="1344" type="line"/>
    </contour>
  </outline>
</glyph>
<glyph name="schwa" format="2">
  <advance width="690"/>
  <unicode hex="0259"/>
  <outline>
    <contour>
      <point x="340" y="-20" type="curve" smooth="yes"/>
      <point x="515" y="-20"/>
      <point x="654" y="113"/>
      <point x="654" y="294" type="curve" smooth="yes"/>
      <point x="654" y="484"/>
      <point x="516" y="620"/>
      <point x="313" y="620" type="curve" smooth="yes"/>
      <point x="232" y="620"/>
      <point x="154" y="597"/>
      <point x="94" y="552" type="curve"/>
      <point x="132" y="396" type="line"/>
      <point x="171" y="441"/>
      <point x="233" y="476"/>
      <point x="309" y="476" type="curve" smooth="yes"/>
      <point x="408" y="476"/>
      <point x="474" y="421"/>
      <point x="490" y="341" type="curve"/>
      <point x="459" y="347"/>
      <point x="429" y="351"/>
      <point x="396" y="351" type="curve" smooth="yes"/>
      <point x="30" y="351" type="line"/>
      <point x="30" y="290" type="line" smooth="yes"/>
      <point x="30" y="113"/>
      <point x="163" y="-20"/>
    </contour>
    <contour>
      <point x="342" y="118" type="curve" smooth="yes"/>
      <point x="265" y="118"/>
      <point x="210" y="162"/>
      <point x="190" y="234" type="curve"/>
      <point x="220" y="228"/>
      <point x="253" y="225"/>
      <point x="290" y="225" type="curve" smooth="yes"/>
      <point x="396" y="225" type="line" smooth="yes"/>
      <point x="430" y="225"/>
      <point x="462" y="229"/>
      <point x="494" y="236" type="curve"/>
      <point x="473" y="163"/>
      <point x="416" y="118"/>
    </contour>
  </outline>
</glyph>
<glyph name="ezh" format="2">
  <advance width="660"/>
  <unicode hex="0292"/>
  <anchor x="305" y="-300" name="bottom"/>
  <anchor x="323" y="600" name="top"/>
  <outline>
    <contour>
      <point x="290" y="-320" type="curve" smooth="yes"/>
      <point x="470" y="-320"/>
      <point x="624" y="-183"/>
      <point x="624" y="-4" type="curve" smooth="yes"/>
      <point x="624" y="130"/>
      <point x="538" y="239"/>
      <point x="423" y="281" type="curve"/>
      <point x="594" y="598" type="line"/>
      <point x="594" y="600" type="line"/>
      <point x="78" y="600" type="line"/>
      <point x="78" y="444" type="line"/>
      <point x="337" y="444" type="line"/>
      <point x="177" y="130" type="line"/>
      <point x="179" y="128" type="line"/>
      <point x="213" y="147"/>
      <point x="248" y="158"/>
      <point x="288" y="158" type="curve" smooth="yes"/>
      <point x="388" y="158"/>
      <point x="455" y="88"/>
      <point x="455" y="1" type="curve" smooth="yes"/>
      <point x="455" y="-89"/>
      <point x="383" y="-158"/>
      <point x="292" y="-158" type="curve" smooth="yes"/>
      <point x="201" y="-158"/>
      <point x="130" y="-89"/>
      <point x="109" y="-5" type="curve"/>
      <point x="18" y="-184" type="line"/>
      <point x="76" y="-265"/>
      <point x="176" y="-320"/>
    </contour>
  </outline>
</glyph>
<glyph name="gravecomb" format="2">
  <unicode hex="0300"/>
  <anchor x="422" y="600" name="_top"/>
  <anchor x="310" y="882" name="top"/>
  <outline>
    <contour>
      <point x="359" y="678" type="line"/>
      <point x="496" y="678" type="line"/>
      <point x="404" y="882" type="line"/>
      <point x="215" y="882" type="line"/>
    </contour>
  </outline>
</glyph>
<glyph name="acutecomb" format="2">
  <unicode hex="0301"/>
  <anchor x="298" y="600" name="_top"/>
  <anchor x="411" y="882" name="top"/>
  <outline>
    <contour>
      <point x="224" y="678" type="line"/>
      <point x="361" y="678" type="line"/>
      <point x="505" y="882" type="line"/>
      <point x="316" y="882" type="line"/>
    </contour>
  </outline>
</glyph>
<glyph name="circumflexcomb" format="2">
  <unicode hex="0302"/>
  <anchor x="360" y="600" name="_top"/>
  <anchor x="360" y="921" name="top"/>
  <outline>
    <contour>
      <point x="141" y="678" type="line"/>
      <point x="299" y="678" type="line"/>
      <point x="321" y="702"/>
      <point x="338" y="725"/>
      <point x="358" y="754" type="curve"/>
      <point x="378" y="725"/>
      <point x="395" y="702"/>
      <point x="417" y="678" type="curve"/>
      <point x="579" y="678" type="line"/>
      <point x="361" y="921" type="line"/>
      <point x="359" y="921" type="line"/>
    </contour>
  </outline>
</glyph>
<glyph name="tildecomb" format="2">
  <unicode hex="0303"/>
  <anchor x="360" y="600" name="_top"/>
  <anchor x="360" y="907" name="top"/>
  <outline>
    <contour>
      <point x="181" y="683" type="line"/>
      <point x="199" y="727"/>
      <point x="228" y="753"/>
      <point x="270" y="753" type="curve" smooth="yes"/>
      <point x="328" y="753"/>
      <point x="379" y="703"/>
      <point x="450" y="703" type="curve" smooth="yes"/>
      <point x="505" y="703"/>
      <point x="554" y="733"/>
      <point x="581" y="786" type="curve"/>
      <point x="539" y="907" type="line"/>
      <point x="521" y="863"/>
      <point x="492" y="837"/>
      <point x="450" y="837" type="curve" smooth="yes"/>
      <point x="392" y="837"/>
      <point x="341" y="887"/>
      <point x="270" y="887" type="curve" smooth="yes"/>
      <point x="215" y="887"/>
      <point x="166" y="857"/>
      <point x="139" y="804" type="curve"/>
    </contour>
  </outline>
</glyph>
<glyph name="macroncomb" format="2">
  <unicode hex="0304"/>
  <anchor x="360" y="600" name="_top"/>
  <anchor x="360" y="840" name="top"/>
  <outline>
    <contour>
      <point x="177" y="720" type="line"/>
      <point x="543" y="720" type="line"/>
      <point x="543" y="840" type="line"/>
      <point x="177" y="840" type="line"/>
    </contour>
  </outline>
</glyph>
<glyph name="brevecomb" format="2">
  <unicode hex="0306"/>
  <anchor x="360" y="600" name="_top"/>
  <anchor x="360" y="861" name="top"/>
  <outline>
    <contour>
      <point x="360" y="663" type="curve" smooth="yes"/>
      <point x="475" y="663"/>
      <point x="564" y="747"/>
      <point x="564" y="861" type="curve"/>
      <point x="438" y="861" type="line"/>
      <point x="438" y="818"/>
      <point x="402" y="783"/>
      <point x="360" y="783" type="curve" smooth="yes"/>
      <point x="318" y="783"/>
      <point x="282" y="818"/>
      <point x="282" y="861" type="curve"/>
      <point x="156" y="861" type="line"/>
      <point x="156" y="749"/>
      <point x="246" y="663"/>
    </contour>
  </outline>
</glyph>
<glyph name="dotaccentcomb" format="2">
  <unicode hex="0307"/>
  <anchor x="360" y="600" name="_top"/>
  <anchor x="360" y="873" name="top"/>
  <outline>
    <contour>
      <point x="360" y="687" type="curve" smooth="yes"/>
      <point x="413" y="687"/>
      <point x="453" y="728"/>
      <point x="453" y="780" type="curve" smooth="yes"/>
      <point x="453" y="833"/>
      <point x="413" y="873"/>
      <point x="360" y="873" type="curve" smooth="yes"/>
      <point x="308" y="873"/>
      <point x="267" y="833"/>
      <point x="267" y="780" type="curve" smooth="yes"/>
      <point x="267" y="728"/>
      <point x="308" y="687"/>
    </contour>
  </outline>
</glyph>
<glyph name="dieresiscomb" format="2">
  <unicode hex="0308"/>
  <anchor x="360" y="600" name="_top"/>
  <anchor x="360" y="870" name="top"/>
  <outline>
    <contour>
      <point x="228" y="690" type="curve" smooth="yes"/>
      <point x="279" y="690"/>
      <point x="318" y="730"/>
      <point x="318" y="780" type="curve" smooth="yes"/>
      <point x="318" y="831"/>
      <point x="279" y="870"/>
      <point x="228" y="870" type="curve" smooth="yes"/>
      <point x="178" y="870"/>
      <point x="138" y="831"/>
      <point x="138" y="780" type="curve" smooth="yes"/>
      <point x="138" y="730"/>
      <point x="178" y="690"/>
    </contour>
    <contour>
      <point x="492" y="690" type="curve" smooth="yes"/>
      <point x="543" y="690"/>
      <point x="582" y="730"/>
      <point x="582" y="780" type="curve" smooth="yes"/>
      <point x="582" y="831"/>
      <point x="543" y="870"/>
      <point x="492" y="870" type="curve" smooth="yes"/>
      <point x="442" y="870"/>
      <point x="402" y="831"/>
      <point x="402" y="780" type="curve" smooth="yes"/>
      <point x="402" y="730"/>
      <point x="442" y="690"/>
    </contour>
  </outline>
</glyph>
<glyph name="hookabovecomb" format="2">
  <unicode hex="0309"/>
  <anchor x="360" y="600" name="_top"/>
  <anchor x="360" y="922" name="top"/>
  <outline>
    <contour>
      <point x="306" y="678" type="curve"/>
      <point x="450" y="678" type="line"/>
      <point x="477" y="708"/>
      <point x="500" y="747"/>
      <point x="500" y="796" type="curve" smooth="yes"/>
      <point x="500" y="875"/>
      <point x="427" y="922"/>
      <point x="336" y="922" type="curve" smooth="yes"/>
      <point x="281" y="922"/>
      <point x="229" y="903"/>
      <point x="205" y="883" type="curve"/>
      <point x="235" y="776" type="line"/>
      <point x="251" y="793"/>
      <point x="277" y="810"/>
      <point x="301" y="810" type="curve" smooth="yes"/>
      <point x="334" y="810"/>
      <point x="353" y="791"/>
      <point x="353" y="765" type="curve" smooth="yes"/>
      <point x="353" y="742"/>
      <point x="337" y="714"/>
    </contour>
  </outline>
</glyph>
<glyph name="ringcomb" format="2">
  <unicode hex="030A"/>
  <anchor x="360" y="600" name="_top"/>
  <anchor x="360" y="915" name="top"/>
  <outline>
    <contour>
      <point x="360" y="645" type="curve" smooth="yes"/>
      <point x="437" y="645"/>
      <point x="498" y="703"/>
      <point x="498" y="780" type="curve" smooth="yes"/>
      <point x="498" y="856"/>
      <point x="435" y="915"/>
      <point x="360" y="915" type="curve" smooth="yes"/>
      <point x="284" y="915"/>
      <point x="222" y="856"/>
      <point x="222" y="780" type="curve" smooth="yes"/>
      <point x="222" y="704"/>
      <point x="284" y="645"/>
    </contour>
    <contour>
      <point x="360" y="726" type="curve" smooth="yes"/>
      <point x="330" y="726"/>
      <point x="306" y="750"/>
      <point x="306" y="780" type="curve" smooth="yes"/>
      <point x="306" y="810"/>
      <point x="330" y="834"/>
      <point x="360" y="834" type="curve" smooth="yes"/>
      <point x="389" y="834"/>
      <point x="414" y="810"/>
      <point x="414" y="780" type="curve" smooth="yes"/>
      <point x="414" y="750"/>
      <point x="390" y="726"/>
    </contour>
  </outline>
</glyph>
<glyph name="hungarumlautcomb" format="2">
  <unicode hex="030B"/>
  <anchor x="310" y="600" name="_top"/>
  <anchor x="363" y="870" name="top"/>
  <outline>
    <contour>
      <point x="365" y="678" type="line"/>
      <point x="492" y="678" type="line"/>
      <point x="606" y="870" type="line"/>
      <point x="426" y="870" type="line"/>
    </contour>
    <contour>
      <point x="119" y="678" type="line"/>
      <point x="246" y="678" type="line"/>
      <point x="360" y="870" type="line"/>
      <point x="180" y="870" type="line"/>
    </contour>
  </outline>
</glyph>
<glyph name="caroncomb" format="2">
  <unicode hex="030C"/>
  <anchor x="360" y="600" name="_top"/>
  <anchor x="360" y="912" name="top"/>
  <outline>
    <contour>
      <point x="359" y="669" type="line"/>
      <point x="361" y="669" type="line"/>
      <point x="579" y="912" type="line"/>
      <point x="421" y="912" type="line"/>
      <point x="399" y="888"/>
      <point x="382" y="865"/>
      <point x="362" y="836" type="curve"/>
      <point x="342" y="865"/>
      <point x="325" y="888"/>
      <point x="303" y="912" type="curve"/>
      <point x="141" y="912" type="line"/>
    </contour>
  </outline>
</glyph>
<glyph name="dblgravecomb" format="2">
  <unicode hex="030F"/>
  <anchor x="410" y="600" name="_top"/>
  <anchor x="324" y="882" name="top"/>
  <outline>
    <contour>
      <point x="474" y="678" type="line"/>
      <point x="601" y="678" type="line"/>
      <point x="537" y="882" type="line"/>
      <point x="357" y="882" type="line"/>
    </contour>
    <contour>
      <point x="228" y="678" type="line"/>
      <point x="355" y="678" type="line"/>
      <point x="291" y="882" type="line"/>
      <point x="111" y="882" type="line"/>
    </contour>
  </outline>
</glyph>
<glyph name="commaturnedabovecomb" format="2">
  <unicode hex="0312"/>
  <anchor x="360" y="600" name="_top"/>
  <anchor x="404" y="930" name="top"/>
  <outline>
    <contour>
      <point x="279" y="708" type="curve"/>
      <point x="441" y="708" type="line"/>
      <point x="448" y="798"/>
      <point x="480" y="871"/>
      <point x="528" y="930" type="curve"/>
      <point x="352" y="930" type="line"/>
      <point x="310" y="864"/>
      <point x="285" y="790"/>
    </contour>
  </outline>
</glyph>
<glyph name="horncomb" format="2">
  <unicode hex="031B"/>
  <anchor x="272" y="600" name="_topright"/>
  <outline>
    <contour>
      <point x="325" y="386" type="curve" smooth="yes"/>
      <point x="410" y="386"/>
      <point x="486" y="450"/>
      <point x="486" y="568" type="curve" smooth="yes"/>
      <point x="486" y="597"/>
      <point x="481" y="628"/>
      <point x="462" y="660" type="curve"/>
      <point x="318" y="660" type="line"/>
      <point x="337" y="627"/>
      <point x="342" y="592"/>
      <point x="342" y="568" type="curve" smooth="yes"/>
      <point x="342" y="516"/>
      <point x="312" y="494"/>
      <point x="281" y="494" type="curve" smooth="yes"/>
      <point x="256" y="494"/>
      <point x="233" y="505"/>
      <point x="220" y="528" type="curve"/>
      <point x="220" y="423" type="line"/>
      <point x="248" y="399"/>
      <point x="286" y="386"/>
    </contour>
  </outline>
</glyph>
<glyph name="dieresisbelowcomb" format="2">
  <unicode hex="0324"/>
  <anchor x="360" y="0" name="_bottom"/>
  <anchor x="360" y="-270" name="bottom"/>
  <outline>
    <contour>
      <point x="492" y="-270" type="curve" smooth="yes"/>
      <point x="543" y="-270"/>
      <point x="582" y="-230"/>
      <point x="582" y="-180" type="curve" smooth="yes"/>
      <point x="582" y="-129"/>
      <point x="543" y="-90"/>
      <point x="492" y="-90" type="curve" smooth="yes"/>
      <point x="442" y="-90"/>
      <point x="402" y="-129"/>
      <point x="402" y="-180" type="curve" smooth="yes"/>
      <point x="402" y="-230"/>
      <point x="442" y="-270"/>
    </contour>
    <contour>
      <point x="228" y="-270" type="curve" smooth="yes"/>
      <point x="279" y="-270"/>
      <point x="318" y="-230"/>
      <point x="318" y="-180" type="curve" smooth="yes"/>
      <point x="318" y="-129"/>
      <point x="279" y="-90"/>
      <point x="228" y="-90" type="curve" smooth="yes"/>
      <point x="178" y="-90"/>
      <point x="138" y="-129"/>
      <point x="138" y="-180" type="curve" smooth="yes"/>
      <point x="138" y="-230"/>
      <point x="178" y="-270"/>
    </contour>
  </outline>
</glyph>
<glyph name="cedillacomb" format="2">
  <unicode hex="0327"/>
  <anchor x="426" y="0" name="_bottom"/>
  <anchor x="260" y="-192" name="bottom"/>
  <outline>
    <contour>
      <point x="152" y="-192" type="line"/>
      <point x="367" y="-192" type="line"/>
      <point x="501" y="0" type="line"/>
      <point x="351" y="0" type="line"/>
    </contour>
  </outline>
</glyph>
<glyph name="ogonekcomb" format="2">
  <unicode hex="0328"/>
  <anchor x="363" y="0" name="_ogonek"/>
  <outline>
    <contour>
      <point x="429" y="-318" type="curve"/>
      <point x="459" y="-190" type="line"/>
      <point x="413" y="-189"/>
      <point x="378" y="-166"/>
      <point x="378" y="-116" type="curve" smooth="yes"/>
      <point x="378" y="-74"/>
      <point x="403" y="-39"/>
      <point x="438" y="0" type="curve"/>
      <point x="288" y="0" type="line"/>
      <point x="250" y="-50"/>
      <point x="228" y="-100"/>
      <point x="228" y="-153" type="curve" smooth="yes"/>
      <point x="228" y="-266"/>
      <point x="313" y="-318"/>
    </contour>
  </outline>
</glyph>
<glyph name="macronbelowcomb" format="2">
  <unicode hex="0331"/>
  <anchor x="360" y="0" name="_bottom"/>
  <anchor x="360" y="-240" name="bottom"/>
  <outline>
    <contour>
      <point x="177" y="-240" type="line"/>
      <point x="543" y="-240" type="line"/>
      <point x="543" y="-120" type="line"/>
      <point x="177" y="-120" type="line"/>
    </contour>
  </outline>
</glyph>
<glyph name="strokelongcomb" format="2">
  <unicode hex="0336"/>
  <anchor x="400" y="450" name="_center"/>
  <outline>
    <contour>
      <point x="30" y="396" type="line"/>
      <point x="770" y="396" type="line"/>
      <point x="770" y="504" type="line"/>
      <point x="30" y="504" type="line"/>
    </contour>
  </outline>
</glyph>
<glyph name="pi" format="2">
  <advance width="700"/>
  <unicode hex="03C0"/>
  <outline>
    <contour>
      <point x="66" y="0" type="line"/>
      <point x="240" y="0" type="line"/>
      <point x="240" y="444" type="line"/>
      <point x="460" y="444" type="line"/>
      <point x="460" y="0" type="line"/>
      <point x="634" y="0" type="line"/>
      <point x="634" y="600" type="line"/>
      <point x="66" y="600" type="line"/>
    </contour>
  </outline>
</glyph>
<glyph name="baht" format="2">
  <advance width="750"/>
  <unicode hex="0E3F"/>
  <outline>
    <contour>
      <point x="316" y="-120" type="line"/>
      <point x="424" y="-120" type="line"/>
      <point x="424" y="4" type="line"/>
      <point x="606" y="28"/>
      <point x="702" y="169"/>
      <point x="702" y="309" type="curve" smooth="yes"/>
      <point x="702" y="414"/>
      <point x="647" y="504"/>
      <point x="564" y="556" type="curve"/>
      <point x="600" y="591"/>
      <point x="621" y="638"/>
      <point x="621" y="690" type="curve" smooth="yes"/>
      <point x="621" y="769"/>
      <point x="569" y="878"/>
      <point x="424" y="897" type="curve"/>
      <point x="424" y="990" type="line"/>
      <point x="316" y="990" type="line"/>
      <point x="316" y="900" type="line"/>
      <point x="96" y="900" type="line"/>
      <point x="96" y="0" type="line"/>
      <point x="316" y="0" type="line"/>
    </contour>
    <contour>
      <point x="270" y="162" type="line"/>
      <point x="270" y="468" type="line"/>
      <point x="348" y="468" type="line" smooth="yes"/>
      <point x="470" y="468"/>
      <point x="514" y="383"/>
      <point x="514" y="315" type="curve" smooth="yes"/>
      <point x="514" y="245"/>
      <point x="467" y="162"/>
      <point x="348" y="162" type="curve" smooth="yes"/>
    </contour>
    <contour>
      <point x="270" y="594" type="line"/>
      <point x="270" y="768" type="line"/>
      <point x="352" y="768" type="line" smooth="yes"/>
      <point x="411" y="768"/>
      <point x="453" y="738"/>
      <point x="453" y="680" type="curve" smooth="yes"/>
      <point x="453" y="624"/>
      <point x="411" y="594"/>
      <point x="348" y="594" type="curve" smooth="yes"/>
    </contour>
  </outline>
</glyph>
<glyph name="dblverticalbar" format="2">
  <advance width="480"/>
  <unicode hex="2016"/>
  <outline>
    <contour>
      <point x="303" y="-180" type="line"/>
      <point x="417" y="-180" type="line"/>
      <point x="417" y="960" type="line"/>
      <point x="303" y="960" type="line"/>
    </contour>
    <contour>
      <point x="63" y="-180" type="line"/>
      <point x="177" y="-180" type="line"/>
      <point x="177" y="960" type="line"/>
      <point x="63" y="960" type="line"/>
    </contour>
  </outline>
</glyph>
<glyph name="quoteleft" format="2">
  <advance width="300"/>
  <unicode hex="2018"/>
  <outline>
    <contour>
      <point x="36" y="570" type="curve"/>
      <point x="204" y="570" type="line"/>
      <point x="204" y="711"/>
      <point x="246" y="818"/>
      <point x="303" y="900" type="curve"/>
      <point x="128" y="900" type="line"/>
      <point x="66" y="807"/>
      <point x="36" y="696"/>
    </contour>
  </outline>
</glyph>
<glyph name="quoteright" format="2">
  <advance width="300"/>
  <unicode hex="2019"/>
  <outline>
    <contour>
      <point x="-13" y="570" type="curve"/>
      <point x="162" y="570" type="line"/>
      <point x="224" y="663"/>
      <point x="254" y="774"/>
      <point x="254" y="900" type="curve"/>
      <point x="86" y="900" type="line"/>
      <point x="86" y="759"/>
      <point x="44" y="652"/>
    </contour>
  </outline>
</glyph>
<glyph name="dagger" format="2">
  <advance width="600"/>
  <unicode hex="2020"/>
  <outline>
    <contour>
      <point x="219" y="0" type="line"/>
      <point x="381" y="0" type="line"/>
      <point x="376" y="567" type="line"/>
      <point x="540" y="561" type="line"/>
      <point x="540" y="699" type="line"/>
      <point x="373" y="693" type="line"/>
      <point x="381" y="900" type="line"/>
      <point x="219" y="900" type="line"/>
      <point x="228" y="693" type="line"/>
      <point x="60" y="699" type="line"/>
      <point x="60" y="561" type="line"/>
      <point x="225" y="567" type="line"/>
    </contour>
  </outline>
</glyph>
<glyph name="daggerdbl" format="2">
  <advance width="600"/>
  <unicode hex="2021"/>
  <outline>
    <contour>
      <point x="220" y="0" type="line"/>
      <point x="382" y="0" type="line"/>
      <point x="373" y="207" type="line"/>
      <point x="541" y="201" type="line"/>
      <point x="541" y="339" type="line"/>
      <point x="376" y="333" type="line"/>
      <point x="377" y="450" type="line"/>
      <point x="376" y="567" type="line"/>
      <point x="540" y="561" type="line"/>
      <point x="540" y="699" type="line"/>
      <point x="373" y="693" type="line"/>
      <point x="381" y="900" type="line"/>
      <point x="219" y="900" type="line"/>
      <point x="228" y="693" type="line"/>
      <point x="60" y="699" type="line"/>
      <point x="60" y="561" type="line"/>
      <point x="225" y="567" type="line"/>
      <point x="224" y="450" type="line"/>
      <point x="225" y="333" type="line"/>
      <point x="61" y="339" type="line"/>
      <point x="61" y="201" type="line"/>
      <point x="228" y="207" type="line"/>
    </contour>
  </outline>
</glyph>
<glyph name="guilsinglleft" format="2">
  <advance width="420"/>
  <unicode hex="2039"/>
  <outline>
    <contour>
      <point x="197" y="120" type="line"/>
      <point x="402" y="120" type="line"/>
      <point x="211" y="300" type="line"/>
      <point x="402" y="480" type="line"/>
      <point x="197" y="480" type="line"/>
      <point x="6" y="300" type="line"/>
    </contour>
  </outline>
</glyph>
<glyph name="guilsinglright" format="2">
  <advance width="420"/>
  <unicode hex="203A"/>
  <outline>
    <contour>
      <point x="18" y="120" type="line"/>
      <point x="223" y="120" type="line"/>
      <point x="414" y="301" type="line"/>
      <point x="223" y="480" type="line"/>
      <point x="18" y="480" type="line"/>
      <point x="209" y="301" type="line"/>
    </contour>
  </outline>
</glyph>
<glyph name="fraction" format="2">
  <advance width="180"/>
  <unicode hex="2044"/>
  <outline>
    <contour>
      <point x="-291" y="0" type="line"/>
      <point x="-149" y="0" type="line"/>
      <point x="470" y="900" type="line"/>
      <point x="328" y="900" type="line"/>
    </contour>
  </outline>
</glyph>
<glyph name="commercialMinusSign" format="2">
  <advance width="750"/>
  <unicode hex="2052"/>
  <outline>
    <contour>
      <point x="82" y="0" type="line"/>
      <point x="214" y="0" type="line"/>
      <point x="668" y="900" type="line"/>
      <point x="536" y="900" type="line"/>
    </contour>
    <contour>
      <point x="165" y="552" type="curve" smooth="yes"/>
      <point x="227" y="552"/>
      <point x="273" y="599"/>
      <point x="273" y="660" type="curve" smooth="yes"/>
      <point x="273" y="721"/>
      <point x="227" y="768"/>
      <point x="165" y="768" type="curve" smooth="yes"/>
      <point x="104" y="768"/>
      <point x="57" y="721"/>
      <point x="57" y="660" type="curve" smooth="yes"/>
      <point x="57" y="599"/>
      <point x="104" y="552"/>
    </contour>
    <contour>
      <point x="585" y="132" type="curve" smooth="yes"/>
      <point x="647" y="132"/>
      <point x="693" y="179"/>
      <point x="693" y="240" type="curve" smooth="yes"/>
      <point x="693" y="301"/>
      <point x="647" y="348"/>
      <point x="585" y="348" type="curve" smooth="yes"/>
      <point x="524" y="348"/>
      <point x="477" y="301"/>
      <point x="477" y="240" type="curve" smooth="yes"/>
      <point x="477" y="179"/>
      <point x="524" y="132"/>
    </contour>
  </outline>
</glyph>
<glyph name="colonsign" format="2">
  <advance width="750"/>
  <unicode hex="20A1"/>
  <outline>
    <contour>
      <point x="244" y="-120" type="line"/>
      <point x="352" y="-120" type="line"/>
      <point x="361" y="-8" type="line"/>
      <point x="388" y="-15"/>
      <point x="417" y="-19"/>
      <point x="456" y="-19" type="curve"/>
      <point x="448" y="-120" type="line"/>
      <point x="556" y="-120" type="line"/>
      <point x="566" y="1" type="line"/>
      <point x="611" y="16"/>
      <point x="653" y="40"/>
      <point x="689" y="72" type="curve"/>
      <point x="643" y="260" type="line"/>
      <point x="603" y="196"/>
      <point x="533" y="143"/>
      <point x="451" y="143" type="curve" smooth="yes"/>
      <point x="319" y="143"/>
      <point x="234" y="267"/>
      <point x="234" y="450" type="curve" smooth="yes"/>
      <point x="234" y="633"/>
      <point x="319" y="757"/>
      <point x="451" y="757" type="curve" smooth="yes"/>
      <point x="533" y="757"/>
      <point x="602" y="703"/>
      <point x="643" y="640" type="curve"/>
      <point x="689" y="828" type="line"/>
      <point x="664" y="850"/>
      <point x="637" y="869"/>
      <point x="607" y="883" type="curve"/>
      <point x="616" y="990" type="line"/>
      <point x="508" y="990" type="line"/>
      <point x="502" y="916" type="line"/>
      <point x="470" y="921"/>
      <point x="436" y="921"/>
      <point x="406" y="918" type="curve"/>
      <point x="412" y="990" type="line"/>
      <point x="304" y="990" type="line"/>
      <point x="295" y="885" type="line"/>
      <point x="157" y="817"/>
      <point x="66" y="655"/>
      <point x="66" y="450" type="curve" smooth="yes"/>
      <point x="66" y="265"/>
      <point x="140" y="115"/>
      <point x="257" y="38" type="curve"/>
    </contour>
  </outline>
</glyph>
<glyph name="naira" format="2">
  <advance width="750"/>
  <unicode hex="20A6"/>
  <outline>
    <contour>
      <point x="652" y="-30" type="line"/>
      <point x="654" y="-30" type="line"/>
      <point x="654" y="294" type="line"/>
      <point x="708" y="294" type="line"/>
      <point x="708" y="402" type="line"/>
      <point x="654" y="402" type="line"/>
      <point x="654" y="498" type="line"/>
      <point x="708" y="498" type="line"/>
      <point x="708" y="606" type="line"/>
      <point x="654" y="606" type="line"/>
      <point x="654" y="900" type="line"/>
      <point x="486" y="900" type="line"/>
      <point x="486" y="435" type="line"/>
      <point x="98" y="930" type="line"/>
      <point x="96" y="930" type="line"/>
      <point x="96" y="606" type="line"/>
      <point x="42" y="606" type="line"/>
      <point x="42" y="498" type="line"/>
      <point x="96" y="498" type="line"/>
      <point x="96" y="402" type="line"/>
      <point x="42" y="402" type="line"/>
      <point x="42" y="294" type="line"/>
      <point x="96" y="294" type="line"/>
      <point x="96" y="0" type="line"/>
      <point x="264" y="0" type="line"/>
      <point x="264" y="465" type="line"/>
    </contour>
  </outline>
</glyph>
<glyph name="rupee" format="2">
  <advance width="750"/>
  <unicode hex="20A8"/>
  <outline>
    <contour>
      <point x="48" y="0" type="line"/>
      <point x="184" y="0" type="line"/>
      <point x="184" y="386" type="line"/>
      <point x="233" y="386" type="line"/>
      <point x="308" y="0" type="line"/>
      <point x="447" y="0" type="line"/>
      <point x="360" y="421" type="line"/>
      <point x="426" y="465"/>
      <point x="455" y="547"/>
      <point x="455" y="643" type="curve" smooth="yes"/>
      <point x="455" y="796"/>
      <point x="382" y="900"/>
      <point x="235" y="900" type="curve" smooth="yes"/>
      <point x="48" y="900" type="line"/>
    </contour>
    <contour>
      <point x="184" y="520" type="line"/>
      <point x="184" y="764" type="line"/>
      <point x="224" y="764" type="line" smooth="yes"/>
      <point x="280" y="764"/>
      <point x="319" y="731"/>
      <point x="319" y="642" type="curve" smooth="yes"/>
      <point x="319" y="553"/>
      <point x="280" y="520"/>
      <point x="224" y="520" type="curve" smooth="yes"/>
    </contour>
    <contour>
      <point x="596" y="-20" type="curve" smooth="yes"/>
      <point x="673" y="-20"/>
      <point x="732" y="54"/>
      <point x="732" y="151" type="curve" smooth="yes"/>
      <point x="732" y="303"/>
      <point x="589" y="396"/>
      <point x="589" y="443" type="curve" smooth="yes"/>
      <point x="589" y="454"/>
      <point x="597" y="469"/>
      <point x="617" y="469" type="curve" smooth="yes"/>
      <point x="640" y="469"/>
      <point x="665" y="450"/>
      <point x="688" y="417" type="curve"/>
      <point x="722" y="549" type="line"/>
      <point x="704" y="582"/>
      <point x="655" y="620"/>
      <point x="601" y="620" type="curve" smooth="yes"/>
      <point x="518" y="620"/>
      <point x="472" y="529"/>
      <point x="472" y="449" type="curve" smooth="yes"/>
      <point x="472" y="307"/>
      <point x="615" y="224"/>
      <point x="615" y="161" type="curve" smooth="yes"/>
      <point x="615" y="143"/>
      <point x="604" y="131"/>
      <point x="585" y="131" type="curve" smooth="yes"/>
      <point x="557" y="131"/>
      <point x="526" y="155"/>
      <point x="501" y="195" type="curve"/>
      <point x="466" y="53" type="line"/>
      <point x="491" y="13"/>
      <point x="544" y="-20"/>
    </contour>
  </outline>
</glyph>
<glyph name="won" format="2">
  <advance width="750"/>
  <unicode hex="20A9"/>
  <outline>
    <contour>
      <point x="231" y="-32" type="line"/>
      <point x="233" y="-32" type="line"/>
      <point x="346" y="413" type="line" smooth="yes"/>
      <point x="355" y="449"/>
      <point x="365" y="485"/>
      <point x="375" y="541" type="curve"/>
      <point x="385" y="485"/>
      <point x="395" y="448"/>
      <point x="404" y="412" type="curve" smooth="yes"/>
      <point x="517" y="-32" type="line"/>
      <point x="519" y="-32" type="line"/>
      <point x="597" y="294" type="line"/>
      <point x="708" y="294" type="line"/>
      <point x="708" y="402" type="line"/>
      <point x="623" y="402" type="line"/>
      <point x="647" y="498" type="line"/>
      <point x="708" y="498" type="line"/>
      <point x="708" y="606" type="line"/>
      <point x="673" y="606" type="line"/>
      <point x="744" y="900" type="line"/>
      <point x="603" y="900" type="line"/>
      <point x="512" y="516" type="line" smooth="yes"/>
      <point x="508" y="498"/>
      <point x="503" y="481"/>
      <point x="499" y="461" type="curve"/>
      <point x="494" y="481"/>
      <point x="489" y="498"/>
      <point x="484" y="516" type="curve" smooth="yes"/>
      <point x="378" y="930" type="line"/>
      <point x="376" y="930" type="line"/>
      <point x="272" y="516" type="line" smooth="yes"/>
      <point x="267" y="498"/>
      <point x="263" y="480"/>
      <point x="258" y="460" type="curve"/>
      <point x="254" y="480"/>
      <point x="249" y="498"/>
      <point x="245" y="516" type="curve" smooth="yes"/>
      <point x="152" y="900" type="line"/>
      <point x="6" y="900" type="line"/>
      <point x="77" y="606" type="line"/>
      <point x="42" y="606" type="line"/>
      <point x="42" y="498" type="line"/>
      <point x="103" y="498" type="line"/>
      <point x="127" y="402" type="line"/>
      <point x="42" y="402" type="line"/>
      <point x="42" y="294" type="line"/>
      <point x="153" y="294" type="line"/>
    </contour>
  </outline>
</glyph>
<glyph name="sheqel" format="2">
  <advance width="750"/>
  <unicode hex="20AA"/>
  <outline>
    <contour>
      <point x="443" y="0" type="curve" smooth="yes"/>
      <point x="702" y="0" type="line"/>
      <point x="702" y="900" type="line"/>
      <point x="576" y="900" type="line"/>
      <point x="576" y="114" type="line"/>
      <point x="458" y="114" type="line" smooth="yes"/>
      <point x="395" y="114"/>
      <point x="350" y="161"/>
      <point x="350" y="230" type="curve" smooth="yes"/>
      <point x="350" y="720" type="line"/>
      <point x="228" y="720" type="line"/>
      <point x="228" y="230" type="line" smooth="yes"/>
      <point x="228" y="92"/>
      <point x="324" y="0"/>
    </contour>
    <contour>
      <point x="48" y="0" type="line"/>
      <point x="174" y="0" type="line"/>
      <point x="174" y="786" type="line"/>
      <point x="292" y="786" type="line" smooth="yes"/>
      <point x="355" y="786"/>
      <point x="400" y="739"/>
      <point x="400" y="670" type="curve" smooth="yes"/>
      <point x="400" y="180" type="line"/>
      <point x="522" y="180" type="line"/>
      <point x="522" y="670" type="line" smooth="yes"/>
      <point x="522" y="808"/>
      <point x="426" y="900"/>
      <point x="307" y="900" type="curve" smooth="yes"/>
      <point x="48" y="900" type="line"/>
    </contour>
  </outline>
</glyph>
<glyph name="dong" format="2">
  <advance width="750"/>
  <unicode hex="20AB"/>
  <outline>
    <contour>
      <point x="336" y="106" type="curve" smooth="yes"/>
      <point x="402" y="106"/>
      <point x="459" y="131"/>
      <point x="500" y="172" type="curve"/>
      <point x="500" y="120" type="line"/>
      <point x="644" y="120" type="line"/>
      <point x="644" y="756" type="line"/>
      <point x="726" y="756" type="line"/>
      <point x="726" y="864" type="line"/>
      <point x="644" y="864" type="line"/>
      <point x="644" y="960" type="line"/>
      <point x="500" y="960" type="line"/>
      <point x="500" y="864" type="line"/>
      <point x="298" y="864" type="line"/>
      <point x="298" y="756" type="line"/>
      <point x="500" y="756" type="line"/>
      <point x="500" y="608" type="line"/>
      <point x="459" y="650"/>
      <point x="402" y="674"/>
      <point x="336" y="674" type="curve" smooth="yes"/>
      <point x="186" y="674"/>
      <point x="66" y="547"/>
      <point x="66" y="390" type="curve" smooth="yes"/>
      <point x="66" y="234"/>
      <point x="186" y="106"/>
    </contour>
    <contour>
      <point x="96" y="-54" type="line"/>
      <point x="654" y="-54" type="line"/>
      <point x="654" y="54" type="line"/>
      <point x="96" y="54" type="line"/>
    </contour>
    <contour>
      <point x="356" y="248" type="curve" smooth="yes"/>
      <point x="279" y="248"/>
      <point x="217" y="312"/>
      <point x="217" y="390" type="curve" smooth="yes"/>
      <point x="217" y="469"/>
      <point x="279" y="532"/>
      <point x="356" y="532" type="curve" smooth="yes"/>
      <point x="433" y="532"/>
      <point x="495" y="469"/>
      <point x="495" y="390" type="curve" smooth="yes"/>
      <point x="495" y="312"/>
      <point x="433" y="248"/>
    </contour>
  </outline>
</glyph>
<glyph name="euro" format="2">
  <advance width="750"/>
  <unicode hex="20AC"/>
  <outline>
    <contour>
      <point x="496" y="-20" type="curve" smooth="yes"/>
      <point x="569" y="-20"/>
      <point x="644" y="8"/>
      <point x="702" y="61" type="curve"/>
      <point x="657" y="238" type="line"/>
      <point x="624" y="183"/>
      <point x="567" y="136"/>
      <point x="503" y="136" type="curve" smooth="yes"/>
      <point x="424" y="136"/>
      <point x="371" y="194"/>
      <point x="346" y="294" type="curve"/>
      <point x="558" y="294" type="line"/>
      <point x="558" y="402" type="line"/>
      <point x="331" y="402" type="line"/>
      <point x="330" y="431"/>
      <point x="330" y="469"/>
      <point x="331" y="498" type="curve"/>
      <point x="558" y="498" type="line"/>
      <point x="558" y="606" type="line"/>
      <point x="346" y="606" type="line"/>
      <point x="371" y="706"/>
      <point x="424" y="764"/>
      <point x="503" y="764" type="curve" smooth="yes"/>
      <point x="567" y="764"/>
      <point x="624" y="716"/>
      <point x="657" y="662" type="curve"/>
      <point x="702" y="839" type="line"/>
      <point x="644" y="892"/>
      <point x="569" y="920"/>
      <point x="496" y="920" type="curve" smooth="yes"/>
      <point x="337" y="920"/>
      <point x="218" y="798"/>
      <point x="178" y="606" type="curve"/>
      <point x="72" y="606" type="line"/>
      <point x="72" y="498" type="line"/>
      <point x="163" y="498" type="line"/>
      <point x="162" y="469"/>
      <point x="162" y="431"/>
      <point x="163" y="402" type="curve"/>
      <point x="72" y="402" type="line"/>
      <point x="72" y="294" type="line"/>
      <point x="178" y="294" type="line"/>
      <point x="218" y="102"/>
      <point x="337" y="-20"/>
    </contour>
  </outline>
</glyph>
<glyph name="kip" format="2">
  <advance width="750"/>
  <unicode hex="20AD"/>
  <outline>
    <contour>
      <point x="96" y="0" type="line"/>
      <point x="276" y="0" type="line"/>
      <point x="276" y="455" type="line"/>
      <point x="293" y="421"/>
      <point x="310" y="388"/>
      <point x="326" y="360" type="curve" smooth="yes"/>
      <point x="532" y="0" type="line"/>
      <point x="732" y="0" type="line"/>
      <point x="557" y="299" type="line" smooth="yes"/>
      <point x="532" y="341"/>
      <point x="502" y="384"/>
      <point x="465" y="426" type="curve"/>
      <point x="671" y="426" type="line"/>
      <point x="671" y="534" type="line"/>
      <point x="465" y="534" type="line"/>
      <point x="501" y="576"/>
      <point x="530" y="618"/>
      <point x="555" y="660" type="curve" smooth="yes"/>
      <point x="696" y="900" type="line"/>
      <point x="496" y="900" type="line"/>
      <point x="325" y="600" type="line" smooth="yes"/>
      <point x="309" y="572"/>
      <point x="293" y="539"/>
      <point x="276" y="505" type="curve"/>
      <point x="276" y="900" type="line"/>
      <point x="96" y="900" type="line"/>
      <point x="96" y="534" type="line"/>
      <point x="42" y="534" type="line"/>
      <point x="42" y="426" type="line"/>
      <point x="96" y="426" type="line"/>
    </contour>
  </outline>
</glyph>
<glyph name="tugrik" format="2">
  <advance width="750"/>
  <unicode hex="20AE"/>
  <outline>
    <contour>
      <point x="282" y="0" type="line"/>
      <point x="468" y="0" type="line"/>
      <point x="468" y="257" type="line"/>
      <point x="618" y="294" type="line"/>
      <point x="618" y="402" type="line"/>
      <point x="468" y="365" type="line"/>
      <point x="468" y="461" type="line"/>
      <point x="618" y="498" type="line"/>
      <point x="618" y="606" type="line"/>
      <point x="468" y="569" type="line"/>
      <point x="468" y="738" type="line"/>
      <point x="708" y="738" type="line"/>
      <point x="708" y="900" type="line"/>
      <point x="42" y="900" type="line"/>
      <point x="42" y="738" type="line"/>
      <point x="282" y="738" type="line"/>
      <point x="282" y="523" type="line"/>
      <point x="132" y="486" type="line"/>
      <point x="132" y="378" type="line"/>
      <point x="282" y="415" type="line"/>
      <point x="282" y="319" type="line"/>
      <point x="132" y="282" type="line"/>
      <point x="132" y="174" type="line"/>
      <point x="282" y="211" type="line"/>
    </contour>
  </outline>
</glyph>
<glyph name="peso" format="2">
  <advance width="750"/>
  <unicode hex="20B1"/>
  <outline>
    <contour>
      <point x="96" y="0" type="line"/>
      <point x="270" y="0" type="line"/>
      <point x="270" y="240" type="line"/>
      <point x="308" y="240" type="line" smooth="yes"/>
      <point x="481" y="240"/>
      <point x="578" y="320"/>
      <point x="621" y="414" type="curve"/>
      <point x="708" y="414" type="line"/>
      <point x="708" y="522" type="line"/>
      <point x="647" y="522" type="line"/>
      <point x="651" y="553"/>
      <point x="651" y="587"/>
      <point x="647" y="618" type="curve"/>
      <point x="708" y="618" type="line"/>
      <point x="708" y="726" type="line"/>
      <point x="621" y="726" type="line"/>
      <point x="578" y="821"/>
      <point x="481" y="900"/>
      <point x="308" y="900" type="curve" smooth="yes"/>
      <point x="96" y="900" type="line"/>
      <point x="96" y="726" type="line"/>
      <point x="42" y="726" type="line"/>
      <point x="42" y="618" type="line"/>
      <point x="96" y="618" type="line"/>
      <point x="96" y="522" type="line"/>
      <point x="42" y="522" type="line"/>
      <point x="42" y="414" type="line"/>
      <point x="96" y="414" type="line"/>
    </contour>
    <contour>
      <point x="270" y="396" type="line"/>
      <point x="270" y="744" type="line"/>
      <point x="298" y="744" type="line" smooth="yes"/>
      <point x="427" y="744"/>
      <point x="470" y="664"/>
      <point x="470" y="570" type="curve" smooth="yes"/>
      <point x="470" y="473"/>
      <point x="426" y="396"/>
      <point x="298" y="396" type="curve" smooth="yes"/>
    </contour>
  </outline>
</glyph>
<glyph name="guarani" format="2">
  <advance width="750"/>
  <unicode hex="20B2"/>
  <outline>
    <contour>
      <point x="372" y="-120" type="line"/>
      <point x="480" y="-120" type="line"/>
      <point x="480" y="-16" type="line"/>
      <point x="552" y="-8"/>
      <point x="621" y="21"/>
      <point x="678" y="67" type="curve"/>
      <point x="678" y="504" type="line"/>
      <point x="391" y="504" type="line"/>
      <point x="391" y="354" type="line"/>
      <point x="524" y="354" type="line"/>
      <point x="524" y="157" type="line"/>
      <point x="498" y="147"/>
      <point x="470" y="141"/>
      <point x="441" y="141" type="curve" smooth="yes"/>
      <point x="316" y="141"/>
      <point x="240" y="264"/>
      <point x="240" y="450" type="curve" smooth="yes"/>
      <point x="240" y="636"/>
      <point x="316" y="759"/>
      <point x="441" y="759" type="curve" smooth="yes"/>
      <point x="517" y="759"/>
      <point x="582" y="707"/>
      <point x="620" y="646" type="curve"/>
      <point x="666" y="831" type="line"/>
      <point x="614" y="878"/>
      <point x="549" y="908"/>
      <point x="480" y="917" type="curve"/>
      <point x="480" y="990" type="line"/>
      <point x="372" y="990" type="line"/>
      <point x="372" y="914" type="line"/>
      <point x="191" y="880"/>
      <point x="66" y="698"/>
      <point x="66" y="450" type="curve" smooth="yes"/>
      <point x="66" y="202"/>
      <point x="191" y="20"/>
      <point x="372" y="-13" type="curve"/>
    </contour>
  </outline>
</glyph>
<glyph name="hryvnia" format="2">
  <advance width="750"/>
  <unicode hex="20B4"/>
  <outline>
    <contour>
      <point x="50" y="492" type="line"/>
      <point x="700" y="492" type="line"/>
      <point x="700" y="618" type="line"/>
      <point x="609" y="618" type="line"/>
      <point x="615" y="637"/>
      <point x="616" y="655"/>
      <point x="616" y="672" type="curve" smooth="yes"/>
      <point x="616" y="815"/>
      <point x="503" y="920"/>
      <point x="325" y="920" type="curve" smooth="yes"/>
      <point x="241" y="920"/>
      <point x="164" y="897"/>
      <point x="104" y="852" type="curve"/>
      <point x="142" y="696" type="line"/>
      <point x="181" y="741"/>
      <point x="245" y="776"/>
      <point x="315" y="776" type="curve" smooth="yes"/>
      <point x="399" y="776"/>
      <point x="446" y="726"/>
      <point x="446" y="663" type="curve" smooth="yes"/>
      <point x="446" y="648"/>
      <point x="443" y="633"/>
      <point x="438" y="618" type="curve"/>
      <point x="50" y="618" type="line"/>
    </contour>
    <contour>
      <point x="425" y="-20" type="curve" smooth="yes"/>
      <point x="509" y="-20"/>
      <point x="586" y="3"/>
      <point x="646" y="48" type="curve"/>
      <point x="608" y="204" type="line"/>
      <point x="569" y="159"/>
      <point x="505" y="124"/>
      <point x="435" y="124" type="curve" smooth="yes"/>
      <point x="351" y="124"/>
      <point x="304" y="174"/>
      <point x="304" y="237" type="curve" smooth="yes"/>
      <point x="304" y="252"/>
      <point x="307" y="267"/>
      <point x="312" y="282" type="curve"/>
      <point x="700" y="282" type="line"/>
      <point x="700" y="408" type="line"/>
      <point x="50" y="408" type="line"/>
      <point x="50" y="282" type="line"/>
      <point x="141" y="282" type="line"/>
      <point x="135" y="263"/>
      <point x="134" y="245"/>
      <point x="134" y="228" type="curve" smooth="yes"/>
      <point x="134" y="85"/>
      <point x="247" y="-20"/>
    </contour>
  </outline>
</glyph>
<glyph name="cedi" format="2">
  <advance width="750"/>
  <unicode hex="20B5"/>
  <outline>
    <contour>
      <point x="396" y="-120" type="line"/>
      <point x="504" y="-120" type="line"/>
      <point x="504" y="-16" type="line"/>
      <point x="573" y="-7"/>
      <point x="638" y="22"/>
      <point x="690" y="69" type="curve"/>
      <point x="644" y="254" type="line"/>
      <point x="607" y="192"/>
      <point x="541" y="141"/>
      <point x="465" y="141" type="curve" smooth="yes"/>
      <point x="340" y="141"/>
      <point x="264" y="264"/>
      <point x="264" y="450" type="curve" smooth="yes"/>
      <point x="264" y="636"/>
      <point x="340" y="759"/>
      <point x="465" y="759" type="curve" smooth="yes"/>
      <point x="541" y="759"/>
      <point x="606" y="707"/>
      <point x="644" y="646" type="curve"/>
      <point x="690" y="831" type="line"/>
      <point x="638" y="878"/>
      <point x="573" y="908"/>
      <point x="504" y="917" type="curve"/>
      <point x="504" y="990" type="line"/>
      <point x="396" y="990" type="line"/>
      <point x="396" y="914" type="line"/>
      <point x="215" y="880"/>
      <point x="90" y="698"/>
      <point x="90" y="450" type="curve" smooth="yes"/>
      <point x="90" y="202"/>
      <point x="215" y="20"/>
      <point x="396" y="-13" type="curve"/>
    </contour>
  </outline>
</glyph>
<glyph name="tenge" format="2">
  <advance width="750"/>
  <unicode hex="20B8"/>
  <outline>
    <contour>
      <point x="282" y="0" type="line"/>
      <point x="468" y="0" type="line"/>
      <point x="468" y="564" type="line"/>
      <point x="700" y="564" type="line"/>
      <point x="700" y="690" type="line"/>
      <point x="50" y="690" type="line"/>
      <point x="50" y="564" type="line"/>
      <point x="282" y="564" type="line"/>
    </contour>
    <contour>
      <point x="50" y="774" type="line"/>
      <point x="700" y="774" type="line"/>
      <point x="700" y="900" type="line"/>
      <point x="50" y="900" type="line"/>
    </contour>
  </outline>
</glyph>
<glyph name="rupeeIndian" format="2">
  <advance width="750"/>
  <unicode hex="20B9"/>
  <outline>
    <contour>
      <point x="436" y="0" type="line"/>
      <point x="651" y="0" type="line"/>
      <point x="394" y="283" type="line"/>
      <point x="420" y="290" type="line" smooth="yes"/>
      <point x="526" y="319"/>
      <point x="614" y="405"/>
      <point x="624" y="532" type="curve"/>
      <point x="708" y="532" type="line"/>
      <point x="708" y="640" type="line"/>
      <point x="624" y="640" type="line"/>
      <point x="618" y="698"/>
      <point x="591" y="751"/>
      <point x="546" y="792" type="curve"/>
      <point x="708" y="792" type="line"/>
      <point x="708" y="900" type="line"/>
      <point x="42" y="900" type="line"/>
      <point x="42" y="738" type="line"/>
      <point x="298" y="738" type="line" smooth="yes"/>
      <point x="383" y="738"/>
      <point x="437" y="698"/>
      <point x="449" y="640" type="curve"/>
      <point x="42" y="640" type="line"/>
      <point x="42" y="532" type="line"/>
      <point x="449" y="532" type="line"/>
      <point x="437" y="474"/>
      <point x="383" y="434"/>
      <point x="298" y="434" type="curve" smooth="yes"/>
      <point x="42" y="434" type="line"/>
      <point x="42" y="432" type="line"/>
    </contour>
  </outline>
</glyph>
<glyph name="liraTurkish" format="2">
  <advance width="750"/>
  <unicode hex="20BA"/>
  <outline>
    <contour>
      <point x="147" y="0" type="line"/>
      <point x="445" y="0" type="line" smooth="yes"/>
      <point x="600" y="0"/>
      <point x="720" y="122"/>
      <point x="720" y="272" type="curve" smooth="yes"/>
      <point x="720" y="315"/>
      <point x="711" y="355"/>
      <point x="695" y="390" type="curve"/>
      <point x="511" y="390" type="line"/>
      <point x="535" y="365"/>
      <point x="552" y="324"/>
      <point x="552" y="281" type="curve" smooth="yes"/>
      <point x="552" y="204"/>
      <point x="491" y="144"/>
      <point x="416" y="144" type="curve" smooth="yes"/>
      <point x="315" y="144" type="line"/>
      <point x="315" y="385" type="line"/>
      <point x="504" y="434" type="line"/>
      <point x="504" y="542" type="line"/>
      <point x="315" y="493" type="line"/>
      <point x="315" y="589" type="line"/>
      <point x="504" y="638" type="line"/>
      <point x="504" y="746" type="line"/>
      <point x="315" y="697" type="line"/>
      <point x="315" y="900" type="line"/>
      <point x="147" y="900" type="line"/>
      <point x="147" y="652" type="line"/>
      <point x="48" y="626" type="line"/>
      <point x="48" y="518" type="line"/>
      <point x="147" y="544" type="line"/>
      <point x="147" y="448" type="line"/>
      <point x="48" y="422" type="line"/>
      <point x="48" y="314" type="line"/>
      <point x="147" y="340" type="line"/>
    </contour>
  </outline>
</glyph>
<glyph name="manat" format="2">
  <advance width="750"/>
  <unicode hex="20BC"/>
  <outline>
    <contour>
      <point x="48" y="0" type="line"/>
      <point x="216" y="0" type="line"/>
      <point x="216" y="489" type="line" smooth="yes"/>
      <point x="216" y="573"/>
      <point x="255" y="622"/>
      <point x="315" y="635" type="curve"/>
      <point x="315" y="60" type="line"/>
      <point x="435" y="60" type="line"/>
      <point x="435" y="635" type="line"/>
      <point x="495" y="622"/>
      <point x="534" y="573"/>
      <point x="534" y="489" type="curve" smooth="yes"/>
      <point x="534" y="0" type="line"/>
      <point x="702" y="0" type="line"/>
      <point x="702" y="486" type="line" smooth="yes"/>
      <point x="702" y="678"/>
      <point x="592" y="787"/>
      <point x="435" y="800" type="curve"/>
      <point x="435" y="960" type="line"/>
      <point x="315" y="960" type="line"/>
      <point x="315" y="800" type="line"/>
      <point x="158" y="787"/>
      <point x="48" y="678"/>
      <point x="48" y="486" type="curve" smooth="yes"/>
    </contour>
  </outline>
</glyph>
<glyph name="ruble" format="2">
  <advance width="750"/>
  <unicode hex="20BD"/>
  <outline>
    <contour>
      <point x="118" y="0" type="line"/>
      <point x="292" y="0" type="line"/>
      <point x="292" y="90" type="line"/>
      <point x="558" y="90" type="line"/>
      <point x="558" y="198" type="line"/>
      <point x="292" y="198" type="line"/>
      <point x="292" y="294" type="line"/>
      <point x="378" y="294" type="line" smooth="yes"/>
      <point x="630" y="294"/>
      <point x="720" y="463"/>
      <point x="720" y="597" type="curve" smooth="yes"/>
      <point x="720" y="733"/>
      <point x="629" y="900"/>
      <point x="378" y="900" type="curve" smooth="yes"/>
      <point x="118" y="900" type="line"/>
      <point x="118" y="402" type="line"/>
      <point x="42" y="402" type="line"/>
      <point x="42" y="294" type="line"/>
      <point x="118" y="294" type="line"/>
      <point x="118" y="198" type="line"/>
      <point x="42" y="198" type="line"/>
      <point x="42" y="90" type="line"/>
      <point x="118" y="90" type="line"/>
    </contour>
    <contour>
      <point x="292" y="450" type="line"/>
      <point x="292" y="744" type="line"/>
      <point x="368" y="744" type="line" smooth="yes"/>
      <point x="497" y="744"/>
      <point x="540" y="665"/>
      <point x="540" y="597" type="curve" smooth="yes"/>
      <point x="540" y="526"/>
      <point x="496" y="450"/>
      <point x="368" y="450" type="curve" smooth="yes"/>
    </contour>
  </outline>
</glyph>
<glyph name="lari" format="2">
  <advance width="750"/>
  <unicode hex="20BE"/>
  <outline>
    <contour>
      <point x="72" y="0" type="line"/>
      <point x="678" y="0" type="line"/>
      <point x="678" y="162" type="line"/>
      <point x="541" y="162" type="line" smooth="yes"/>
      <point x="342" y="162"/>
      <point x="240" y="329"/>
      <point x="240" y="518" type="curve" smooth="yes"/>
      <point x="240" y="672"/>
      <point x="308" y="758"/>
      <point x="399" y="758" type="curve" smooth="yes"/>
      <point x="472" y="758"/>
      <point x="522" y="704"/>
      <point x="522" y="636" type="curve" smooth="yes"/>
      <point x="522" y="592"/>
      <point x="502" y="551"/>
      <point x="463" y="518" type="curve"/>
      <point x="659" y="518" type="line"/>
      <point x="680" y="556"/>
      <point x="690" y="595"/>
      <point x="690" y="638" type="curve" smooth="yes"/>
      <point x="690" y="745"/>
      <point x="627" y="843"/>
      <point x="525" y="890" type="curve"/>
      <point x="525" y="990" type="line"/>
      <point x="417" y="990" type="line"/>
      <point x="417" y="919" type="line"/>
      <point x="392" y="921"/>
      <point x="360" y="920"/>
      <point x="333" y="916" type="curve"/>
      <point x="333" y="990" type="line"/>
      <point x="225" y="990" type="line"/>
      <point x="225" y="877" type="line"/>
      <point x="110" y="805"/>
      <point x="60" y="656"/>
      <point x="60" y="519" type="curve" smooth="yes"/>
      <point x="60" y="366"/>
      <point x="122" y="231"/>
      <point x="204" y="156" type="curve"/>
      <point x="72" y="156" type="line"/>
    </contour>
  </outline>
</glyph>
<glyph name="bitcoin" format="2">
  <advance width="750"/>
  <unicode hex="20BF"/>
  <outline>
    <contour>
      <point x="219" y="-120" type="line"/>
      <point x="327" y="-120" type="line"/>
      <point x="327" y="0" type="line"/>
      <point x="355" y="0"/>
      <point x="383" y="0"/>
      <point x="411" y="0" type="curve"/>
      <point x="411" y="-120" type="line"/>
      <point x="519" y="-120" type="line"/>
      <point x="519" y="30" type="line"/>
      <point x="639" y="82"/>
      <point x="702" y="196"/>
      <point x="702" y="309" type="curve" smooth="yes"/>
      <point x="702" y="414"/>
      <point x="647" y="504"/>
      <point x="564" y="556" type="curve"/>
      <point x="600" y="591"/>
      <point x="621" y="638"/>
      <point x="621" y="690" type="curve" smooth="yes"/>
      <point x="621" y="752"/>
      <point x="589" y="831"/>
      <point x="507" y="873" type="curve"/>
      <point x="507" y="990" type="line"/>
      <point x="399" y="990" type="line"/>
      <point x="399" y="900" type="line"/>
      <point x="371" y="900"/>
      <point x="343" y="900"/>
      <point x="315" y="900" type="curve"/>
      <point x="315" y="990" type="line"/>
      <point x="207" y="990" type="line"/>
      <point x="207" y="900" type="line"/>
      <point x="96" y="900" type="line"/>
      <point x="96" y="0" type="line"/>
      <point x="219" y="0" type="line"/>
    </contour>
    <contour>
      <point x="270" y="162" type="line"/>
      <point x="270" y="468" type="line"/>
      <point x="348" y="468" type="line" smooth="yes"/>
      <point x="470" y="468"/>
      <point x="514" y="383"/>
      <point x="514" y="315" type="curve" smooth="yes"/>
      <point x="514" y="245"/>
      <point x="467" y="162"/>
      <point x="348" y="162" type="curve" smooth="yes"/>
    </contour>
    <contour>
      <point x="270" y="594" type="line"/>
      <point x="270" y="768" type="line"/>
      <point x="352" y="768" type="line" smooth="yes"/>
      <point x="411" y="768"/>
      <point x="453" y="738"/>
      <point x="453" y="680" type="curve" smooth="yes"/>
      <point x="453" y="624"/>
      <point x="411" y="594"/>
      <point x="348" y="594" type="curve" smooth="yes"/>
    </contour>
  </outline>
</glyph>
<glyph name="literSign" format="2">
  <advance width="600"/>
  <unicode hex="2113"/>
  <outline>
    <contour>
      <point x="380" y="-12" type="curve" smooth="yes"/>
      <point x="449" y="-12"/>
      <point x="508" y="8"/>
      <point x="540" y="42" type="curve"/>
      <point x="505" y="188" type="line"/>
      <point x="477" y="154"/>
      <point x="444" y="138"/>
      <point x="403" y="138" type="curve" smooth="yes"/>
      <point x="342" y="138"/>
      <point x="307" y="178"/>
      <point x="307" y="248" type="curve" smooth="yes"/>
      <point x="307" y="366" type="line"/>
      <point x="458" y="447"/>
      <point x="564" y="593"/>
      <point x="564" y="751" type="curve" smooth="yes"/>
      <point x="564" y="888"/>
      <point x="489" y="972"/>
      <point x="366" y="972" type="curve" smooth="yes"/>
      <point x="226" y="972"/>
      <point x="133" y="864"/>
      <point x="133" y="703" type="curve" smooth="yes"/>
      <point x="133" y="429" type="line"/>
      <point x="105" y="423"/>
      <point x="77" y="420"/>
      <point x="48" y="420" type="curve"/>
      <point x="48" y="300" type="line"/>
      <point x="77" y="300"/>
      <point x="105" y="302"/>
      <point x="133" y="307" type="curve"/>
      <point x="133" y="237" type="line" smooth="yes"/>
      <point x="133" y="85"/>
      <point x="229" y="-12"/>
    </contour>
    <contour>
      <point x="307" y="508" type="curve"/>
      <point x="307" y="689" type="line" smooth="yes"/>
      <point x="307" y="780"/>
      <point x="333" y="834"/>
      <point x="378" y="834" type="curve" smooth="yes"/>
      <point x="413" y="834"/>
      <point x="435" y="799"/>
      <point x="435" y="742" type="curve" smooth="yes"/>
      <point x="435" y="652"/>
      <point x="385" y="568"/>
    </contour>
  </outline>
</glyph>
<glyph name="numero" format="2">
  <advance width="1380"/>
  <unicode hex="2116"/>
  <outline>
    <contour>
      <point x="802" y="-30" type="line"/>
      <point x="804" y="-30" type="line"/>
      <point x="804" y="900" type="line"/>
      <point x="636" y="900" type="line"/>
      <point x="636" y="392" type="line"/>
      <point x="98" y="930" type="line"/>
      <point x="96" y="930" type="line"/>
      <point x="96" y="0" type="line"/>
      <point x="264" y="0" type="line"/>
      <point x="264" y="509" type="line"/>
    </contour>
    <contour>
      <point x="1140" y="100" type="curve" smooth="yes"/>
      <point x="1199" y="100"/>
      <point x="1245" y="146"/>
      <point x="1245" y="205" type="curve" smooth="yes"/>
      <point x="1245" y="264"/>
      <point x="1199" y="310"/>
      <point x="1140" y="310" type="curve" smooth="yes"/>
      <point x="1081" y="310"/>
      <point x="1035" y="264"/>
      <point x="1035" y="205" type="curve" smooth="yes"/>
      <point x="1035" y="146"/>
      <point x="1081" y="100"/>
    </contour>
    <contour>
      <point x="1140" y="402" type="curve" smooth="yes"/>
      <point x="1254" y="402"/>
      <point x="1346" y="491"/>
      <point x="1346" y="600" type="curve" smooth="yes"/>
      <point x="1346" y="709"/>
      <point x="1254" y="798"/>
      <point x="1140" y="798" type="curve" smooth="yes"/>
      <point x="1026" y="798"/>
      <point x="934" y="709"/>
      <point x="934" y="600" type="curve" smooth="yes"/>
      <point x="934" y="491"/>
      <point x="1026" y="402"/>
    </contour>
    <contour>
      <point x="1140" y="519" type="curve" smooth="yes"/>
      <point x="1093" y="519"/>
      <point x="1057" y="555"/>
      <point x="1057" y="600" type="curve" smooth="yes"/>
      <point x="1057" y="645"/>
      <point x="1093" y="681"/>
      <point x="1140" y="681" type="curve" smooth="yes"/>
      <point x="1186" y="681"/>
      <point x="1223" y="645"/>
      <point x="1223" y="600" type="curve" smooth="yes"/>
      <point x="1223" y="555"/>
      <point x="1186" y="519"/>
    </contour>
  </outline>
</glyph>
<glyph name="trademark" format="2">
  <advance width="840"/>
  <unicode hex="2122"/>
  <outline>
    <contour>
      <point x="386" y="540" type="line"/>
      <point x="494" y="540" type="line"/>
      <point x="494" y="604" type="line" smooth="yes"/>
      <point x="494" y="625"/>
      <point x="494" y="641"/>
      <point x="492" y="661" type="curve"/>
      <point x="502" y="645"/>
      <point x="511" y="635"/>
      <point x="519" y="625" type="curve"/>
      <point x="586" y="546" type="line"/>
      <point x="651" y="623" type="line" smooth="yes"/>
      <point x="661" y="635"/>
      <point x="669" y="645"/>
      <point x="678" y="659" type="curve"/>
      <point x="676" y="637"/>
      <point x="676" y="620"/>
      <point x="676" y="604" type="curve"/>
      <point x="676" y="540" type="line"/>
      <point x="790" y="540" type="line"/>
      <point x="790" y="933" type="line"/>
      <point x="789" y="933" type="line"/>
      <point x="588" y="707" type="line"/>
      <point x="387" y="930" type="line"/>
      <point x="386" y="930" type="line"/>
    </contour>
    <contour>
      <point x="123" y="540" type="line"/>
      <point x="237" y="540" type="line"/>
      <point x="237" y="798" type="line"/>
      <point x="334" y="798" type="line"/>
      <point x="334" y="900" type="line"/>
      <point x="26" y="900" type="line"/>
      <point x="26" y="798" type="line"/>
      <point x="123" y="798" type="line"/>
    </contour>
  </outline>
</glyph>
<glyph name="Ohm" format="2">
  <advance width="1060"/>
  <unicode hex="2126"/>
  <outline>
    <contour>
      <point x="48" y="0" type="line"/>
      <point x="490" y="0" type="line"/>
      <point x="397" y="139" type="line" smooth="yes"/>
      <point x="307" y="274"/>
      <point x="267" y="376"/>
      <point x="267" y="471" type="curve" smooth="yes"/>
      <point x="267" y="629"/>
      <point x="380" y="748"/>
      <point x="530" y="748" type="curve" smooth="yes"/>
      <point x="680" y="748"/>
      <point x="793" y="629"/>
      <point x="793" y="471" type="curve" smooth="yes"/>
      <point x="793" y="376"/>
      <point x="753" y="274"/>
      <point x="663" y="139" type="curve" smooth="yes"/>
      <point x="570" y="0" type="line"/>
      <point x="1012" y="0" type="line"/>
      <point x="1012" y="162" type="line"/>
      <point x="856" y="162" type="line"/>
      <point x="934" y="258"/>
      <point x="976" y="370"/>
      <point x="976" y="480" type="curve" smooth="yes"/>
      <point x="976" y="721"/>
      <point x="776" y="918"/>
      <point x="530" y="918" type="curve" smooth="yes"/>
      <point x="284" y="918"/>
      <point x="84" y="721"/>
      <point x="84" y="480" type="curve" smooth="yes"/>
      <point x="84" y="370"/>
      <point x="126" y="258"/>
      <point x="204" y="162" type="curve"/>
      <point x="48" y="162" type="line"/>
    </contour>
  </outline>
</glyph>
<glyph name="estimated" format="2">
  <advance width="1260"/>
  <unicode hex="212E"/>
  <outline>
    <contour>
      <point x="630" y="-102" type="curve" smooth="yes"/>
      <point x="852" y="-102"/>
      <point x="1043" y="26"/>
      <point x="1133" y="210" type="curve"/>
      <point x="975" y="210" type="line"/>
      <point x="900" y="102"/>
      <point x="773" y="30"/>
      <point x="630" y="30" type="curve" smooth="yes"/>
      <point x="496" y="30"/>
      <point x="377" y="93"/>
      <point x="300" y="190" type="curve"/>
      <point x="300" y="385" type="line"/>
      <point x="1184" y="385" type="line"/>
      <point x="1187" y="406"/>
      <point x="1188" y="428"/>
      <point x="1188" y="450" type="curve" smooth="yes"/>
      <point x="1188" y="755"/>
      <point x="938" y="1002"/>
      <point x="630" y="1002" type="curve" smooth="yes"/>
      <point x="322" y="1002"/>
      <point x="72" y="755"/>
      <point x="72" y="450" type="curve" smooth="yes"/>
      <point x="72" y="145"/>
      <point x="322" y="-102"/>
    </contour>
    <contour>
      <point x="300" y="517" type="line"/>
      <point x="300" y="710" type="line"/>
      <point x="377" y="807"/>
      <point x="496" y="870"/>
      <point x="630" y="870" type="curve" smooth="yes"/>
      <point x="764" y="870"/>
      <point x="883" y="807"/>
      <point x="960" y="710" type="curve"/>
      <point x="960" y="517" type="line"/>
    </contour>
  </outline>
</glyph>
<glyph name="dek" format="2">
  <advance width="750"/>
  <unicode hex="218A"/>
  <outline>
    <contour>
      <point x="383" y="-20" type="curve" smooth="yes"/>
      <point x="549" y="-20"/>
      <point x="676" y="112"/>
      <point x="676" y="263" type="curve" smooth="yes"/>
      <point x="676" y="305"/>
      <point x="666" y="344"/>
      <point x="645" y="382" type="curve"/>
      <point x="449" y="382" type="line"/>
      <point x="488" y="349"/>
      <point x="508" y="308"/>
      <point x="508" y="264" type="curve" smooth="yes"/>
      <point x="508" y="196"/>
      <point x="455" y="142"/>
      <point x="384" y="142" type="curve" smooth="yes"/>
      <point x="313" y="142"/>
      <point x="259" y="196"/>
      <point x="259" y="264" type="curve" smooth="yes"/>
      <point x="259" y="290"/>
      <point x="267" y="317"/>
      <point x="298" y="363" type="curve" smooth="yes"/>
      <point x="664" y="898" type="line"/>
      <point x="664" y="900" type="line"/>
      <point x="74" y="900" type="line"/>
      <point x="74" y="738" type="line"/>
      <point x="361" y="738" type="line"/>
      <point x="158" y="452" type="line" smooth="yes"/>
      <point x="108" y="381"/>
      <point x="85" y="328"/>
      <point x="85" y="264" type="curve" smooth="yes"/>
      <point x="85" y="107"/>
      <point x="221" y="-20"/>
    </contour>
  </outline>
</glyph>
<glyph name="leftArrow" format="2">
  <advance width="1440"/>
  <unicode hex="2190"/>
  <outline>
    <contour>
      <point x="516" y="22" type="line"/>
      <point x="738" y="22" type="line"/>
      <point x="489" y="225" type="line" smooth="yes"/>
      <point x="460" y="249"/>
      <point x="430" y="276"/>
      <point x="381" y="302" type="curve"/>
      <point x="436" y="292"/>
      <point x="511" y="288"/>
      <point x="686" y="288" type="curve" smooth="yes"/>
      <point x="1260" y="288" type="line"/>
      <point x="1260" y="432" type="line"/>
      <point x="684" y="432" type="line" smooth="yes"/>
      <point x="511" y="432"/>
      <point x="436" y="428"/>
      <point x="381" y="418" type="curve"/>
      <point x="430" y="443"/>
      <point x="460" y="471"/>
      <point x="489" y="495" type="curve" smooth="yes"/>
      <point x="739" y="696" type="line"/>
      <point x="516" y="696" type="line"/>
      <point x="100" y="360" type="line"/>
    </contour>
  </outline>
</glyph>
<glyph name="upArrow" format="2">
  <advance width="1440"/>
  <unicode hex="2191"/>
  <outline>
    <contour>
      <point x="648" y="-180" type="line"/>
      <point x="792" y="-180" type="line"/>
      <point x="792" y="398" type="line" smooth="yes"/>
      <point x="792" y="573"/>
      <point x="787" y="648"/>
      <point x="777" y="703" type="curve"/>
      <point x="803" y="654"/>
      <point x="830" y="625"/>
      <point x="854" y="595" type="curve" smooth="yes"/>
      <point x="1050" y="356" type="line"/>
      <point x="1050" y="578" type="line"/>
      <point x="720" y="984" type="line"/>
      <point x="390" y="578" type="line"/>
      <point x="390" y="356" type="line"/>
      <point x="586" y="595" type="line" smooth="yes"/>
      <point x="610" y="625"/>
      <point x="637" y="654"/>
      <point x="663" y="703" type="curve"/>
      <point x="653" y="648"/>
      <point x="648" y="573"/>
      <point x="648" y="398" type="curve" smooth="yes"/>
    </contour>
  </outline>
</glyph>
<glyph name="downArrow" format="2">
  <advance width="1440"/>
  <unicode hex="2193"/>
  <outline>
    <contour>
      <point x="720" y="-264" type="line"/>
      <point x="1050" y="142" type="line"/>
      <point x="1050" y="364" type="line"/>
      <point x="854" y="125" type="line" smooth="yes"/>
      <point x="830" y="95"/>
      <point x="803" y="66"/>
      <point x="777" y="17" type="curve"/>
      <point x="787" y="72"/>
      <point x="792" y="147"/>
      <point x="792" y="322" type="curve" smooth="yes"/>
      <point x="792" y="900" type="line"/>
      <point x="648" y="900" type="line"/>
      <point x="648" y="322" type="line" smooth="yes"/>
      <point x="648" y="147"/>
      <point x="653" y="72"/>
      <point x="663" y="17" type="curve"/>
      <point x="637" y="66"/>
      <point x="610" y="95"/>
      <point x="586" y="125" type="curve" smooth="yes"/>
      <point x="390" y="364" type="line"/>
      <point x="390" y="142" type="line"/>
    </contour>
  </outline>
</glyph>
<glyph name="northWestArrow" format="2">
  <advance width="1440"/>
  <unicode hex="2196"/>
  <outline>
    <contour>
      <point x="1080" y="-70" type="line"/>
      <point x="1182" y="31" type="line"/>
      <point x="774" y="439" type="line" smooth="yes"/>
      <point x="652" y="561"/>
      <point x="596" y="611"/>
      <point x="550" y="643" type="curve"/>
      <point x="603" y="626"/>
      <point x="644" y="625"/>
      <point x="681" y="621" type="curve" smooth="yes"/>
      <point x="1000" y="587" type="line"/>
      <point x="842" y="744" type="line"/>
      <point x="311" y="801" type="line"/>
      <point x="366" y="268" type="line"/>
      <point x="523" y="111" type="line"/>
      <point x="490" y="430" type="line" smooth="yes"/>
      <point x="487" y="468"/>
      <point x="485" y="508"/>
      <point x="468" y="561" type="curve"/>
      <point x="500" y="515"/>
      <point x="550" y="459"/>
      <point x="674" y="336" type="curve" smooth="yes"/>
    </contour>
  </outline>
</glyph>
<glyph name="northEastArrow" format="2">
  <advance width="1440"/>
  <unicode hex="2197"/>
  <outline>
    <contour>
      <point x="339" y="-77" type="line"/>
      <point x="748" y="331" type="line" smooth="yes"/>
      <point x="872" y="455"/>
      <point x="921" y="512"/>
      <point x="953" y="558" type="curve"/>
      <point x="937" y="505"/>
      <point x="935" y="465"/>
      <point x="931" y="427" type="curve" smooth="yes"/>
      <point x="901" y="119" type="line"/>
      <point x="1058" y="276" type="line"/>
      <point x="1112" y="797" type="line"/>
      <point x="591" y="743" type="line"/>
      <point x="434" y="586" type="line"/>
      <point x="742" y="616" type="line" smooth="yes"/>
      <point x="780" y="620"/>
      <point x="820" y="622"/>
      <point x="873" y="638" type="curve"/>
      <point x="827" y="606"/>
      <point x="770" y="557"/>
      <point x="646" y="433" type="curve" smooth="yes"/>
      <point x="238" y="24" type="line"/>
    </contour>
  </outline>
</glyph>
<glyph name="southWestArrow" format="2">
  <advance width="1440"/>
  <unicode hex="2199"/>
  <outline>
    <contour>
      <point x="328" y="-77" type="line"/>
      <point x="849" y="-23" type="line"/>
      <point x="1006" y="134" type="line"/>
      <point x="698" y="104" type="line" smooth="yes"/>
      <point x="660" y="100"/>
      <point x="620" y="98"/>
      <point x="567" y="82" type="curve"/>
      <point x="613" y="114"/>
      <point x="670" y="163"/>
      <point x="794" y="287" type="curve" smooth="yes"/>
      <point x="1202" y="696" type="line"/>
      <point x="1101" y="797" type="line"/>
      <point x="692" y="389" type="line" smooth="yes"/>
      <point x="568" y="265"/>
      <point x="519" y="208"/>
      <point x="487" y="162" type="curve"/>
      <point x="503" y="215"/>
      <point x="505" y="255"/>
      <point x="509" y="293" type="curve" smooth="yes"/>
      <point x="539" y="601" type="line"/>
      <point x="382" y="444" type="line"/>
    </contour>
  </outline>
</glyph>
